<?xml version="1.0" encoding="us-ascii" standalone="no"?><svg xmlns="http://www.w3.org/2000/svg" xmlns:xlink="http://www.w3.org/1999/xlink" contentStyleType="text/css" height="555px" preserveAspectRatio="none" style="width:4353px;height:555px;background:#FFFFFF;" version="1.1" viewBox="0 0 4353 555" width="4353px" zoomAndPan="magnify"><defs/><g><text fill="#000000" font-family="sans-serif" font-size="14" font-weight="bold" lengthAdjust="spacing" textLength="317" x="2011" y="24.9659">Diagrama de Comunica&#231;&#227;o - UC-24: Criar Livro</text><g id="elem_Client"><rect fill="#F1F1F1" height="58.1358" style="stroke:#181818;stroke-width:0.5;" width="62" x="218" y="47.0679"/><text fill="#000000" font-family="sans-serif" font-size="14" lengthAdjust="spacing" textLength="48" x="225" y="64.0339">:Admin</text><text fill="#000000" font-family="sans-serif" font-size="14" lengthAdjust="spacing" textLength="39" x="229.5" y="83.1018">Client</text><line style="stroke:#181818;stroke-width:0.5;" x1="219" x2="279" y1="89.2038" y2="89.2038"/></g><g id="elem_Controller"><rect fill="#F1F1F1" height="39.0679" style="stroke:#181818;stroke-width:0.5;" width="168" x="510" y="365.0179"/><text fill="#000000" font-family="sans-serif" font-size="14" lengthAdjust="spacing" textLength="154" x="517" y="381.9839">:AdminBooksController</text><line style="stroke:#181818;stroke-width:0.5;" x1="511" x2="677" y1="388.0858" y2="388.0858"/></g><g id="elem_CreationService"><rect fill="#F1F1F1" height="39.0679" style="stroke:#181818;stroke-width:0.5;" width="155" x="876.5" y="365.0179"/><text fill="#000000" font-family="sans-serif" font-size="14" lengthAdjust="spacing" textLength="141" x="883.5" y="381.9839">:BookCreationService</text><line style="stroke:#181818;stroke-width:0.5;" x1="877.5" x2="1030.5" y1="388.0858" y2="388.0858"/></g><g id="elem_BookRepo"><rect fill="#F1F1F1" height="39.0679" style="stroke:#181818;stroke-width:0.5;" width="121" x="1751.5" y="365.0179"/><text fill="#000000" font-family="sans-serif" font-size="14" lengthAdjust="spacing" textLength="107" x="1758.5" y="381.9839">:BookRepository</text><line style="stroke:#181818;stroke-width:0.5;" x1="1752.5" x2="1871.5" y1="388.0858" y2="388.0858"/></g><g id="elem_AuthorRepo"><rect fill="#F1F1F1" height="39.0679" style="stroke:#181818;stroke-width:0.5;" width="135" x="3935.5" y="365.0179"/><text fill="#000000" font-family="sans-serif" font-size="14" lengthAdjust="spacing" textLength="121" x="3942.5" y="381.9839">:AuthorRepository</text><line style="stroke:#181818;stroke-width:0.5;" x1="3936.5" x2="4069.5" y1="388.0858" y2="388.0858"/></g><g id="elem_TagRepo"><rect fill="#F1F1F1" height="39.0679" style="stroke:#181818;stroke-width:0.5;" width="114" x="3785" y="365.0179"/><text fill="#000000" font-family="sans-serif" font-size="14" lengthAdjust="spacing" textLength="100" x="3792" y="381.9839">:TagRepository</text><line style="stroke:#181818;stroke-width:0.5;" x1="3786" x2="3898" y1="388.0858" y2="388.0858"/></g><g id="elem_WebsiteRepo"><rect fill="#F1F1F1" height="39.0679" style="stroke:#181818;stroke-width:0.5;" width="143" x="3605.5" y="365.0179"/><text fill="#000000" font-family="sans-serif" font-size="14" lengthAdjust="spacing" textLength="129" x="3612.5" y="381.9839">:WebsiteRepository</text><line style="stroke:#181818;stroke-width:0.5;" x1="3606.5" x2="3747.5" y1="388.0858" y2="388.0858"/></g><g id="elem_Guard"><rect fill="#F1F1F1" height="39.0679" style="stroke:#181818;stroke-width:0.5;" width="85" x="446.5" y="56.5979"/><text fill="#000000" font-family="sans-serif" font-size="14" lengthAdjust="spacing" textLength="71" x="453.5" y="73.5639">:JWTGuard</text><line style="stroke:#181818;stroke-width:0.5;" x1="447.5" x2="530.5" y1="79.6658" y2="79.6658"/></g><g id="elem_RoleGuard"><rect fill="#F1F1F1" height="39.0679" style="stroke:#181818;stroke-width:0.5;" width="96" x="719" y="56.5979"/><text fill="#000000" font-family="sans-serif" font-size="14" lengthAdjust="spacing" textLength="82" x="726" y="73.5639">:RolesGuard</text><line style="stroke:#181818;stroke-width:0.5;" x1="720" x2="814" y1="79.6658" y2="79.6658"/></g><g id="elem_Cache"><rect fill="#F1F1F1" height="39.0679" style="stroke:#181818;stroke-width:0.5;" width="96" x="1196" y="365.0179"/><text fill="#000000" font-family="sans-serif" font-size="14" lengthAdjust="spacing" textLength="82" x="1203" y="381.9839">:RedisCache</text><line style="stroke:#181818;stroke-width:0.5;" x1="1197" x2="1291" y1="388.0858" y2="388.0858"/></g><g id="elem_DBMaster"><rect fill="#F1F1F1" height="58.1358" style="stroke:#181818;stroke-width:0.5;" width="111" x="2177.5" y="355.4879"/><text fill="#000000" font-family="sans-serif" font-size="14" lengthAdjust="spacing" textLength="67" x="2199.5" y="372.4539">:Database</text><text fill="#000000" font-family="sans-serif" font-size="14" lengthAdjust="spacing" textLength="97" x="2184.5" y="391.5218">MySQL Master</text><line style="stroke:#181818;stroke-width:0.5;" x1="2178.5" x2="2287.5" y1="397.6238" y2="397.6238"/></g><g id="elem_GMN36"><path d="M2818,344.1379 L2818,424.962 L3076,424.962 L3076,354.1379 L3066,344.1379 L2818,344.1379 " fill="#FEFFDD" style="stroke:#181818;stroke-width:0.5;"/><path d="M3066,344.1379 L3066,354.1379 L3076,354.1379 L3066,344.1379 " fill="#FEFFDD" style="stroke:#181818;stroke-width:1.0;"/><text fill="#000000" font-family="sans-serif" font-size="13" lengthAdjust="spacing" textLength="73" x="2824" y="363.0349">Transaction:</text><text fill="#000000" font-family="sans-serif" font-size="13" lengthAdjust="spacing" textLength="124" x="2824" y="380.7409">- INSERT INTO books</text><text fill="#000000" font-family="sans-serif" font-size="13" lengthAdjust="spacing" textLength="237" x="2824" y="398.447">- INSERT INTO books_authors (junction)</text><text fill="#000000" font-family="sans-serif" font-size="13" lengthAdjust="spacing" textLength="216" x="2824" y="416.153">- INSERT INTO books_tags (junction)</text></g><g id="elem_GMN43"><path d="M4108,370.6979 L4108,398.4039 L4346,398.4039 L4346,380.6979 L4336,370.6979 L4108,370.6979 " fill="#FEFFDD" style="stroke:#181818;stroke-width:0.5;"/><path d="M4336,370.6979 L4336,380.6979 L4346,380.6979 L4336,370.6979 " fill="#FEFFDD" style="stroke:#181818;stroke-width:1.0;"/><text fill="#000000" font-family="sans-serif" font-size="13" lengthAdjust="spacing" textLength="217" x="4114" y="389.5949">Invalida todos os caches de listagem</text></g><g id="elem_GMN49"><path d="M6,220.1979 L6,548.9062 L292,548.9062 L292,230.1979 L282,220.1979 L6,220.1979 " fill="#FEFFDD" style="stroke:#181818;stroke-width:0.5;"/><path d="M282,220.1979 L282,230.1979 L292,230.1979 L282,220.1979 " fill="#FEFFDD" style="stroke:#181818;stroke-width:1.0;"/><text fill="#000000" font-family="sans-serif" font-size="13" font-weight="bold" lengthAdjust="spacing" textLength="201" x="12" y="239.0949">Fluxo UC-24: Criar Livro (Admin)</text><text fill="#000000" font-family="sans-serif" font-size="13" lengthAdjust="spacing" textLength="241" x="12" y="256.8009">1. Admin envia dados completos do livro</text><text fill="#000000" font-family="sans-serif" font-size="13" lengthAdjust="spacing" textLength="216" x="12" y="274.507">2. Guards validam: JWT + Role Admin</text><text fill="#000000" font-family="sans-serif" font-size="13" lengthAdjust="spacing" textLength="120" x="12" y="292.213">3. Valida t&#237;tulo &#250;nico</text><text fill="#000000" font-family="sans-serif" font-size="13" lengthAdjust="spacing" textLength="265" x="12" y="309.919">4. Valida exist&#234;ncia de: autores, tags, website</text><text fill="#000000" font-family="sans-serif" font-size="13" lengthAdjust="spacing" textLength="152" x="12" y="327.625">5. Cria livro em transa&#231;&#227;o:</text><text fill="#000000" font-family="sans-serif" font-size="13" lengthAdjust="spacing" textLength="203" x="21" y="345.331">- Dados principais na tabela books</text><text fill="#000000" font-family="sans-serif" font-size="13" lengthAdjust="spacing" textLength="241" x="21" y="363.037">- Rela&#231;&#245;es many-to-many (authors, tags)</text><text fill="#000000" font-family="sans-serif" font-size="13" lengthAdjust="spacing" textLength="169" x="12" y="380.7431">6. Invalida cache de listagem</text><text fill="#000000" font-family="sans-serif" font-size="13" lengthAdjust="spacing" textLength="130" x="12" y="398.4491">7. Retorna livro criado</text><text fill="#000000" font-family="sans-serif" font-size="13" lengthAdjust="spacing" textLength="3" x="12" y="416.1551">&#160;</text><text fill="#000000" font-family="sans-serif" font-size="13" font-weight="bold" lengthAdjust="spacing" textLength="142" x="12" y="433.8611">Campos Obrigat&#243;rios:</text><text fill="#000000" font-family="sans-serif" font-size="13" lengthAdjust="spacing" textLength="146" x="12" y="451.5671">- title, description, status</text><text fill="#000000" font-family="sans-serif" font-size="13" lengthAdjust="spacing" textLength="154" x="12" y="469.2731">- authorIds[] (min 1 autor)</text><text fill="#000000" font-family="sans-serif" font-size="13" lengthAdjust="spacing" textLength="214" x="12" y="486.9792">- websiteId, url (origem do scraping)</text><text fill="#000000" font-family="sans-serif" font-size="13" lengthAdjust="spacing" textLength="3" x="12" y="504.6852">&#160;</text><text fill="#000000" font-family="sans-serif" font-size="13" font-weight="bold" lengthAdjust="spacing" textLength="109" x="12" y="522.3912">Status Poss&#237;veis:</text><text fill="#000000" font-family="sans-serif" font-size="13" lengthAdjust="spacing" textLength="156" x="12" y="540.0972">- ACTIVE, INACTIVE, DRAFT</text></g><!--link Client to Controller--><g id="link_Client_Controller"><path codeLine="19" d="M280.49,91.9579 C299.85,102.1679 324.26,117.1379 342,135.1979 C361.98,155.5379 356.77,168.2879 375,190.1979 C435.5,262.9179 519.2583,328.727 562.8983,361.047 " fill="none" id="Client-to-Controller" style="stroke:#181818;stroke-width:1.0;"/><polygon fill="#181818" points="567.72,364.6179,562.8681,356.0471,563.702,361.6421,558.1069,362.4759,567.72,364.6179" style="stroke:#181818;stroke-width:1.0;"/><text fill="#000000" font-family="sans-serif" font-size="13" font-weight="bold" lengthAdjust="spacing" textLength="11" x="489" y="150.0949">1:</text><text fill="#000000" font-family="sans-serif" font-size="13" lengthAdjust="spacing" textLength="120" x="503" y="150.0949">POST /admin/books</text><text fill="#000000" font-family="sans-serif" font-size="13" lengthAdjust="spacing" textLength="360" x="376" y="167.8009">{title, description, status, authorIds[], tagIds[], websiteId, url}</text><text fill="#000000" font-family="sans-serif" font-size="13" lengthAdjust="spacing" textLength="205" x="453.5" y="185.507">Authorization: Bearer adminToken</text></g><!--link Controller to Client--><g id="link_Controller_Client"><path codeLine="64" d="M566.59,364.6379 C517.27,331.3379 409.43,261.8179 310,220.1979 C264.05,200.9579 232.15,229.8579 202,190.1979 C187.21,170.7379 193.84,158.2479 202,135.1979 C205.81,124.4379 208.7448,118.857 215.9548,110.067 " fill="none" id="Controller-to-Client" style="stroke:#181818;stroke-width:1.0;"/><polygon fill="#181818" points="219.76,105.4279,210.9596,109.8497,216.589,109.2938,217.1449,114.9233,219.76,105.4279" style="stroke:#181818;stroke-width:1.0;"/><text fill="#000000" font-family="sans-serif" font-size="13" font-weight="bold" lengthAdjust="spacing" textLength="11" x="203" y="168.0949">2:</text><text fill="#000000" font-family="sans-serif" font-size="13" lengthAdjust="spacing" textLength="115" x="217" y="168.0949">201 Created {book}</text></g><!--link Guard to Client--><g id="link_Guard_Client"><path codeLine="21" d="M446.27,76.1279 C398.66,76.1279 328.81,76.1279 286.38,76.1279 " fill="none" id="Guard-to-Client" style="stroke:#181818;stroke-width:1.0;"/><polygon fill="#181818" points="280.38,76.1279,289.38,80.1279,285.38,76.1279,289.38,72.1279,280.38,76.1279" style="stroke:#181818;stroke-width:1.0;"/><text fill="#000000" font-family="sans-serif" font-size="13" font-weight="bold" lengthAdjust="spacing" textLength="33" x="299.25" y="69.0249">1.0.1:</text><text fill="#000000" font-family="sans-serif" font-size="13" lengthAdjust="spacing" textLength="92" x="335.25" y="69.0249">validateToken()</text></g><!--link Client to Guard--><g id="link_Client_Guard"><path codeLine="22" d="M280.44,86.4379 C295.99,91.0079 315.16,95.8579 332.75,98.1279 C359.64,101.6079 366.81,101.1979 393.75,98.1279 C411.12,96.1479 424.105,93.6463 440.385,89.6263 " fill="none" id="Client-to-Guard" style="stroke:#181818;stroke-width:1.0;"/><polygon fill="#181818" points="446.21,88.1879,436.5135,86.4621,441.3558,89.3866,438.4314,94.2288,446.21,88.1879" style="stroke:#181818;stroke-width:1.0;"/><text fill="#000000" font-family="sans-serif" font-size="13" font-weight="bold" lengthAdjust="spacing" textLength="33" x="333.75" y="94.0249">1.0.2:</text><text fill="#000000" font-family="sans-serif" font-size="13" lengthAdjust="spacing" textLength="23" x="369.75" y="94.0249">JWT</text></g><!--link Guard to RoleGuard--><g id="link_Guard_RoleGuard"><path codeLine="23" d="M531.83,76.1279 C582.24,76.1279 659.76,76.1279 712.51,76.1279 " fill="none" id="Guard-to-RoleGuard" style="stroke:#181818;stroke-width:1.0;"/><polygon fill="#181818" points="718.51,76.1279,709.51,72.1279,713.51,76.1279,709.51,80.1279,718.51,76.1279" style="stroke:#181818;stroke-width:1.0;"/><text fill="#000000" font-family="sans-serif" font-size="13" font-weight="bold" lengthAdjust="spacing" textLength="33" x="560.25" y="69.0249">1.0.3:</text><text fill="#000000" font-family="sans-serif" font-size="13" lengthAdjust="spacing" textLength="94" x="596.25" y="69.0249">checkRole(user)</text></g><!--link RoleGuard to Controller--><g id="link_RoleGuard_Controller"><path codeLine="24" d="M766.25,95.9579 C764.72,119.0979 760.07,159.0979 746,190.1979 C713.17,262.7479 651.7979,328.0213 618.5679,360.3913 " fill="none" id="RoleGuard-to-Controller" style="stroke:#181818;stroke-width:1.0;"/><polygon fill="#181818" points="614.27,364.5779,623.5079,361.1632,617.8516,361.089,617.9257,355.4327,614.27,364.5779" style="stroke:#181818;stroke-width:1.0;"/><text fill="#000000" font-family="sans-serif" font-size="13" font-weight="bold" lengthAdjust="spacing" textLength="33" x="762.53" y="168.0949">1.0.4:</text><text fill="#000000" font-family="sans-serif" font-size="13" lengthAdjust="spacing" textLength="201" x="798.53" y="168.0949">user={id, role: 'admin'} authorized</text></g><!--link Controller to CreationService--><g id="link_Controller_CreationService"><path codeLine="26" d="M678.4,384.5579 C738.26,384.5579 811.98,384.5579 870.27,384.5579 " fill="none" id="Controller-to-CreationService" style="stroke:#181818;stroke-width:1.0;"/><polygon fill="#181818" points="876.27,384.5579,867.27,380.5579,871.27,384.5579,867.27,388.5579,876.27,384.5579" style="stroke:#181818;stroke-width:1.0;"/><text fill="#000000" font-family="sans-serif" font-size="13" font-weight="bold" lengthAdjust="spacing" textLength="22" x="697.25" y="377.4549">1.1:</text><text fill="#000000" font-family="sans-serif" font-size="13" lengthAdjust="spacing" textLength="135" x="722.25" y="377.4549">create(createBookDto)</text></g><!--link CreationService to Controller--><g id="link_CreationService_Controller"><path codeLine="63" d="M876.03,398.3679 C853.58,401.7379 829.01,404.8679 806.25,406.5579 C764.04,409.6779 723.1721,406.4691 684.2821,401.0291 " fill="none" id="CreationService-to-Controller" style="stroke:#181818;stroke-width:1.0;"/><polygon fill="#181818" points="678.34,400.1979,686.6991,405.4061,683.2918,400.8906,687.8074,397.4833,678.34,400.1979" style="stroke:#181818;stroke-width:1.0;"/><text fill="#000000" font-family="sans-serif" font-size="13" font-weight="bold" lengthAdjust="spacing" textLength="22" x="749.25" y="402.4549">1.2:</text><text fill="#000000" font-family="sans-serif" font-size="13" lengthAdjust="spacing" textLength="31" x="774.25" y="402.4549">book</text></g><!--link CreationService to BookRepo--><g id="link_CreationService_BookRepo"><path codeLine="28" d="M955.01,364.7379 C958.3,323.7879 972.26,230.3279 1031.5,190.1779 C1155.69,105.9979 1615.7898,297.6476 1762.1698,362.1776 " fill="none" id="CreationService-to-BookRepo" style="stroke:#181818;stroke-width:1.0;"/><polygon fill="#181818" points="1767.66,364.5979,1761.0382,357.3074,1763.0848,362.581,1757.8112,364.6276,1767.66,364.5979" style="stroke:#181818;stroke-width:1.0;"/><text fill="#000000" font-family="sans-serif" font-size="13" font-weight="bold" lengthAdjust="spacing" textLength="33" x="1032.5" y="168.0949">1.1.1:</text><text fill="#000000" font-family="sans-serif" font-size="13" lengthAdjust="spacing" textLength="89" x="1068.5" y="168.0949">findOne({title})</text></g><!--link BookRepo to CreationService--><g id="link_BookRepo_CreationService"><path codeLine="31" d="M1767.66,364.5979 C1621.28,300.0679 1155.69,105.9979 1031.5,190.1779 C972.26,230.3279 958.7805,317.8072 955.4905,358.7572 " fill="none" id="BookRepo-to-CreationService" style="stroke:#181818;stroke-width:1.0;"/><polygon fill="#181818" points="955.01,364.7379,959.7179,356.0872,955.4104,359.754,951.7436,355.4465,955.01,364.7379" style="stroke:#181818;stroke-width:1.0;"/><text fill="#000000" font-family="sans-serif" font-size="13" font-weight="bold" lengthAdjust="spacing" textLength="33" x="1066" y="168.0949">1.1.2:</text><text fill="#000000" font-family="sans-serif" font-size="13" lengthAdjust="spacing" textLength="22" x="1102" y="168.0949">null</text></g><!--link CreationService to BookRepo--><g id="link_CreationService_BookRepo"><path codeLine="48" d="M955.01,364.7379 C958.3,323.7879 972.26,230.3279 1031.5,190.1779 C1155.69,105.9979 1615.7898,297.6476 1762.1698,362.1776 " fill="none" id="CreationService-to-BookRepo-1" style="stroke:#181818;stroke-width:1.0;"/><polygon fill="#181818" points="1767.66,364.5979,1761.0382,357.3074,1763.0848,362.581,1757.8112,364.6276,1767.66,364.5979" style="stroke:#181818;stroke-width:1.0;"/><text fill="#000000" font-family="sans-serif" font-size="13" font-weight="bold" lengthAdjust="spacing" textLength="33" x="952" y="168.0949">1.1.9:</text><text fill="#000000" font-family="sans-serif" font-size="13" lengthAdjust="spacing" textLength="250" x="988" y="168.0949">save({...bookData, authors, tags, website})</text></g><!--link BookRepo to CreationService--><g id="link_BookRepo_CreationService"><path codeLine="57" d="M1767.66,364.5979 C1621.28,300.0679 1155.69,105.9979 1031.5,190.1779 C972.26,230.3279 958.7805,317.8072 955.4905,358.7572 " fill="none" id="BookRepo-to-CreationService-1" style="stroke:#181818;stroke-width:1.0;"/><polygon fill="#181818" points="955.01,364.7379,959.7179,356.0872,955.4104,359.754,951.7436,355.4465,955.01,364.7379" style="stroke:#181818;stroke-width:1.0;"/><text fill="#000000" font-family="sans-serif" font-size="13" font-weight="bold" lengthAdjust="spacing" textLength="40" x="1058" y="168.0949">1.1.10:</text><text fill="#000000" font-family="sans-serif" font-size="13" lengthAdjust="spacing" textLength="31" x="1101" y="168.0949">book</text></g><!--link BookRepo to DBMaster--><g id="link_BookRepo_DBMaster"><path codeLine="29" d="M1872.77,384.5579 C1954.4,384.5579 2092.33,384.5579 2171.29,384.5579 " fill="none" id="BookRepo-to-DBMaster" style="stroke:#181818;stroke-width:1.0;"/><polygon fill="#181818" points="2177.29,384.5579,2168.29,380.5579,2172.29,384.5579,2168.29,388.5579,2177.29,384.5579" style="stroke:#181818;stroke-width:1.0;"/><text fill="#000000" font-family="sans-serif" font-size="13" font-weight="bold" lengthAdjust="spacing" textLength="44" x="1892" y="377.4549">1.1.1.1:</text><text fill="#000000" font-family="sans-serif" font-size="13" lengthAdjust="spacing" textLength="219" x="1939" y="377.4549">SELECT * FROM books WHERE title=?</text></g><!--link DBMaster to BookRepo--><g id="link_DBMaster_BookRepo"><path codeLine="30" d="M2177.22,366.1279 C2171.13,364.6679 2164.97,363.4179 2159,362.5579 C2129.53,358.2679 1920.5,358.5179 1891,362.5579 C1885.08,363.3679 1884.8289,363.2045 1878.7589,364.5445 " fill="none" id="DBMaster-to-BookRepo" style="stroke:#181818;stroke-width:1.0;"/><polygon fill="#181818" points="1872.9,365.8379,1882.5507,367.8038,1877.7824,364.7601,1880.8261,359.9919,1872.9,365.8379" style="stroke:#181818;stroke-width:1.0;"/><text fill="#000000" font-family="sans-serif" font-size="13" font-weight="bold" lengthAdjust="spacing" textLength="44" x="1946" y="352.4549">1.1.1.2:</text><text fill="#000000" font-family="sans-serif" font-size="13" lengthAdjust="spacing" textLength="111" x="1993" y="352.4549">null (title available)</text></g><!--link BookRepo to DBMaster--><g id="link_BookRepo_DBMaster"><path codeLine="55" d="M1828.3,404.3079 C1844.8,422.6179 1872.17,448.6179 1902.5,459.5579 C1915.3,464.1679 2134.76,464.3479 2147.5,459.5579 C2171.89,450.3679 2189.7934,435.1295 2205.3534,418.2495 " fill="none" id="BookRepo-to-DBMaster-1" style="stroke:#181818;stroke-width:1.0;"/><polygon fill="#181818" points="2209.42,413.8379,2200.379,417.7443,2206.0311,417.5143,2206.2611,423.1664,2209.42,413.8379" style="stroke:#181818;stroke-width:1.0;"/><text fill="#000000" font-family="sans-serif" font-size="13" font-weight="bold" lengthAdjust="spacing" textLength="44" x="1936" y="402.4549">1.1.9.1:</text><text fill="#000000" font-family="sans-serif" font-size="13" lengthAdjust="spacing" textLength="131" x="1983" y="402.4549">BEGIN TRANSACTION;</text><text fill="#000000" font-family="sans-serif" font-size="13" lengthAdjust="spacing" textLength="140" x="1955" y="420.1609">INSERT INTO books (...);</text><text fill="#000000" font-family="sans-serif" font-size="13" lengthAdjust="spacing" textLength="243" x="1903.5" y="437.867">INSERT INTO books_authors VALUES (...);</text><text fill="#000000" font-family="sans-serif" font-size="13" lengthAdjust="spacing" textLength="56" x="1997" y="455.573">COMMIT;</text></g><!--link DBMaster to BookRepo--><g id="link_DBMaster_BookRepo"><path codeLine="56" d="M2217.46,413.9379 C2202.94,437.9279 2178.83,470.1179 2147.5,484.5579 C2135.14,490.2479 1914.94,490.0779 1902.5,484.5579 C1865.69,468.2179 1840.582,433.8299 1826.042,409.6499 " fill="none" id="DBMaster-to-BookRepo-1" style="stroke:#181818;stroke-width:1.0;"/><polygon fill="#181818" points="1822.95,404.5079,1824.16,414.2822,1825.5266,408.7929,1831.0159,410.1595,1822.95,404.5079" style="stroke:#181818;stroke-width:1.0;"/><text fill="#000000" font-family="sans-serif" font-size="13" font-weight="bold" lengthAdjust="spacing" textLength="44" x="1963.5" y="480.4549">1.1.9.2:</text><text fill="#000000" font-family="sans-serif" font-size="13" lengthAdjust="spacing" textLength="76" x="2010.5" y="480.4549">createdBook</text></g><!--link CreationService to AuthorRepo--><g id="link_CreationService_AuthorRepo"><path codeLine="33" d="M972.25,364.6679 C1007.65,327.7279 1089.94,249.6279 1178,220.1979 C1442.58,131.7879 3409.54,191.8479 3688.5,190.1779 C3790.93,189.5579 3844.04,148.3079 3917,220.1979 C3960.01,262.5779 3984.297,325.3412 3995.207,358.9412 " fill="none" id="CreationService-to-AuthorRepo" style="stroke:#181818;stroke-width:1.0;"/><polygon fill="#181818" points="3997.06,364.6479,3998.085,354.8525,3995.5158,359.8923,3990.4761,357.3232,3997.06,364.6479" style="stroke:#181818;stroke-width:1.0;"/><text fill="#000000" font-family="sans-serif" font-size="13" font-weight="bold" lengthAdjust="spacing" textLength="33" x="3689.5" y="168.0949">1.1.3:</text><text fill="#000000" font-family="sans-serif" font-size="13" lengthAdjust="spacing" textLength="131" x="3725.5" y="168.0949">findByIds(authorIds[])</text></g><!--link AuthorRepo to CreationService--><g id="link_AuthorRepo_CreationService"><path codeLine="36" d="M3997.06,364.6479 C3986.15,331.0479 3960.01,262.5779 3917,220.1979 C3844.04,148.3079 3790.93,189.5579 3688.5,190.1779 C3409.54,191.8479 1442.58,131.7879 1178,220.1979 C1089.94,249.6279 1011.8014,323.3959 976.4014,360.3359 " fill="none" id="AuthorRepo-to-CreationService" style="stroke:#181818;stroke-width:1.0;"/><polygon fill="#181818" points="972.25,364.6679,981.3651,360.9375,975.7095,361.0579,975.5891,355.4024,972.25,364.6679" style="stroke:#181818;stroke-width:1.0;"/><text fill="#000000" font-family="sans-serif" font-size="13" font-weight="bold" lengthAdjust="spacing" textLength="33" x="3727.5" y="168.0949">1.1.4:</text><text fill="#000000" font-family="sans-serif" font-size="13" lengthAdjust="spacing" textLength="55" x="3763.5" y="168.0949">authors[]</text></g><!--link AuthorRepo to DBMaster--><g id="link_AuthorRepo_DBMaster"><path codeLine="34" d="M3999.17,364.6079 C3991.09,328.6679 3968.63,253.6279 3917,220.1979 C3812.82,152.7479 2922.32,199.1979 2800,220.1979 C2608.33,253.1179 2394.9332,325.4897 2294.4032,361.7997 " fill="none" id="AuthorRepo-to-DBMaster" style="stroke:#181818;stroke-width:1.0;"/><polygon fill="#181818" points="2288.76,363.8379,2298.5836,364.5427,2293.4627,362.1394,2295.866,357.0184,2288.76,363.8379" style="stroke:#181818;stroke-width:1.0;"/><text fill="#000000" font-family="sans-serif" font-size="13" font-weight="bold" lengthAdjust="spacing" textLength="44" x="3226.5" y="168.0949">1.1.3.1:</text><text fill="#000000" font-family="sans-serif" font-size="13" lengthAdjust="spacing" textLength="238" x="3273.5" y="168.0949">SELECT * FROM authors WHERE id IN (?)</text></g><!--link DBMaster to AuthorRepo--><g id="link_DBMaster_AuthorRepo"><path codeLine="35" d="M2288.76,363.8379 C2389.29,327.5279 2608.33,253.1179 2800,220.1979 C2922.32,199.1979 3812.82,152.7479 3917,220.1979 C3968.63,253.6279 3989.7739,322.814 3997.8539,358.754 " fill="none" id="DBMaster-to-AuthorRepo" style="stroke:#181818;stroke-width:1.0;"/><polygon fill="#181818" points="3999.17,364.6079,4001.0985,354.9497,3998.0733,359.7297,3993.2933,356.7045,3999.17,364.6079" style="stroke:#181818;stroke-width:1.0;"/><text fill="#000000" font-family="sans-serif" font-size="13" font-weight="bold" lengthAdjust="spacing" textLength="44" x="3318" y="168.0949">1.1.3.2:</text><text fill="#000000" font-family="sans-serif" font-size="13" lengthAdjust="spacing" textLength="55" x="3365" y="168.0949">authors[]</text></g><!--link CreationService to TagRepo--><g id="link_CreationService_TagRepo"><path codeLine="38" d="M967.35,364.6679 C996.88,322.7079 1072.41,226.0579 1164,190.1779 C1225.25,166.1779 1246.22,189.7779 1312,190.1779 C1448.4,191.0079 3652.72,145.7379 3767,220.1979 C3817.32,252.9879 3833.4465,322.7533 3838.8165,358.8233 " fill="none" id="CreationService-to-TagRepo" style="stroke:#181818;stroke-width:1.0;"/><polygon fill="#181818" points="3839.7,364.7579,3842.3311,355.267,3838.9637,359.8124,3834.4183,356.445,3839.7,364.7579" style="stroke:#181818;stroke-width:1.0;"/><text fill="#000000" font-family="sans-serif" font-size="13" font-weight="bold" lengthAdjust="spacing" textLength="33" x="1165" y="168.0949">1.1.5:</text><text fill="#000000" font-family="sans-serif" font-size="13" lengthAdjust="spacing" textLength="110" x="1201" y="168.0949">findByIds(tagIds[])</text></g><!--link TagRepo to CreationService--><g id="link_TagRepo_CreationService"><path codeLine="41" d="M3839.7,364.7579 C3834.33,328.6879 3817.32,252.9879 3767,220.1979 C3652.72,145.7379 1448.4,191.0079 1312,190.1779 C1246.22,189.7779 1225.25,166.1779 1164,190.1779 C1072.41,226.0579 1000.3332,317.8012 970.8032,359.7612 " fill="none" id="TagRepo-to-CreationService" style="stroke:#181818;stroke-width:1.0;"/><polygon fill="#181818" points="967.35,364.6679,975.8009,359.61,970.2276,360.579,969.2586,355.0058,967.35,364.6679" style="stroke:#181818;stroke-width:1.0;"/><text fill="#000000" font-family="sans-serif" font-size="13" font-weight="bold" lengthAdjust="spacing" textLength="33" x="1203" y="168.0949">1.1.6:</text><text fill="#000000" font-family="sans-serif" font-size="13" lengthAdjust="spacing" textLength="34" x="1239" y="168.0949">tags[]</text></g><!--link TagRepo to DBMaster--><g id="link_TagRepo_DBMaster"><path codeLine="39" d="M3839.67,364.7979 C3834.25,328.8079 3817.17,253.2179 3767,220.1979 C3637.45,134.9379 2526.58,191.8479 2371.5,190.1779 C2334.61,189.7779 2317.95,167.9579 2288.5,190.1779 C2237.37,228.7479 2230.8593,305.1083 2231.3793,349.2283 " fill="none" id="TagRepo-to-DBMaster" style="stroke:#181818;stroke-width:1.0;"/><polygon fill="#181818" points="2231.45,355.2279,2235.3437,346.1814,2231.3911,350.2283,2227.3442,346.2757,2231.45,355.2279" style="stroke:#181818;stroke-width:1.0;"/><text fill="#000000" font-family="sans-serif" font-size="13" font-weight="bold" lengthAdjust="spacing" textLength="44" x="2198" y="168.0949">1.1.5.1:</text><text fill="#000000" font-family="sans-serif" font-size="13" lengthAdjust="spacing" textLength="217" x="2245" y="168.0949">SELECT * FROM tags WHERE id IN (?)</text></g><!--link DBMaster to TagRepo--><g id="link_DBMaster_TagRepo"><path codeLine="40" d="M2231.45,355.2279 C2230.93,311.1079 2237.37,228.7479 2288.5,190.1779 C2317.95,167.9579 2334.61,189.7779 2371.5,190.1779 C2526.58,191.8479 3637.45,134.9379 3767,220.1979 C3817.17,253.2179 3833.3565,322.8748 3838.7765,358.8648 " fill="none" id="DBMaster-to-TagRepo" style="stroke:#181818;stroke-width:1.0;"/><polygon fill="#181818" points="3839.67,364.7979,3842.2851,355.3026,3838.9254,359.8537,3834.3743,356.4939,3839.67,364.7979" style="stroke:#181818;stroke-width:1.0;"/><text fill="#000000" font-family="sans-serif" font-size="13" font-weight="bold" lengthAdjust="spacing" textLength="44" x="2289.5" y="168.0949">1.1.5.2:</text><text fill="#000000" font-family="sans-serif" font-size="13" lengthAdjust="spacing" textLength="34" x="2336.5" y="168.0949">tags[]</text></g><!--link CreationService to WebsiteRepo--><g id="link_CreationService_WebsiteRepo"><path codeLine="43" d="M972.26,364.6779 C1007.66,327.7579 1089.96,249.6879 1178,220.1979 C1414.92,140.8479 3176.65,191.8479 3426.5,190.1779 C3506.05,189.6479 3540.25,144.6579 3605.5,190.1779 C3663.59,230.7079 3674.3279,317.975 3676.3179,358.805 " fill="none" id="CreationService-to-WebsiteRepo" style="stroke:#181818;stroke-width:1.0;"/><polygon fill="#181818" points="3676.61,364.7979,3680.1671,355.6139,3676.3666,359.8038,3672.1766,356.0033,3676.61,364.7979" style="stroke:#181818;stroke-width:1.0;"/><text fill="#000000" font-family="sans-serif" font-size="13" font-weight="bold" lengthAdjust="spacing" textLength="33" x="3427.5" y="168.0949">1.1.7:</text><text fill="#000000" font-family="sans-serif" font-size="13" lengthAdjust="spacing" textLength="141" x="3463.5" y="168.0949">findOne({id: websiteId})</text></g><!--link WebsiteRepo to CreationService--><g id="link_WebsiteRepo_CreationService"><path codeLine="46" d="M3676.61,364.7979 C3674.62,323.9679 3663.59,230.7079 3605.5,190.1779 C3540.25,144.6579 3506.05,189.6479 3426.5,190.1779 C3176.65,191.8479 1414.92,140.8479 1178,220.1979 C1089.96,249.6879 1011.8126,323.4271 976.4126,360.3471 " fill="none" id="WebsiteRepo-to-CreationService" style="stroke:#181818;stroke-width:1.0;"/><polygon fill="#181818" points="972.26,364.6779,981.3761,360.95,975.7205,361.0689,975.6016,355.4133,972.26,364.6779" style="stroke:#181818;stroke-width:1.0;"/><text fill="#000000" font-family="sans-serif" font-size="13" font-weight="bold" lengthAdjust="spacing" textLength="33" x="3475" y="168.0949">1.1.8:</text><text fill="#000000" font-family="sans-serif" font-size="13" lengthAdjust="spacing" textLength="46" x="3511" y="168.0949">website</text></g><!--link WebsiteRepo to DBMaster--><g id="link_WebsiteRepo_DBMaster"><path codeLine="44" d="M3650.92,364.7679 C3593.43,322.5479 3449.92,224.6979 3311.5,190.1779 C2924.99,93.7879 2454.7529,282.6067 2294.2929,355.4867 " fill="none" id="WebsiteRepo-to-DBMaster" style="stroke:#181818;stroke-width:1.0;"/><polygon fill="#181818" points="2288.83,357.9679,2298.6785,357.888,2293.3824,355.9002,2295.3702,350.6041,2288.83,357.9679" style="stroke:#181818;stroke-width:1.0;"/><text fill="#000000" font-family="sans-serif" font-size="13" font-weight="bold" lengthAdjust="spacing" textLength="44" x="3129.5" y="168.0949">1.1.7.1:</text><text fill="#000000" font-family="sans-serif" font-size="13" lengthAdjust="spacing" textLength="222" x="3176.5" y="168.0949">SELECT * FROM websites WHERE id=?</text></g><!--link DBMaster to WebsiteRepo--><g id="link_DBMaster_WebsiteRepo"><path codeLine="45" d="M2288.83,357.9679 C2449.29,285.0879 2924.99,93.7879 3311.5,190.1779 C3449.92,224.6979 3588.594,318.9964 3646.084,361.2164 " fill="none" id="DBMaster-to-WebsiteRepo" style="stroke:#181818;stroke-width:1.0;"/><polygon fill="#181818" points="3650.92,364.7679,3646.0337,356.2167,3646.89,361.8083,3641.2983,362.6647,3650.92,364.7679" style="stroke:#181818;stroke-width:1.0;"/><text fill="#000000" font-family="sans-serif" font-size="13" font-weight="bold" lengthAdjust="spacing" textLength="44" x="3217.5" y="168.0949">1.1.7.2:</text><text fill="#000000" font-family="sans-serif" font-size="13" lengthAdjust="spacing" textLength="46" x="3264.5" y="168.0949">website</text></g><!--link DBMaster to GMN36--><g id="link_DBMaster_GMN36"><path d="M2288.78,384.5579 C2465.12,384.5579 2641.46,384.5579 2817.8,384.5579 " fill="none" id="DBMaster-GMN36" style="stroke:#181818;stroke-width:1.0;stroke-dasharray:7.0,7.0;"/></g><!--link CreationService to Cache--><g id="link_CreationService_Cache"><path codeLine="59" d="M1031.71,384.5579 C1083.89,384.5579 1145.01,384.5579 1189.66,384.5579 " fill="none" id="CreationService-to-Cache" style="stroke:#181818;stroke-width:1.0;"/><polygon fill="#181818" points="1195.66,384.5579,1186.66,380.5579,1190.66,384.5579,1186.66,388.5579,1195.66,384.5579" style="stroke:#181818;stroke-width:1.0;"/><text fill="#000000" font-family="sans-serif" font-size="13" font-weight="bold" lengthAdjust="spacing" textLength="40" x="1050.75" y="377.4549">1.1.11:</text><text fill="#000000" font-family="sans-serif" font-size="13" lengthAdjust="spacing" textLength="83" x="1093.75" y="377.4549">del("books:*")</text></g><!--link Cache to CreationService--><g id="link_Cache_CreationService"><path codeLine="61" d="M1195.63,397.5479 C1179.71,401.2279 1161.84,404.7279 1145.25,406.5579 C1107.88,410.6679 1072.3462,407.8561 1037.6062,402.3561 " fill="none" id="Cache-to-CreationService" style="stroke:#181818;stroke-width:1.0;"/><polygon fill="#181818" points="1031.68,401.4179,1039.9438,406.7761,1036.6185,402.1998,1041.1948,398.8745,1031.68,401.4179" style="stroke:#181818;stroke-width:1.0;"/><text fill="#000000" font-family="sans-serif" font-size="13" font-weight="bold" lengthAdjust="spacing" textLength="40" x="1083.25" y="402.4549">1.1.12:</text><text fill="#000000" font-family="sans-serif" font-size="13" lengthAdjust="spacing" textLength="18" x="1126.25" y="402.4549">OK</text></g><!--link GMN36 to GMN43--><g id="link_GMN36_GMN43"><path d="M3037.02,343.7379 C3161.65,289.6779 3395.23,197.1679 3605.5,162.6979 C3809.44,129.2679 3887.02,67.5879 4070.5,162.6979 C4158.59,208.3579 4207.63,328.9279 4222.27,370.3479 " fill="none" id="GMN36-GMN43" style="stroke:#181818;stroke-width:1.0;stroke-dasharray:7.0,7.0;"/></g><!--link Client to GMN49--><g id="link_Client_GMN49"><path d="M217.54,92.5879 C201.08,102.4179 182.27,116.7679 172,135.1979 C157.72,160.8279 149.38,190.2779 144.85,219.7479 " fill="none" id="Client-GMN49" style="stroke:#181818;stroke-width:1.0;stroke-dasharray:7.0,7.0;"/></g><!--SRC=[ZLPBRzj64BxpLmnyCQLAZ9znhS0DP4fErTfMIZ7s8GwA5RbHDgPs1UvAZMFur_HGe41EHI-zwezrTfTFXNOY222v-ytiVFFQKKmb50QCp58o9n1JyCLyoLb4rd-j_nJGXJT-T- -W1txAI0hdR9KAnzc6yVGZLK8w0f-HWgrUFvupViFzX56kje18iAyRY5CXRgKlk4f5aj3K0elF4gnnVag9Oe9FQBfY4RNO-bfT8A0B8PaIwPt1vaiL4vRgWqWtOELY2Gp9R0ELhPIGQph5RRe1gwoMq5-kmrTBaiO6OTxAlK0aL9Qx-dCJGMCcVH9zo3oWtyhT0L5aIYIzuHTtaz_EuO98bVbrS6e_TBnEJawAI0QZVW3dewjWh9STnmOAkZzL8W4zQBTtU-qsl1vFGdX6TF2UJNNqRlYzqbdJmMoHKSeMEXuTa8gefUm0CUuSnVBjkmueCilU_h2E6SKTMAR9mmstRcUVJJXxS4f9YiUQSq9nIxdZ63yOiwo1nYHlnpDchKZ2OgAemRgj2WahbeFtD1W3K6ehN5nWzZK6lHhTwZrtAMdQSafOjy4pA7MWfJJsv9uXAzobFTWs1BOVCZUmppH61vV2MbKzXJDzXbIajwXh7pfz1qgqK7v30fNakPrBM_dtZCTZJbqRe8UMKy1G94-7KiGAJORdGp-4Dfm5umim8ORhduV148oMavTE8TbjFDdwc2-J15mZ0cH5M4Ac2QrQy3ZrKa4Zrx902u7zdEtf7UQNMycvbbE1Dx7URs9j5UIyMGoZIt1VjkhCc-omfcVYRz_L3d-2y45Tgebrrd0AaSCwvRooMauER29xs4GMHR_1zAkpBKqjYDOM1pv1y7a5tyIkqYSBcQDQ2hEuLpODJEMgH1FLeoQgcOAIxcOsDzfXsMQozOEVeFnZLUYxQlPOIqYoGhQUv-dAqzqyRw7Ij4zPj4xq0HUAGifc7vG3-0jJmYM9J0Cr2rsCvcGOXFW8nxQK7rl_FKzvz-EI6nMjHw4cOIeuocFGfZpTNevjG4w7hp35mg1_EUdxuMXy-UA6VtK4kEY0LjDEOUTL__pDS580_V75nIXyyOtUT6n3QHjghBU_ho7jxcWnRK1Z9CqTN88DpvWcxfOnkTVUgeQg1oDkRojG8XOIy1zf1LAFMmd3YtD6vuxL-QHHXilurmQJccwelO92zVwfNwS6ixUpQy-aCTnhWGV7cZyLIeavYFVvBASJfDq-IvQVHCDS2AuPyLhjjW7kUc2-WV8Lmz6IQEwHc2yIFJb2B92xdYOrTi-prxRCxlLvJz_Py8EvhAqQWzltu2fpvVgBMYO2rl_Xi6gL71IRz1DwTVqtZ_IvU2jZ3ecKRXQK4Jhq30Lh2z0vA5DKPlgrHMMAOc2iNwGCTIu8ay3H13Ab2QcKcK46k8RI_s9uvuJVTPNewYUujQgsnVRSAtF3f4Gj8pJYo4E5Q3pFBSI12qrnib3uP8xZ9qxZc6b4hVz9cS3qQsUL_FYObW4gzoQuEbIxrbLvAwWFRU3YG8E6wT2XHh9WVDRABPaOlV1QIBd-igAiOeOk-wjX1uiwVni4_REmR2F_0m00]--></g></svg>