<?xml version="1.0" encoding="us-ascii" standalone="no"?><svg xmlns="http://www.w3.org/2000/svg" xmlns:xlink="http://www.w3.org/1999/xlink" contentStyleType="text/css" height="473px" preserveAspectRatio="none" style="width:3379px;height:473px;background:#FFFFFF;" version="1.1" viewBox="0 0 3379 473" width="3379px" zoomAndPan="magnify"><defs/><g><text fill="#000000" font-family="sans-serif" font-size="14" font-weight="bold" lengthAdjust="spacing" textLength="325" x="1520" y="24.9659">Diagrama de Comunica&#231;&#227;o - UC-02: Fazer Login</text><g id="elem_Client"><rect fill="#F1F1F1" height="58.1358" style="stroke:#181818;stroke-width:0.5;" width="65" x="113" y="107.5979"/><text fill="#000000" font-family="sans-serif" font-size="14" lengthAdjust="spacing" textLength="51" x="120" y="124.5639">:Cliente</text><text fill="#000000" font-family="sans-serif" font-size="14" lengthAdjust="spacing" textLength="30" x="130.5" y="143.6318">Web</text><line style="stroke:#181818;stroke-width:0.5;" x1="114" x2="177" y1="149.7338" y2="149.7338"/></g><g id="elem_Controller"><rect fill="#F1F1F1" height="39.0679" style="stroke:#181818;stroke-width:0.5;" width="117" x="482" y="117.1279"/><text fill="#000000" font-family="sans-serif" font-size="14" lengthAdjust="spacing" textLength="103" x="489" y="134.0939">:AuthController</text><line style="stroke:#181818;stroke-width:0.5;" x1="483" x2="598" y1="140.1958" y2="140.1958"/></g><g id="elem_Service"><rect fill="#F1F1F1" height="39.0679" style="stroke:#181818;stroke-width:0.5;" width="98" x="868.5" y="117.1279"/><text fill="#000000" font-family="sans-serif" font-size="14" lengthAdjust="spacing" textLength="84" x="875.5" y="134.0939">:AuthService</text><line style="stroke:#181818;stroke-width:0.5;" x1="869.5" x2="965.5" y1="140.1958" y2="140.1958"/></g><g id="elem_UserService"><rect fill="#F1F1F1" height="39.0679" style="stroke:#181818;stroke-width:0.5;" width="104" x="1946.5" y="117.1279"/><text fill="#000000" font-family="sans-serif" font-size="14" lengthAdjust="spacing" textLength="90" x="1953.5" y="134.0939">:UsersService</text><line style="stroke:#181818;stroke-width:0.5;" x1="1947.5" x2="2049.5" y1="140.1958" y2="140.1958"/></g><g id="elem_Encryption"><rect fill="#F1F1F1" height="39.0679" style="stroke:#181818;stroke-width:0.5;" width="138" x="1315.5" y="117.1279"/><text fill="#000000" font-family="sans-serif" font-size="14" lengthAdjust="spacing" textLength="124" x="1322.5" y="134.0939">:EncryptionService</text><line style="stroke:#181818;stroke-width:0.5;" x1="1316.5" x2="1452.5" y1="140.1958" y2="140.1958"/></g><g id="elem_UserRepo"><rect fill="#F1F1F1" height="39.0679" style="stroke:#181818;stroke-width:0.5;" width="120" x="2348.5" y="117.1279"/><text fill="#000000" font-family="sans-serif" font-size="14" lengthAdjust="spacing" textLength="106" x="2355.5" y="134.0939">:UserRepository</text><line style="stroke:#181818;stroke-width:0.5;" x1="2349.5" x2="2467.5" y1="140.1958" y2="140.1958"/></g><g id="elem_DB"><rect fill="#F1F1F1" height="58.1358" style="stroke:#181818;stroke-width:0.5;" width="81" x="2906" y="107.5979"/><text fill="#000000" font-family="sans-serif" font-size="14" lengthAdjust="spacing" textLength="67" x="2913" y="124.5639">:Database</text><text fill="#000000" font-family="sans-serif" font-size="14" lengthAdjust="spacing" textLength="46" x="2923.5" y="143.6318">MySQL</text><line style="stroke:#181818;stroke-width:0.5;" x1="2907" x2="2986" y1="149.7338" y2="149.7338"/></g><g id="elem_JWT"><rect fill="#F1F1F1" height="39.0679" style="stroke:#181818;stroke-width:0.5;" width="91" x="3282" y="117.1279"/><text fill="#000000" font-family="sans-serif" font-size="14" lengthAdjust="spacing" textLength="77" x="3289" y="134.0939">:JWTService</text><line style="stroke:#181818;stroke-width:0.5;" x1="3283" x2="3372" y1="140.1958" y2="140.1958"/></g><g id="elem_Cache"><rect fill="#F1F1F1" height="39.0679" style="stroke:#181818;stroke-width:0.5;" width="96" x="3027.5" y="117.1279"/><text fill="#000000" font-family="sans-serif" font-size="14" lengthAdjust="spacing" textLength="82" x="3034.5" y="134.0939">:RedisCache</text><line style="stroke:#181818;stroke-width:0.5;" x1="3028.5" x2="3122.5" y1="140.1958" y2="140.1958"/></g><g id="elem_GMN12"><path d="M3164,122.8079 L3164,132.6579 L3123.62,136.6579 L3164,140.6579 L3164,150.5139 A0,0 0 0 0 3164,150.5139 L3241,150.5139 A0,0 0 0 0 3241,150.5139 L3241,132.8079 L3231,122.8079 L3164,122.8079 A0,0 0 0 0 3164,122.8079 " fill="#FEFFDD" style="stroke:#181818;stroke-width:0.5;"/><path d="M3231,122.8079 L3231,132.8079 L3241,132.8079 L3231,122.8079 " fill="#FEFFDD" style="stroke:#181818;stroke-width:0.5;"/><text fill="#000000" font-family="sans-serif" font-size="13" lengthAdjust="spacing" textLength="56" x="3170" y="141.7049">LoginDto</text></g><g id="elem_GMN32"><path d="M6,226.7279 L6,466.9061 A0,0 0 0 0 6,466.9061 L285,466.9061 A0,0 0 0 0 285,466.9061 L285,236.7279 L275,226.7279 L149.5,226.7279 L145.5,166.1679 L141.5,226.7279 L6,226.7279 A0,0 0 0 0 6,226.7279 " fill="#FEFFDD" style="stroke:#181818;stroke-width:0.5;"/><path d="M275,226.7279 L275,236.7279 L285,236.7279 L275,226.7279 " fill="#FEFFDD" style="stroke:#181818;stroke-width:0.5;"/><text fill="#000000" font-family="sans-serif" font-size="13" font-weight="bold" lengthAdjust="spacing" textLength="116" x="12" y="245.6249">Fluxo UC-02: Login</text><text fill="#000000" font-family="sans-serif" font-size="13" lengthAdjust="spacing" textLength="158" x="12" y="263.3309">1. Cliente envia credenciais</text><text fill="#000000" font-family="sans-serif" font-size="13" lengthAdjust="spacing" textLength="205" x="12" y="281.037">2. Sistema busca usu&#225;rio por email</text><text fill="#000000" font-family="sans-serif" font-size="13" lengthAdjust="spacing" textLength="202" x="12" y="298.743">3. Senha &#233; comparada com bcrypt</text><text fill="#000000" font-family="sans-serif" font-size="13" lengthAdjust="spacing" textLength="158" x="12" y="316.449">4. Tokens JWT s&#227;o gerados</text><text fill="#000000" font-family="sans-serif" font-size="13" lengthAdjust="spacing" textLength="253" x="12" y="334.155">5. Refresh token salvo no Redis (TTL 7 dias)</text><text fill="#000000" font-family="sans-serif" font-size="13" lengthAdjust="spacing" textLength="193" x="12" y="351.861">6. Access token v&#225;lido por 15min</text><text fill="#000000" font-family="sans-serif" font-size="13" lengthAdjust="spacing" textLength="258" x="12" y="369.567">7. Resposta com tokens e dados do usu&#225;rio</text><text fill="#000000" font-family="sans-serif" font-size="13" lengthAdjust="spacing" textLength="3" x="12" y="387.2731">&#160;</text><text fill="#000000" font-family="sans-serif" font-size="13" font-weight="bold" lengthAdjust="spacing" textLength="72" x="12" y="404.9791">Seguran&#231;a:</text><text fill="#000000" font-family="sans-serif" font-size="13" lengthAdjust="spacing" textLength="169" x="12" y="422.6851">- Password nunca retornado</text><text fill="#000000" font-family="sans-serif" font-size="13" lengthAdjust="spacing" textLength="159" x="12" y="440.3911">- Tokens &#250;nicos por sess&#227;o</text><text fill="#000000" font-family="sans-serif" font-size="13" lengthAdjust="spacing" textLength="135" x="12" y="458.0971">- Rate limiting aplicado</text></g><!--link Client to Controller--><g id="link_Client_Controller"><path codeLine="17" d="M178.47,148.8279 C190.84,152.7979 205.14,156.6879 218.5,158.6579 C267.53,165.8879 392.24,164.0679 441.5,158.6579 C454.63,157.2179 462.6918,155.9884 475.8318,153.1884 " fill="none" id="Client-to-Controller" style="stroke:#181818;stroke-width:1.0;"/><polygon fill="#181818" points="481.7,151.9379,472.064,149.9014,476.8098,152.98,473.7313,157.7258,481.7,151.9379" style="stroke:#181818;stroke-width:1.0;"/><text fill="#000000" font-family="sans-serif" font-size="13" font-weight="bold" lengthAdjust="spacing" textLength="11" x="219.5" y="154.5549">1:</text><text fill="#000000" font-family="sans-serif" font-size="13" lengthAdjust="spacing" textLength="207" x="233.5" y="154.5549">POST /auth/login(email, password)</text></g><!--link Controller to Client--><g id="link_Controller_Client"><path codeLine="42" d="M481.73,136.6579 C397.52,136.6579 251.34,136.6579 184.5,136.6579 " fill="none" id="Controller-to-Client" style="stroke:#181818;stroke-width:1.0;"/><polygon fill="#181818" points="178.5,136.6579,187.5,140.6579,183.5,136.6579,187.5,132.6579,178.5,136.6579" style="stroke:#181818;stroke-width:1.0;"/><text fill="#000000" font-family="sans-serif" font-size="13" font-weight="bold" lengthAdjust="spacing" textLength="11" x="199.5" y="129.5549">2:</text><text fill="#000000" font-family="sans-serif" font-size="13" lengthAdjust="spacing" textLength="247" x="213.5" y="129.5549">200 OK {accessToken, refreshToken, user}</text></g><!--link Controller to Service--><g id="link_Controller_Service"><path codeLine="20" d="M599.28,148.3779 C622.8,152.5079 650.21,156.6279 675.25,158.6579 C727.08,162.8679 740.45,163.1779 792.25,158.6579 C817.43,156.4679 839.2598,152.9805 862.1998,148.5305 " fill="none" id="Controller-to-Service" style="stroke:#181818;stroke-width:1.0;"/><polygon fill="#181818" points="868.09,147.3879,858.493,145.175,863.1815,148.3401,860.0164,153.0286,868.09,147.3879" style="stroke:#181818;stroke-width:1.0;"/><text fill="#000000" font-family="sans-serif" font-size="13" font-weight="bold" lengthAdjust="spacing" textLength="22" x="676.25" y="154.5549">1.1:</text><text fill="#000000" font-family="sans-serif" font-size="13" lengthAdjust="spacing" textLength="90" x="701.25" y="154.5549">login(loginDto)</text></g><!--link Service to Controller--><g id="link_Service_Controller"><path codeLine="41" d="M868.02,136.6579 C798.82,136.6579 679.34,136.6579 605.41,136.6579 " fill="none" id="Service-to-Controller" style="stroke:#181818;stroke-width:1.0;"/><polygon fill="#181818" points="599.41,136.6579,608.41,140.6579,604.41,136.6579,608.41,132.6579,599.41,136.6579" style="stroke:#181818;stroke-width:1.0;"/><text fill="#000000" font-family="sans-serif" font-size="13" font-weight="bold" lengthAdjust="spacing" textLength="22" x="620.25" y="129.5549">1.2:</text><text fill="#000000" font-family="sans-serif" font-size="13" lengthAdjust="spacing" textLength="202" x="645.25" y="129.5549">{accessToken, refreshToken, user}</text></g><!--link Service to UserService--><g id="link_Service_UserService"><path codeLine="22" d="M966.62,131.6179 C1100.1,118.1979 1480.82,81.8479 1798.5,70.0179 C1831.37,68.7979 1916.94,55.5979 1946.5,70.0179 C1966.28,79.6779 1977.8834,95.6162 1986.4634,111.5362 " fill="none" id="Service-to-UserService" style="stroke:#181818;stroke-width:1.0;"/><polygon fill="#181818" points="1989.31,116.8179,1988.5613,106.9976,1986.9379,112.4164,1981.519,110.793,1989.31,116.8179" style="stroke:#181818;stroke-width:1.0;"/><text fill="#000000" font-family="sans-serif" font-size="13" font-weight="bold" lengthAdjust="spacing" textLength="33" x="1799.5" y="73.4949">1.1.1:</text><text fill="#000000" font-family="sans-serif" font-size="13" lengthAdjust="spacing" textLength="110" x="1835.5" y="73.4949">findByEmail(email)</text></g><!--link UserService to Service--><g id="link_UserService_Service"><path codeLine="27" d="M1989.31,116.8179 C1980.73,100.8979 1966.28,79.6779 1946.5,70.0179 C1916.94,55.5979 1831.37,68.7979 1798.5,70.0179 C1480.82,81.8479 1106.0699,117.5977 972.5899,131.0177 " fill="none" id="UserService-to-Service" style="stroke:#181818;stroke-width:1.0;"/><polygon fill="#181818" points="966.62,131.6179,975.975,134.6975,971.5949,131.1177,975.1747,126.7377,966.62,131.6179" style="stroke:#181818;stroke-width:1.0;"/><text fill="#000000" font-family="sans-serif" font-size="13" font-weight="bold" lengthAdjust="spacing" textLength="33" x="1841.5" y="73.4949">1.1.2:</text><text fill="#000000" font-family="sans-serif" font-size="13" lengthAdjust="spacing" textLength="26" x="1877.5" y="73.4949">user</text></g><!--link UserService to UserRepo--><g id="link_UserService_UserRepo"><path codeLine="23" d="M2050.84,136.6579 C2126.94,136.6579 2261.79,136.6579 2342.15,136.6579 " fill="none" id="UserService-to-UserRepo" style="stroke:#181818;stroke-width:1.0;"/><polygon fill="#181818" points="2348.15,136.6579,2339.15,132.6579,2343.15,136.6579,2339.15,140.6579,2348.15,136.6579" style="stroke:#181818;stroke-width:1.0;"/><text fill="#000000" font-family="sans-serif" font-size="13" font-weight="bold" lengthAdjust="spacing" textLength="44" x="2071.5" y="129.5549">1.1.1.1:</text><text fill="#000000" font-family="sans-serif" font-size="13" lengthAdjust="spacing" textLength="209" x="2118.5" y="129.5549">findOne({email}, {relations: ['role']})</text></g><!--link UserRepo to UserService--><g id="link_UserRepo_UserService"><path codeLine="26" d="M2348.03,147.3379 C2298.17,154.8679 2225.55,162.9179 2162,158.6579 C2124.71,156.1679 2088.8791,151.4175 2056.8991,146.4575 " fill="none" id="UserRepo-to-UserService" style="stroke:#181818;stroke-width:1.0;"/><polygon fill="#181818" points="2050.97,145.5379,2059.2506,150.87,2055.9109,146.3042,2060.4767,142.9646,2050.97,145.5379" style="stroke:#181818;stroke-width:1.0;"/><text fill="#000000" font-family="sans-serif" font-size="13" font-weight="bold" lengthAdjust="spacing" textLength="44" x="2163" y="154.5549">1.1.1.2:</text><text fill="#000000" font-family="sans-serif" font-size="13" lengthAdjust="spacing" textLength="26" x="2210" y="154.5549">user</text></g><!--link UserRepo to DB--><g id="link_UserRepo_DB"><path codeLine="24" d="M2468.91,136.6579 C2579.53,136.6579 2805.9,136.6579 2899.82,136.6579 " fill="none" id="UserRepo-to-DB" style="stroke:#181818;stroke-width:1.0;"/><polygon fill="#181818" points="2905.82,136.6579,2896.82,132.6579,2900.82,136.6579,2896.82,140.6579,2905.82,136.6579" style="stroke:#181818;stroke-width:1.0;"/><text fill="#000000" font-family="sans-serif" font-size="13" font-weight="bold" lengthAdjust="spacing" textLength="55" x="2489.75" y="129.5549">1.1.1.1.1:</text><text fill="#000000" font-family="sans-serif" font-size="13" lengthAdjust="spacing" textLength="337" x="2547.75" y="129.5549">SELECT u.*, r.* FROM users u JOIN roles r WHERE email=?</text></g><!--link DB to UserRepo--><g id="link_DB_UserRepo"><path codeLine="25" d="M2905.68,143.2679 C2870.35,148.6379 2817.83,155.7679 2771.75,158.6579 C2696.79,163.3579 2677.74,162.8979 2602.75,158.6579 C2557.68,156.1179 2512.9591,151.0581 2474.6791,146.0381 " fill="none" id="DB-to-UserRepo" style="stroke:#181818;stroke-width:1.0;"/><polygon fill="#181818" points="2468.73,145.2579,2477.1335,150.3942,2473.6876,145.908,2478.1737,142.4621,2468.73,145.2579" style="stroke:#181818;stroke-width:1.0;"/><text fill="#000000" font-family="sans-serif" font-size="13" font-weight="bold" lengthAdjust="spacing" textLength="55" x="2603.75" y="154.5549">1.1.1.1.2:</text><text fill="#000000" font-family="sans-serif" font-size="13" lengthAdjust="spacing" textLength="109" x="2661.75" y="154.5549">userData with role</text></g><!--link Service to Encryption--><g id="link_Service_Encryption"><path codeLine="29" d="M966.59,136.6579 C1050.08,136.6579 1213.91,136.6579 1309.37,136.6579 " fill="none" id="Service-to-Encryption" style="stroke:#181818;stroke-width:1.0;"/><polygon fill="#181818" points="1315.37,136.6579,1306.37,132.6579,1310.37,136.6579,1306.37,140.6579,1315.37,136.6579" style="stroke:#181818;stroke-width:1.0;"/><text fill="#000000" font-family="sans-serif" font-size="13" font-weight="bold" lengthAdjust="spacing" textLength="33" x="988" y="129.5549">1.1.3:</text><text fill="#000000" font-family="sans-serif" font-size="13" lengthAdjust="spacing" textLength="270" x="1024" y="129.5549">comparePassword(password, user.password)</text></g><!--link Encryption to Service--><g id="link_Encryption_Service"><path codeLine="30" d="M1315.01,147.6779 C1284.16,152.0379 1247.36,156.5179 1214,158.6579 C1149.24,162.8179 1132.72,163.3679 1068,158.6579 C1034.03,156.1879 1001.9972,151.6215 972.6972,146.7015 " fill="none" id="Encryption-to-Service" style="stroke:#181818;stroke-width:1.0;"/><polygon fill="#181818" points="966.78,145.7079,974.9933,151.1431,971.711,146.5359,976.3181,143.2535,966.78,145.7079" style="stroke:#181818;stroke-width:1.0;"/><text fill="#000000" font-family="sans-serif" font-size="13" font-weight="bold" lengthAdjust="spacing" textLength="33" x="1069" y="154.5549">1.1.4:</text><text fill="#000000" font-family="sans-serif" font-size="13" lengthAdjust="spacing" textLength="108" x="1105" y="154.5549">true (autenticado)</text></g><!--link Service to JWT--><g id="link_Service_JWT"><path codeLine="32" d="M966.89,132.2479 C1177.68,113.9279 2022.91,46.0679 2717.5,70.0179 C2959.71,78.3779 3026.2,49.5379 3261.5,107.5979 C3270.37,109.7879 3274.0186,110.7633 3282.6086,114.3733 " fill="none" id="Service-to-JWT" style="stroke:#181818;stroke-width:1.0;"/><polygon fill="#181818" points="3288.14,116.6979,3281.3927,109.5234,3283.5305,114.7608,3278.2932,116.8986,3288.14,116.6979" style="stroke:#181818;stroke-width:1.0;"/><text fill="#000000" font-family="sans-serif" font-size="13" font-weight="bold" lengthAdjust="spacing" textLength="33" x="2516.5" y="73.4949">1.1.5:</text><text fill="#000000" font-family="sans-serif" font-size="13" lengthAdjust="spacing" textLength="164" x="2552.5" y="73.4949">generateAccessToken(user)</text></g><!--link JWT to Service--><g id="link_JWT_Service"><path codeLine="33" d="M3288.14,116.6979 C3279.55,113.0879 3270.37,109.7879 3261.5,107.5979 C3026.2,49.5379 2959.71,78.3779 2717.5,70.0179 C2022.91,46.0679 1183.6575,113.4084 972.8675,131.7284 " fill="none" id="JWT-to-Service" style="stroke:#181818;stroke-width:1.0;"/><polygon fill="#181818" points="966.89,132.2479,976.2025,135.4536,971.8712,131.815,975.5099,127.4837,966.89,132.2479" style="stroke:#181818;stroke-width:1.0;"/><text fill="#000000" font-family="sans-serif" font-size="13" font-weight="bold" lengthAdjust="spacing" textLength="33" x="2561" y="73.4949">1.1.6:</text><text fill="#000000" font-family="sans-serif" font-size="13" lengthAdjust="spacing" textLength="75" x="2597" y="73.4949">accessToken</text></g><!--link Service to JWT--><g id="link_Service_JWT"><path codeLine="35" d="M966.89,132.2479 C1177.68,113.9279 2022.91,46.0679 2717.5,70.0179 C2959.71,78.3779 3026.2,49.5379 3261.5,107.5979 C3270.37,109.7879 3274.0186,110.7633 3282.6086,114.3733 " fill="none" id="Service-to-JWT-1" style="stroke:#181818;stroke-width:1.0;"/><polygon fill="#181818" points="3288.14,116.6979,3281.3927,109.5234,3283.5305,114.7608,3278.2932,116.8986,3288.14,116.6979" style="stroke:#181818;stroke-width:1.0;"/><text fill="#000000" font-family="sans-serif" font-size="13" font-weight="bold" lengthAdjust="spacing" textLength="33" x="2513.5" y="73.4949">1.1.7:</text><text fill="#000000" font-family="sans-serif" font-size="13" lengthAdjust="spacing" textLength="170" x="2549.5" y="73.4949">generateRefreshToken(user)</text></g><!--link JWT to Service--><g id="link_JWT_Service"><path codeLine="36" d="M3288.14,116.6979 C3279.55,113.0879 3270.37,109.7879 3261.5,107.5979 C3026.2,49.5379 2959.71,78.3779 2717.5,70.0179 C2022.91,46.0679 1183.6575,113.4084 972.8675,131.7284 " fill="none" id="JWT-to-Service-1" style="stroke:#181818;stroke-width:1.0;"/><polygon fill="#181818" points="966.89,132.2479,976.2025,135.4536,971.8712,131.815,975.5099,127.4837,966.89,132.2479" style="stroke:#181818;stroke-width:1.0;"/><text fill="#000000" font-family="sans-serif" font-size="13" font-weight="bold" lengthAdjust="spacing" textLength="33" x="2559" y="73.4949">1.1.8:</text><text fill="#000000" font-family="sans-serif" font-size="13" lengthAdjust="spacing" textLength="79" x="2595" y="73.4949">refreshToken</text></g><!--link Service to Cache--><g id="link_Service_Cache"><path codeLine="38" d="M925.86,116.8479 C933.76,100.9579 947.28,79.7479 966.5,70.0179 C1013.3,46.3479 1150.06,69.4779 1202.5,70.0179 C1403.09,72.1079 2811.41,65.3079 3007.5,107.5979 C3016.91,109.6279 3021.0954,110.6895 3030.1554,114.3895 " fill="none" id="Service-to-Cache" style="stroke:#181818;stroke-width:1.0;"/><polygon fill="#181818" points="3035.71,116.6579,3028.8903,109.5521,3031.0811,114.7675,3025.8657,116.9583,3035.71,116.6579" style="stroke:#181818;stroke-width:1.0;"/><text fill="#000000" font-family="sans-serif" font-size="13" font-weight="bold" lengthAdjust="spacing" textLength="33" x="967.5" y="73.4949">1.1.9:</text><text fill="#000000" font-family="sans-serif" font-size="13" lengthAdjust="spacing" textLength="198" x="1003.5" y="73.4949">set(refreshToken, userId, TTL=7d)</text></g><!--link Cache to Service--><g id="link_Cache_Service"><path codeLine="39" d="M3035.71,116.6579 C3026.65,112.9579 3016.91,109.6279 3007.5,107.5979 C2811.41,65.3079 1403.09,72.1079 1202.5,70.0179 C1150.06,69.4779 1013.3,46.3479 966.5,70.0179 C947.28,79.7479 936.4311,95.5853 928.5311,111.4753 " fill="none" id="Cache-to-Service" style="stroke:#181818;stroke-width:1.0;"/><polygon fill="#181818" points="925.86,116.8479,933.4484,110.5697,928.0859,112.3707,926.2849,107.0082,925.86,116.8479" style="stroke:#181818;stroke-width:1.0;"/><text fill="#000000" font-family="sans-serif" font-size="13" font-weight="bold" lengthAdjust="spacing" textLength="40" x="1054" y="73.4949">1.1.10:</text><text fill="#000000" font-family="sans-serif" font-size="13" lengthAdjust="spacing" textLength="18" x="1097" y="73.4949">OK</text></g><!--SRC=[ZPNDKjim4CVlVegTNaWyYVc6DZDf1vBGGaD3ap0SsXuKUqdKEb96ag6KuM6O7fY-GgzviQua9tOAp91BREct_rtjXsouIH7Qd8qLcp9845focWaUi_d3_BU4EfotwXjR3JXYlr11Luwv288rw8s-ev4waFGV6tZLQAKSXS6luW97hu1fy0i5S92PIKiAesIQelB8ydKL6w2wuZ4w9dykW7EDIfS9k_28weXOtSmCbwAC5gkhUdsSISsDL3TBHRjKG6rcs8XfEjxfpU1prr7jmsB_v69OzaElnLuV4wvRB9xuFVTaKzXiDXV9xVRU7t-o2q7WqmRrjwNiG0F2SBCHXd3M6mnXdL6ErbDRYWfE6KzhC6DQNqkLL0CX3OBYuubf-6grZIJLGekKyr2zREI4lLgQ6rI3OC4GNahmmiGRNNAH7DvqR0W-a6fGPdDJcyd2hh3i2QpSEhEx6jmgJ9ajZ6x0bpKA5TU-tNavPqzQxSEoYjSPTBgTrX2oAAo1Ya8uwlTE8RCT0XcSz2YfLag3WeiFdNu7dBlcku2qwi-45srPOQjXYmxNt4oSI2cMvt9IcAxcuN7AIsGvqqL_Bi5j2yPoEcCAp_8gLnRbhZc9gAX-IU0fhpjMpAWCeK8zH7r6SvxyLstgtIM_Q_an2bJCu44SezP3-GD5nRgj1XPzoisUDMC5_gp-Vbc_ZvSAzUGb3bvRErNYLpou2LkoRoohqLJAl4_SCILmEEmszobptkWfPviRLg7tiUJZYUdq5RqjdRe6ZptUhKoYbV7ZRYMSmDR61hbwWOuVz94qHav1NYwkMw1V61wbsK-vl5piK8UXszgCSX01nHLd42jCKCISSUs0hGW6N1kQ4nXbEcRaBPlVAovX9fKV7yTj4uTYmc3-9-zEbZ3x12FNWGxQYS35x2v4qFPxCgPI9zBxseqWhpaOYu5cwPK48S5TcL2Xsi0-99pfgZFOYy0tOSvVpUzJdlZGDdUdz6MorBwLrNIX6n-GyI4W9DOp4ByuKv2dQu3ZJ34nVs2DF4zrMCmQY4nG6XHzxPGWWNmxFzVyBtqgITH6e2amEc8EzAcZ8ULJRhWO0vkbRjG25AH8bGl-0G00]--></g></svg>