<?xml version="1.0" encoding="us-ascii" standalone="no"?><svg xmlns="http://www.w3.org/2000/svg" xmlns:xlink="http://www.w3.org/1999/xlink" contentStyleType="text/css" height="412px" preserveAspectRatio="none" style="width:4327px;height:412px;background:#FFFFFF;" version="1.1" viewBox="0 0 4327 412" width="4327px" zoomAndPan="magnify"><defs/><g><text fill="#000000" font-family="sans-serif" font-size="14" font-weight="bold" lengthAdjust="spacing" textLength="426" x="1943.5" y="24.9659">Diagrama de Comunica&#231;&#227;o - UC-01: Criar Conta e UC-02: Login</text><g id="elem_Client"><rect fill="#F1F1F1" height="58.1358" style="stroke:#181818;stroke-width:0.5;" width="65" x="113" y="117.4079"/><text fill="#000000" font-family="sans-serif" font-size="14" lengthAdjust="spacing" textLength="51" x="120" y="134.3739">:Cliente</text><text fill="#000000" font-family="sans-serif" font-size="14" lengthAdjust="spacing" textLength="30" x="130.5" y="153.4418">Web</text><line style="stroke:#181818;stroke-width:0.5;" x1="114" x2="177" y1="159.5438" y2="159.5438"/></g><g id="elem_Controller"><rect fill="#F1F1F1" height="39.0679" style="stroke:#181818;stroke-width:0.5;" width="117" x="505" y="126.9379"/><text fill="#000000" font-family="sans-serif" font-size="14" lengthAdjust="spacing" textLength="103" x="512" y="143.9039">:AuthController</text><line style="stroke:#181818;stroke-width:0.5;" x1="506" x2="621" y1="150.0058" y2="150.0058"/></g><g id="elem_Service"><rect fill="#F1F1F1" height="39.0679" style="stroke:#181818;stroke-width:0.5;" width="98" x="885.5" y="126.9379"/><text fill="#000000" font-family="sans-serif" font-size="14" lengthAdjust="spacing" textLength="84" x="892.5" y="143.9039">:AuthService</text><line style="stroke:#181818;stroke-width:0.5;" x1="886.5" x2="982.5" y1="150.0058" y2="150.0058"/></g><g id="elem_UserService"><rect fill="#F1F1F1" height="39.0679" style="stroke:#181818;stroke-width:0.5;" width="104" x="2665.5" y="126.9379"/><text fill="#000000" font-family="sans-serif" font-size="14" lengthAdjust="spacing" textLength="90" x="2672.5" y="143.9039">:UsersService</text><line style="stroke:#181818;stroke-width:0.5;" x1="2666.5" x2="2768.5" y1="150.0058" y2="150.0058"/></g><g id="elem_Encryption"><rect fill="#F1F1F1" height="39.0679" style="stroke:#181818;stroke-width:0.5;" width="138" x="1209.5" y="126.9379"/><text fill="#000000" font-family="sans-serif" font-size="14" lengthAdjust="spacing" textLength="124" x="1216.5" y="143.9039">:EncryptionService</text><line style="stroke:#181818;stroke-width:0.5;" x1="1210.5" x2="1346.5" y1="150.0058" y2="150.0058"/></g><g id="elem_UserRepo"><rect fill="#F1F1F1" height="39.0679" style="stroke:#181818;stroke-width:0.5;" width="120" x="2950.5" y="126.9379"/><text fill="#000000" font-family="sans-serif" font-size="14" lengthAdjust="spacing" textLength="106" x="2957.5" y="143.9039">:UserRepository</text><line style="stroke:#181818;stroke-width:0.5;" x1="2951.5" x2="3069.5" y1="150.0058" y2="150.0058"/></g><g id="elem_RoleRepo"><rect fill="#F1F1F1" height="39.0679" style="stroke:#181818;stroke-width:0.5;" width="118" x="3800.5" y="126.9379"/><text fill="#000000" font-family="sans-serif" font-size="14" lengthAdjust="spacing" textLength="104" x="3807.5" y="143.9039">:RoleRepository</text><line style="stroke:#181818;stroke-width:0.5;" x1="3801.5" x2="3917.5" y1="150.0058" y2="150.0058"/></g><g id="elem_DB"><rect fill="#F1F1F1" height="58.1358" style="stroke:#181818;stroke-width:0.5;" width="81" x="3388" y="117.4079"/><text fill="#000000" font-family="sans-serif" font-size="14" lengthAdjust="spacing" textLength="67" x="3395" y="134.3739">:Database</text><text fill="#000000" font-family="sans-serif" font-size="14" lengthAdjust="spacing" textLength="46" x="3405.5" y="153.4418">MySQL</text><line style="stroke:#181818;stroke-width:0.5;" x1="3389" x2="3468" y1="159.5438" y2="159.5438"/></g><g id="elem_JWT"><rect fill="#F1F1F1" height="39.0679" style="stroke:#181818;stroke-width:0.5;" width="91" x="4230" y="126.9379"/><text fill="#000000" font-family="sans-serif" font-size="14" lengthAdjust="spacing" textLength="77" x="4237" y="143.9039">:JWTService</text><line style="stroke:#181818;stroke-width:0.5;" x1="4231" x2="4320" y1="150.0058" y2="150.0058"/></g><g id="elem_Cache"><rect fill="#F1F1F1" height="39.0679" style="stroke:#181818;stroke-width:0.5;" width="96" x="3953.5" y="126.9379"/><text fill="#000000" font-family="sans-serif" font-size="14" lengthAdjust="spacing" textLength="82" x="3960.5" y="143.9039">:RedisCache</text><line style="stroke:#181818;stroke-width:0.5;" x1="3954.5" x2="4048.5" y1="150.0058" y2="150.0058"/></g><g id="elem_GMN13"><path d="M4084.5,132.6179 L4084.5,142.4779 L4049.75,146.4779 L4084.5,150.4779 L4084.5,160.3239 A0,0 0 0 0 4084.5,160.3239 L4194.5,160.3239 A0,0 0 0 0 4194.5,160.3239 L4194.5,142.6179 L4184.5,132.6179 L4084.5,132.6179 A0,0 0 0 0 4084.5,132.6179 " fill="#FEFFDD" style="stroke:#181818;stroke-width:0.5;"/><path d="M4184.5,132.6179 L4184.5,142.6179 L4194.5,142.6179 L4184.5,132.6179 " fill="#FEFFDD" style="stroke:#181818;stroke-width:0.5;"/><text fill="#000000" font-family="sans-serif" font-size="13" lengthAdjust="spacing" textLength="89" x="4090.5" y="151.5149">CreateUserDto</text></g><g id="elem_GMN43"><path d="M6,236.5479 L6,405.9021 A0,0 0 0 0 6,405.9021 L285,405.9021 A0,0 0 0 0 285,405.9021 L285,246.5479 L275,236.5479 L149.5,236.5479 L145.5,175.9979 L141.5,236.5479 L6,236.5479 A0,0 0 0 0 6,236.5479 " fill="#FEFFDD" style="stroke:#181818;stroke-width:0.5;"/><path d="M275,236.5479 L275,246.5479 L285,246.5479 L275,236.5479 " fill="#FEFFDD" style="stroke:#181818;stroke-width:0.5;"/><text fill="#000000" font-family="sans-serif" font-size="13" font-weight="bold" lengthAdjust="spacing" textLength="154" x="12" y="255.4449">Fluxo UC-01: Criar Conta</text><text fill="#000000" font-family="sans-serif" font-size="13" lengthAdjust="spacing" textLength="197" x="12" y="273.1509">1. Cliente envia dados de registro</text><text fill="#000000" font-family="sans-serif" font-size="13" lengthAdjust="spacing" textLength="169" x="12" y="290.857">2. Sistema valida email &#250;nico</text><text fill="#000000" font-family="sans-serif" font-size="13" lengthAdjust="spacing" textLength="194" x="12" y="308.563">3. Senha &#233; criptografada (bcrypt)</text><text fill="#000000" font-family="sans-serif" font-size="13" lengthAdjust="spacing" textLength="188" x="12" y="326.269">4. Role padr&#227;o 'user' &#233; atribu&#237;do</text><text fill="#000000" font-family="sans-serif" font-size="13" lengthAdjust="spacing" textLength="169" x="12" y="343.975">5. Usu&#225;rio &#233; criado no banco</text><text fill="#000000" font-family="sans-serif" font-size="13" lengthAdjust="spacing" textLength="158" x="12" y="361.681">6. Tokens JWT s&#227;o gerados</text><text fill="#000000" font-family="sans-serif" font-size="13" lengthAdjust="spacing" textLength="228" x="12" y="379.387">7. Refresh token armazenado no Redis</text><text fill="#000000" font-family="sans-serif" font-size="13" lengthAdjust="spacing" textLength="258" x="12" y="397.0931">8. Resposta com tokens e dados do usu&#225;rio</text></g><!--link Client to Controller--><g id="link_Client_Controller"><path codeLine="18" d="M178.36,161.6179 C185.96,164.4579 194.14,166.9979 202,168.4779 C232.47,174.1979 450.26,172.5079 481,168.4779 C488.79,167.4579 491.0397,167.2499 498.9897,165.4399 " fill="none" id="Client-to-Controller" style="stroke:#181818;stroke-width:1.0;"/><polygon fill="#181818" points="504.84,164.1079,495.1766,162.2057,499.9648,165.2179,496.9525,170.006,504.84,164.1079" style="stroke:#181818;stroke-width:1.0;"/><text fill="#000000" font-family="sans-serif" font-size="13" font-weight="bold" lengthAdjust="spacing" textLength="11" x="203" y="164.3749">1:</text><text fill="#000000" font-family="sans-serif" font-size="13" lengthAdjust="spacing" textLength="263" x="217" y="164.3749">POST /auth/register(email, password, name)</text></g><!--link Controller to Client--><g id="link_Controller_Client"><path codeLine="55" d="M504.58,146.4779 C415.31,146.4779 254.74,146.4779 184.3,146.4779 " fill="none" id="Controller-to-Client" style="stroke:#181818;stroke-width:1.0;"/><polygon fill="#181818" points="178.3,146.4779,187.3,150.4779,183.3,146.4779,187.3,142.4779,178.3,146.4779" style="stroke:#181818;stroke-width:1.0;"/><text fill="#000000" font-family="sans-serif" font-size="13" font-weight="bold" lengthAdjust="spacing" textLength="11" x="196.5" y="139.3749">2:</text><text fill="#000000" font-family="sans-serif" font-size="13" lengthAdjust="spacing" textLength="276" x="210.5" y="139.3749">201 Created {accessToken, refreshToken, user}</text></g><!--link Controller to Service--><g id="link_Controller_Service"><path codeLine="21" d="M622.45,160.9079 C637.76,164.0479 654.29,166.8879 669.75,168.4779 C744.03,176.0879 763.55,176.8079 837.75,168.4779 C853.33,166.7279 864.2152,164.7936 879.3052,161.2936 " fill="none" id="Controller-to-Service" style="stroke:#181818;stroke-width:1.0;"/><polygon fill="#181818" points="885.15,159.9379,875.479,158.0748,880.2793,161.0676,877.2865,165.868,885.15,159.9379" style="stroke:#181818;stroke-width:1.0;"/><text fill="#000000" font-family="sans-serif" font-size="13" font-weight="bold" lengthAdjust="spacing" textLength="22" x="670.75" y="164.3749">1.1:</text><text fill="#000000" font-family="sans-serif" font-size="13" lengthAdjust="spacing" textLength="141" x="695.75" y="164.3749">register(createUserDto)</text></g><!--link Service to Controller--><g id="link_Service_Controller"><path codeLine="54" d="M885.18,146.4779 C817.21,146.4779 700.92,146.4779 628.29,146.4779 " fill="none" id="Service-to-Controller" style="stroke:#181818;stroke-width:1.0;"/><polygon fill="#181818" points="622.29,146.4779,631.29,150.4779,627.29,146.4779,631.29,142.4779,622.29,146.4779" style="stroke:#181818;stroke-width:1.0;"/><text fill="#000000" font-family="sans-serif" font-size="13" font-weight="bold" lengthAdjust="spacing" textLength="22" x="640.25" y="139.3749">1.2:</text><text fill="#000000" font-family="sans-serif" font-size="13" lengthAdjust="spacing" textLength="202" x="665.25" y="139.3749">{accessToken, refreshToken, user}</text></g><!--link Service to UserService--><g id="link_Service_UserService"><path codeLine="23" d="M983.66,139.6679 C1035.3,132.8079 1118.94,122.5279 1191.5,117.4079 C1779.61,75.8879 1927.99,88.1879 2517.5,79.8379 C2550.39,79.3679 2635.94,65.4079 2665.5,79.8379 C2685.28,89.4879 2696.8834,105.4262 2705.4634,121.3462 " fill="none" id="Service-to-UserService" style="stroke:#181818;stroke-width:1.0;"/><polygon fill="#181818" points="2708.31,126.6279,2707.5613,116.8076,2705.9379,122.2264,2700.519,120.603,2708.31,126.6279" style="stroke:#181818;stroke-width:1.0;"/><text fill="#000000" font-family="sans-serif" font-size="13" font-weight="bold" lengthAdjust="spacing" textLength="33" x="2518.5" y="83.3049">1.1.1:</text><text fill="#000000" font-family="sans-serif" font-size="13" lengthAdjust="spacing" textLength="110" x="2554.5" y="83.3049">findByEmail(email)</text></g><!--link UserService to Service--><g id="link_UserService_Service"><path codeLine="28" d="M2708.31,126.6279 C2699.73,110.7079 2685.28,89.4879 2665.5,79.8379 C2635.94,65.4079 2550.39,79.3679 2517.5,79.8379 C1927.99,88.1879 1779.61,75.8879 1191.5,117.4079 C1118.94,122.5279 1041.2477,132.0178 989.6077,138.8778 " fill="none" id="UserService-to-Service" style="stroke:#181818;stroke-width:1.0;"/><polygon fill="#181818" points="983.66,139.6679,993.1084,142.4479,988.6165,139.0095,992.0549,134.5176,983.66,139.6679" style="stroke:#181818;stroke-width:1.0;"/><text fill="#000000" font-family="sans-serif" font-size="13" font-weight="bold" lengthAdjust="spacing" textLength="33" x="2562.5" y="83.3049">1.1.2:</text><text fill="#000000" font-family="sans-serif" font-size="13" lengthAdjust="spacing" textLength="22" x="2598.5" y="83.3049">null</text></g><!--link Service to UserService--><g id="link_Service_UserService"><path codeLine="38" d="M983.66,139.6679 C1035.3,132.8079 1118.94,122.5279 1191.5,117.4079 C1779.61,75.8879 1927.99,88.1879 2517.5,79.8379 C2550.39,79.3679 2635.94,65.4079 2665.5,79.8379 C2685.28,89.4879 2696.8834,105.4262 2705.4634,121.3462 " fill="none" id="Service-to-UserService-1" style="stroke:#181818;stroke-width:1.0;"/><polygon fill="#181818" points="2708.31,126.6279,2707.5613,116.8076,2705.9379,122.2264,2700.519,120.603,2708.31,126.6279" style="stroke:#181818;stroke-width:1.0;"/><text fill="#000000" font-family="sans-serif" font-size="13" font-weight="bold" lengthAdjust="spacing" textLength="33" x="2441.5" y="83.3049">1.1.7:</text><text fill="#000000" font-family="sans-serif" font-size="13" lengthAdjust="spacing" textLength="264" x="2477.5" y="83.3049">create({email, hashedPassword, name, role})</text></g><!--link UserService to Service--><g id="link_UserService_Service"><path codeLine="43" d="M2708.31,126.6279 C2699.73,110.7079 2685.28,89.4879 2665.5,79.8379 C2635.94,65.4079 2550.39,79.3679 2517.5,79.8379 C1927.99,88.1879 1779.61,75.8879 1191.5,117.4079 C1118.94,122.5279 1041.2477,132.0178 989.6077,138.8778 " fill="none" id="UserService-to-Service-1" style="stroke:#181818;stroke-width:1.0;"/><polygon fill="#181818" points="983.66,139.6679,993.1084,142.4479,988.6165,139.0095,992.0549,134.5176,983.66,139.6679" style="stroke:#181818;stroke-width:1.0;"/><text fill="#000000" font-family="sans-serif" font-size="13" font-weight="bold" lengthAdjust="spacing" textLength="33" x="2537" y="83.3049">1.1.8:</text><text fill="#000000" font-family="sans-serif" font-size="13" lengthAdjust="spacing" textLength="73" x="2573" y="83.3049">createdUser</text></g><!--link UserService to UserRepo--><g id="link_UserService_UserRepo"><path codeLine="24" d="M2769.88,146.4779 C2820.5,146.4779 2891.11,146.4779 2944.23,146.4779 " fill="none" id="UserService-to-UserRepo" style="stroke:#181818;stroke-width:1.0;"/><polygon fill="#181818" points="2950.23,146.4779,2941.23,142.4779,2945.23,146.4779,2941.23,150.4779,2950.23,146.4779" style="stroke:#181818;stroke-width:1.0;"/><text fill="#000000" font-family="sans-serif" font-size="13" font-weight="bold" lengthAdjust="spacing" textLength="44" x="2787.5" y="139.3749">1.1.1.1:</text><text fill="#000000" font-family="sans-serif" font-size="13" lengthAdjust="spacing" textLength="98" x="2834.5" y="139.3749">findOne({email})</text></g><!--link UserRepo to UserService--><g id="link_UserRepo_UserService"><path codeLine="27" d="M2984.17,166.4079 C2968.93,176.6879 2948.88,188.1579 2929,193.4779 C2914.19,197.4379 2805.72,197.7779 2791,193.4779 C2772.68,188.1179 2759.3862,180.253 2745.7362,169.993 " fill="none" id="UserRepo-to-UserService" style="stroke:#181818;stroke-width:1.0;"/><polygon fill="#181818" points="2740.94,166.3879,2745.7309,174.993,2744.9368,169.3921,2750.5377,168.598,2740.94,166.3879" style="stroke:#181818;stroke-width:1.0;"/><text fill="#000000" font-family="sans-serif" font-size="13" font-weight="bold" lengthAdjust="spacing" textLength="44" x="2825.5" y="189.3749">1.1.1.2:</text><text fill="#000000" font-family="sans-serif" font-size="13" lengthAdjust="spacing" textLength="22" x="2872.5" y="189.3749">null</text></g><!--link UserService to UserRepo--><g id="link_UserService_UserRepo"><path codeLine="39" d="M2769.68,164.1079 C2776.77,165.9079 2784.02,167.4479 2791,168.4779 C2821.34,172.9179 2898.6,172.5079 2929,168.4779 C2935.97,167.5479 2937.3421,167.496 2944.4721,165.916 " fill="none" id="UserService-to-UserRepo-1" style="stroke:#181818;stroke-width:1.0;"/><polygon fill="#181818" points="2950.33,164.6179,2940.6778,162.6598,2945.4484,165.6997,2942.4086,170.4703,2950.33,164.6179" style="stroke:#181818;stroke-width:1.0;"/><text fill="#000000" font-family="sans-serif" font-size="13" font-weight="bold" lengthAdjust="spacing" textLength="44" x="2792" y="164.3749">1.1.7.1:</text><text fill="#000000" font-family="sans-serif" font-size="13" lengthAdjust="spacing" textLength="89" x="2839" y="164.3749">save(userData)</text></g><!--link UserRepo to UserService--><g id="link_UserRepo_UserService"><path codeLine="42" d="M2950.31,127.5679 C2944.67,126.3179 2939.01,125.2479 2933.5,124.4779 C2901.15,119.9479 2818.78,119.4579 2786.5,124.4779 C2781.03,125.3279 2781.2265,125.0655 2775.6565,126.4755 " fill="none" id="UserRepo-to-UserService-1" style="stroke:#181818;stroke-width:1.0;"/><polygon fill="#181818" points="2769.84,127.9479,2779.5464,129.617,2774.6871,126.7209,2777.5832,121.8616,2769.84,127.9479" style="stroke:#181818;stroke-width:1.0;"/><text fill="#000000" font-family="sans-serif" font-size="13" font-weight="bold" lengthAdjust="spacing" textLength="44" x="2823.5" y="114.3749">1.1.7.2:</text><text fill="#000000" font-family="sans-serif" font-size="13" lengthAdjust="spacing" textLength="26" x="2870.5" y="114.3749">user</text></g><!--link UserRepo to DB--><g id="link_UserRepo_DB"><path codeLine="25" d="M3070.83,146.4779 C3157.2,146.4779 3307.79,146.4779 3381.74,146.4779 " fill="none" id="UserRepo-to-DB" style="stroke:#181818;stroke-width:1.0;"/><polygon fill="#181818" points="3387.74,146.4779,3378.74,142.4779,3382.74,146.4779,3378.74,150.4779,3387.74,146.4779" style="stroke:#181818;stroke-width:1.0;"/><text fill="#000000" font-family="sans-serif" font-size="13" font-weight="bold" lengthAdjust="spacing" textLength="55" x="3088.75" y="139.3749">1.1.1.1.1:</text><text fill="#000000" font-family="sans-serif" font-size="13" lengthAdjust="spacing" textLength="223" x="3146.75" y="139.3749">SELECT * FROM users WHERE email=?</text></g><!--link DB to UserRepo--><g id="link_DB_UserRepo"><path codeLine="26" d="M3387.7,128.8579 C3382.09,127.0479 3376.34,125.5079 3370.75,124.4779 C3339.82,118.7879 3118.89,120.1279 3087.75,124.4779 C3082.23,125.2479 3082.3988,125.024 3076.7388,126.274 " fill="none" id="DB-to-UserRepo" style="stroke:#181818;stroke-width:1.0;"/><polygon fill="#181818" points="3070.88,127.5679,3080.5308,129.5329,3075.7624,126.4897,3078.8056,121.7212,3070.88,127.5679" style="stroke:#181818;stroke-width:1.0;"/><text fill="#000000" font-family="sans-serif" font-size="13" font-weight="bold" lengthAdjust="spacing" textLength="55" x="3135.75" y="114.3749">1.1.1.1.2:</text><text fill="#000000" font-family="sans-serif" font-size="13" lengthAdjust="spacing" textLength="129" x="3193.75" y="114.3749">null (email dispon&#237;vel)</text></g><!--link UserRepo to DB--><g id="link_UserRepo_DB"><path codeLine="40" d="M3070.77,159.4779 C3090.58,163.1579 3112.76,166.6579 3133.25,168.4779 C3175.75,172.2579 3282.82,172.9479 3325.25,168.4779 C3346.03,166.2879 3362.94,163.0642 3381.78,158.6242 " fill="none" id="UserRepo-to-DB-1" style="stroke:#181818;stroke-width:1.0;"/><polygon fill="#181818" points="3387.62,157.2479,3377.9424,155.419,3382.7533,158.3948,3379.7775,163.2057,3387.62,157.2479" style="stroke:#181818;stroke-width:1.0;"/><text fill="#000000" font-family="sans-serif" font-size="13" font-weight="bold" lengthAdjust="spacing" textLength="55" x="3134.25" y="164.3749">1.1.7.1.1:</text><text fill="#000000" font-family="sans-serif" font-size="13" lengthAdjust="spacing" textLength="132" x="3192.25" y="164.3749">INSERT INTO users (...)</text></g><!--link DB to UserRepo--><g id="link_DB_UserRepo"><path codeLine="41" d="M3387.71,169.9179 C3369.26,179.2179 3346.81,188.7979 3325.25,193.4779 C3304.4,197.9979 3154.23,197.3579 3133.25,193.4779 C3104.98,188.2479 3080.29,179.1986 3056.93,168.8986 " fill="none" id="DB-to-UserRepo-1" style="stroke:#181818;stroke-width:1.0;"/><polygon fill="#181818" points="3051.44,166.4779,3058.0612,173.769,3056.015,168.4952,3061.2888,166.4489,3051.44,166.4779" style="stroke:#181818;stroke-width:1.0;"/><text fill="#000000" font-family="sans-serif" font-size="13" font-weight="bold" lengthAdjust="spacing" textLength="55" x="3173.75" y="189.3749">1.1.7.1.2:</text><text fill="#000000" font-family="sans-serif" font-size="13" lengthAdjust="spacing" textLength="53" x="3231.75" y="189.3749">newUser</text></g><!--link Service to Encryption--><g id="link_Service_Encryption"><path codeLine="30" d="M983.79,146.4779 C1042.86,146.4779 1136.24,146.4779 1203.07,146.4779 " fill="none" id="Service-to-Encryption" style="stroke:#181818;stroke-width:1.0;"/><polygon fill="#181818" points="1209.07,146.4779,1200.07,142.4779,1204.07,146.4779,1200.07,150.4779,1209.07,146.4779" style="stroke:#181818;stroke-width:1.0;"/><text fill="#000000" font-family="sans-serif" font-size="13" font-weight="bold" lengthAdjust="spacing" textLength="33" x="1002" y="139.3749">1.1.3:</text><text fill="#000000" font-family="sans-serif" font-size="13" lengthAdjust="spacing" textLength="153" x="1038" y="139.3749">hashPassword(password)</text></g><!--link Encryption to Service--><g id="link_Encryption_Service"><path codeLine="31" d="M1209.21,162.2579 C1195.14,164.8479 1180.4,167.1279 1166.5,168.4779 C1104.57,174.4979 1088.29,175.7579 1026.5,168.4779 C1012.47,166.8179 1003.3246,165.197 989.6046,161.907 " fill="none" id="Encryption-to-Service" style="stroke:#181818;stroke-width:1.0;"/><polygon fill="#181818" points="983.77,160.5079,991.5891,166.4963,988.6322,161.6738,993.4546,158.7169,983.77,160.5079" style="stroke:#181818;stroke-width:1.0;"/><text fill="#000000" font-family="sans-serif" font-size="13" font-weight="bold" lengthAdjust="spacing" textLength="33" x="1027.5" y="164.3749">1.1.4:</text><text fill="#000000" font-family="sans-serif" font-size="13" lengthAdjust="spacing" textLength="102" x="1063.5" y="164.3749">hashedPassword</text></g><!--link Service to RoleRepo--><g id="link_Service_RoleRepo"><path codeLine="33" d="M983.53,130.8479 C1038.04,114.3579 1129.02,89.4479 1209.5,79.8379 C1287.17,70.5579 1307.28,79.1379 1385.5,79.8379 C2319.39,88.1879 2553.64,72.7579 3486.5,117.4079 C3597.44,122.7179 3720.6258,133.3523 3794.1658,140.1923 " fill="none" id="Service-to-RoleRepo" style="stroke:#181818;stroke-width:1.0;"/><polygon fill="#181818" points="3800.14,140.7479,3791.5491,135.9316,3795.1615,140.2849,3790.8082,143.8972,3800.14,140.7479" style="stroke:#181818;stroke-width:1.0;"/><text fill="#000000" font-family="sans-serif" font-size="13" font-weight="bold" lengthAdjust="spacing" textLength="33" x="1210.5" y="83.3049">1.1.5:</text><text fill="#000000" font-family="sans-serif" font-size="13" lengthAdjust="spacing" textLength="138" x="1246.5" y="83.3049">findOne({name: 'user'})</text></g><!--link RoleRepo to Service--><g id="link_RoleRepo_Service"><path codeLine="36" d="M3800.14,140.7479 C3726.6,133.9079 3597.44,122.7179 3486.5,117.4079 C2553.64,72.7579 2319.39,88.1879 1385.5,79.8379 C1307.28,79.1379 1287.17,70.5579 1209.5,79.8379 C1129.02,89.4479 1043.783,112.6206 989.273,129.1106 " fill="none" id="RoleRepo-to-Service" style="stroke:#181818;stroke-width:1.0;"/><polygon fill="#181818" points="983.53,130.8479,993.3027,132.0706,988.3158,129.4001,990.9862,124.4133,983.53,130.8479" style="stroke:#181818;stroke-width:1.0;"/><text fill="#000000" font-family="sans-serif" font-size="13" font-weight="bold" lengthAdjust="spacing" textLength="33" x="1253.5" y="83.3049">1.1.6:</text><text fill="#000000" font-family="sans-serif" font-size="13" lengthAdjust="spacing" textLength="52" x="1289.5" y="83.3049">userRole</text></g><!--link RoleRepo to DB--><g id="link_RoleRepo_DB"><path codeLine="34" d="M3800.1,146.4779 C3711.26,146.4779 3552.03,146.4779 3475.44,146.4779 " fill="none" id="RoleRepo-to-DB" style="stroke:#181818;stroke-width:1.0;"/><polygon fill="#181818" points="3469.44,146.4779,3478.44,150.4779,3474.44,146.4779,3478.44,142.4779,3469.44,146.4779" style="stroke:#181818;stroke-width:1.0;"/><text fill="#000000" font-family="sans-serif" font-size="13" font-weight="bold" lengthAdjust="spacing" textLength="44" x="3487.25" y="139.3749">1.1.5.1:</text><text fill="#000000" font-family="sans-serif" font-size="13" lengthAdjust="spacing" textLength="248" x="3534.25" y="139.3749">SELECT * FROM roles WHERE name='user'</text></g><!--link DB to RoleRepo--><g id="link_DB_RoleRepo"><path codeLine="35" d="M3469.46,153.8379 C3500.88,159.0979 3545.4,165.7179 3584.75,168.4779 C3629.09,171.5779 3640.39,171.2579 3684.75,168.4779 C3723.36,166.0579 3760.541,161.5114 3794.291,156.6614 " fill="none" id="DB-to-RoleRepo" style="stroke:#181818;stroke-width:1.0;"/><polygon fill="#181818" points="3800.23,155.8079,3790.7525,153.1288,3795.2808,156.5191,3791.8905,161.0474,3800.23,155.8079" style="stroke:#181818;stroke-width:1.0;"/><text fill="#000000" font-family="sans-serif" font-size="13" font-weight="bold" lengthAdjust="spacing" textLength="44" x="3585.75" y="164.3749">1.1.5.2:</text><text fill="#000000" font-family="sans-serif" font-size="13" lengthAdjust="spacing" textLength="51" x="3632.75" y="164.3749">roleData</text></g><!--link Service to JWT--><g id="link_Service_JWT"><path codeLine="45" d="M983.64,139.5079 C1035.28,132.5179 1118.91,122.1379 1191.5,117.4079 C1714.68,83.3379 3026.42,64.9779 3550.5,79.8379 C3845.08,88.1879 3926.57,46.0679 4212.5,117.4079 C4221.15,119.5679 4224.5676,120.4926 4232.8676,124.1426 " fill="none" id="Service-to-JWT" style="stroke:#181818;stroke-width:1.0;"/><polygon fill="#181818" points="4238.36,126.5579,4231.7316,119.2733,4233.783,124.5451,4228.5112,126.5965,4238.36,126.5579" style="stroke:#181818;stroke-width:1.0;"/><text fill="#000000" font-family="sans-serif" font-size="13" font-weight="bold" lengthAdjust="spacing" textLength="33" x="3349.5" y="83.3049">1.1.9:</text><text fill="#000000" font-family="sans-serif" font-size="13" lengthAdjust="spacing" textLength="164" x="3385.5" y="83.3049">generateAccessToken(user)</text></g><!--link JWT to Service--><g id="link_JWT_Service"><path codeLine="46" d="M4238.36,126.5579 C4230.06,122.9079 4221.15,119.5679 4212.5,117.4079 C3926.57,46.0679 3845.08,88.1879 3550.5,79.8379 C3026.42,64.9779 1714.68,83.3379 1191.5,117.4079 C1118.91,122.1379 1041.2258,131.7131 989.5858,138.7031 " fill="none" id="JWT-to-Service" style="stroke:#181818;stroke-width:1.0;"/><polygon fill="#181818" points="983.64,139.5079,993.0952,142.2645,988.5948,138.8372,992.0221,134.3368,983.64,139.5079" style="stroke:#181818;stroke-width:1.0;"/><text fill="#000000" font-family="sans-serif" font-size="13" font-weight="bold" lengthAdjust="spacing" textLength="40" x="3390.5" y="83.3049">1.1.10:</text><text fill="#000000" font-family="sans-serif" font-size="13" lengthAdjust="spacing" textLength="75" x="3433.5" y="83.3049">accessToken</text></g><!--link Service to JWT--><g id="link_Service_JWT"><path codeLine="48" d="M983.64,139.5079 C1035.28,132.5179 1118.91,122.1379 1191.5,117.4079 C1714.68,83.3379 3026.42,64.9779 3550.5,79.8379 C3845.08,88.1879 3926.57,46.0679 4212.5,117.4079 C4221.15,119.5679 4224.5676,120.4926 4232.8676,124.1426 " fill="none" id="Service-to-JWT-1" style="stroke:#181818;stroke-width:1.0;"/><polygon fill="#181818" points="4238.36,126.5579,4231.7316,119.2733,4233.783,124.5451,4228.5112,126.5965,4238.36,126.5579" style="stroke:#181818;stroke-width:1.0;"/><text fill="#000000" font-family="sans-serif" font-size="13" font-weight="bold" lengthAdjust="spacing" textLength="40" x="3343" y="83.3049">1.1.11:</text><text fill="#000000" font-family="sans-serif" font-size="13" lengthAdjust="spacing" textLength="170" x="3386" y="83.3049">generateRefreshToken(user)</text></g><!--link JWT to Service--><g id="link_JWT_Service"><path codeLine="49" d="M4238.36,126.5579 C4230.06,122.9079 4221.15,119.5679 4212.5,117.4079 C3926.57,46.0679 3845.08,88.1879 3550.5,79.8379 C3026.42,64.9779 1714.68,83.3379 1191.5,117.4079 C1118.91,122.1379 1041.2258,131.7131 989.5858,138.7031 " fill="none" id="JWT-to-Service-1" style="stroke:#181818;stroke-width:1.0;"/><polygon fill="#181818" points="983.64,139.5079,993.0952,142.2645,988.5948,138.8372,992.0221,134.3368,983.64,139.5079" style="stroke:#181818;stroke-width:1.0;"/><text fill="#000000" font-family="sans-serif" font-size="13" font-weight="bold" lengthAdjust="spacing" textLength="40" x="3388.5" y="83.3049">1.1.12:</text><text fill="#000000" font-family="sans-serif" font-size="13" lengthAdjust="spacing" textLength="79" x="3431.5" y="83.3049">refreshToken</text></g><!--link Service to Cache--><g id="link_Service_Cache"><path codeLine="51" d="M942.72,126.6679 C950.51,110.7779 963.87,89.5679 983,79.8379 C1026.77,57.5579 1154.89,79.4979 1204,79.8379 C1507.63,81.9279 3639.99,51.9979 3936.5,117.4079 C3945.67,119.4279 3949.6164,120.4514 3958.3764,124.2114 " fill="none" id="Service-to-Cache" style="stroke:#181818;stroke-width:1.0;"/><polygon fill="#181818" points="3963.89,126.5779,3957.1974,119.3524,3959.2954,124.6058,3954.0419,126.7038,3963.89,126.5779" style="stroke:#181818;stroke-width:1.0;"/><text fill="#000000" font-family="sans-serif" font-size="13" font-weight="bold" lengthAdjust="spacing" textLength="40" x="984" y="83.3049">1.1.13:</text><text fill="#000000" font-family="sans-serif" font-size="13" lengthAdjust="spacing" textLength="176" x="1027" y="83.3049">set(refreshToken, userId, TTL)</text></g><!--link Cache to Service--><g id="link_Cache_Service"><path codeLine="52" d="M3963.89,126.5779 C3955.13,122.8179 3945.67,119.4279 3936.5,117.4079 C3639.99,51.9979 1507.63,81.9279 1204,79.8379 C1154.89,79.4979 1026.77,57.5579 983,79.8379 C963.87,89.5679 953.1512,105.3905 945.3612,121.2805 " fill="none" id="Cache-to-Service" style="stroke:#181818;stroke-width:1.0;"/><polygon fill="#181818" points="942.72,126.6679,950.2733,120.3476,944.921,122.1784,943.0901,116.826,942.72,126.6679" style="stroke:#181818;stroke-width:1.0;"/><text fill="#000000" font-family="sans-serif" font-size="13" font-weight="bold" lengthAdjust="spacing" textLength="40" x="1063" y="83.3049">1.1.14:</text><text fill="#000000" font-family="sans-serif" font-size="13" lengthAdjust="spacing" textLength="18" x="1106" y="83.3049">OK</text></g><!--SRC=[ZLRTSXet5BxVfpYJ6yCEtXWd3Yapj6C3cRXrGWgRyKrlnEung5qaHXAaRiOFq-b5fnTvWTxoOjMHzaV4K8SRGFlzI9-EpifmKo2CE5iejcAG8mpbQYDundP_x_wIS0eVXwTdtJuC5MVAFXI60Rh1ypxSo0KNKNG2a_clQAIEfFtE33ph3mkEmk0luXRdpu1fy0CDu79ZbgIcP56Wyf3wxpviXchBCtIOydS3-AXHwH110uzGOv6f-xNXKeJGPdHVRufhgRcHwhvMfA46D9K5VWMgXXhGY1asPzfcyEv-zlEDGuskckS_tgRXPEpVm01pheSiM_fdxXVbF1WCwWsPNbzEOJXvdrxIS1JvXE7q-o18w4CST_jn31ycinIUCnldSuKBhWsg5guOBpgmPbf_aYhlW60hR4T26WJ55qj3suxC82KmCj9wDChMfvo-DqcSJQsTXSHs55LOImjsgA9wyXqN-TNzc6RbvzQEGcn9fPGRNiES26nzThG7ptD0InfTXN1Fc8rlniCKOdWpdRo33HKHtBuTJyVW50O_H9PrUiGnEIS9iIaAyFC4krjhANPVjbY4tiSMsmZiB_1nfW4oZB2ft1huWe1BffSVokriLVlQZWBu8O-N5HNpYhpdLjLsJRZOovogfWyd5EA9ZRv6xqT_SIXuMqjO1Kyo0wzIXV_OsET1D3fUWTU1PRqYAEaHwiaAx17QLsrPHfslCl7de-FS7vukpPvVi6PRRD4iQC972xDN5URr-zbucjglT5AMPIj9alRHSkpLDOAVwE7JrTVp-4q5_h_gUzs4aZlrC4NRiMhWTmHSe41bePTPXbgdyZSKRkNjYA27zBjdn6CD_gX1jniwJF5EeLv-auMlc82mv-5QQmDsfqYZQOM4ZWlhsXP0cjwq8qyvwELEqkIdmE50E_RvVmvMtO77TWzxpPPaV7yd2ITmVjOjstF-3MA-gy-bCN85ygvw7uFznF6ROlExFF2cZsC7w2Ob7075bjjh0ikbfik2R_TAEjXv0ZDg_lOUiMK5pvdlfR3xrzudFEI5XQ1OCjZzOykAhusqzuuxPg6jkMjHRGTxcRYZRzzCkQ9RYEyAH696yVbczoNtUXU9BV7Dxa_5PIbfPmP2mfo9ql9L0Yu8zuO5JN8BMqDs0UvnprhvkC0G39XQiJzGb3hkHUo0hmbekxos5w3CPcYyA5PXI1kqdqc48WUAE_eF]--></g></svg>