<?xml version="1.0" encoding="us-ascii" standalone="no"?><svg xmlns="http://www.w3.org/2000/svg" xmlns:xlink="http://www.w3.org/1999/xlink" contentStyleType="text/css" height="456px" preserveAspectRatio="none" style="width:3048px;height:456px;background:#FFFFFF;" version="1.1" viewBox="0 0 3048 456" width="3048px" zoomAndPan="magnify"><defs/><g><text fill="#000000" font-family="sans-serif" font-size="14" font-weight="bold" lengthAdjust="spacing" textLength="420" x="1307" y="24.9659">Diagrama de Comunica&#231;&#227;o - UC-03: Atualizar Token (Refresh)</text><g id="elem_Client"><rect fill="#F1F1F1" height="58.1358" style="stroke:#181818;stroke-width:0.5;" width="65" x="102" y="107.7179"/><text fill="#000000" font-family="sans-serif" font-size="14" lengthAdjust="spacing" textLength="51" x="109" y="124.6839">:Cliente</text><text fill="#000000" font-family="sans-serif" font-size="14" lengthAdjust="spacing" textLength="30" x="119.5" y="143.7518">Web</text><line style="stroke:#181818;stroke-width:0.5;" x1="103" x2="166" y1="149.8538" y2="149.8538"/></g><g id="elem_Controller"><rect fill="#F1F1F1" height="39.0679" style="stroke:#181818;stroke-width:0.5;" width="117" x="424" y="117.2579"/><text fill="#000000" font-family="sans-serif" font-size="14" lengthAdjust="spacing" textLength="103" x="431" y="134.2239">:AuthController</text><line style="stroke:#181818;stroke-width:0.5;" x1="425" x2="540" y1="140.3258" y2="140.3258"/></g><g id="elem_Service"><rect fill="#F1F1F1" height="39.0679" style="stroke:#181818;stroke-width:0.5;" width="98" x="811.5" y="117.2579"/><text fill="#000000" font-family="sans-serif" font-size="14" lengthAdjust="spacing" textLength="84" x="818.5" y="134.2239">:AuthService</text><line style="stroke:#181818;stroke-width:0.5;" x1="812.5" x2="908.5" y1="140.3258" y2="140.3258"/></g><g id="elem_JWT"><rect fill="#F1F1F1" height="39.0679" style="stroke:#181818;stroke-width:0.5;" width="91" x="1700" y="117.2579"/><text fill="#000000" font-family="sans-serif" font-size="14" lengthAdjust="spacing" textLength="77" x="1707" y="134.2239">:JWTService</text><line style="stroke:#181818;stroke-width:0.5;" x1="1701" x2="1790" y1="140.3258" y2="140.3258"/></g><g id="elem_Cache"><rect fill="#F1F1F1" height="39.0679" style="stroke:#181818;stroke-width:0.5;" width="96" x="1162.5" y="117.2579"/><text fill="#000000" font-family="sans-serif" font-size="14" lengthAdjust="spacing" textLength="82" x="1169.5" y="134.2239">:RedisCache</text><line style="stroke:#181818;stroke-width:0.5;" x1="1163.5" x2="1257.5" y1="140.3258" y2="140.3258"/></g><g id="elem_UserService"><rect fill="#F1F1F1" height="39.0679" style="stroke:#181818;stroke-width:0.5;" width="104" x="1838.5" y="117.2579"/><text fill="#000000" font-family="sans-serif" font-size="14" lengthAdjust="spacing" textLength="90" x="1845.5" y="134.2239">:UsersService</text><line style="stroke:#181818;stroke-width:0.5;" x1="1839.5" x2="1941.5" y1="140.3258" y2="140.3258"/></g><g id="elem_UserRepo"><rect fill="#F1F1F1" height="39.0679" style="stroke:#181818;stroke-width:0.5;" width="120" x="2261.5" y="117.2579"/><text fill="#000000" font-family="sans-serif" font-size="14" lengthAdjust="spacing" textLength="106" x="2268.5" y="134.2239">:UserRepository</text><line style="stroke:#181818;stroke-width:0.5;" x1="2262.5" x2="2380.5" y1="140.3258" y2="140.3258"/></g><g id="elem_DB"><rect fill="#F1F1F1" height="58.1358" style="stroke:#181818;stroke-width:0.5;" width="81" x="2796" y="107.7179"/><text fill="#000000" font-family="sans-serif" font-size="14" lengthAdjust="spacing" textLength="67" x="2803" y="124.6839">:Database</text><text fill="#000000" font-family="sans-serif" font-size="14" lengthAdjust="spacing" textLength="46" x="2813.5" y="143.7518">MySQL</text><line style="stroke:#181818;stroke-width:0.5;" x1="2797" x2="2876" y1="149.8538" y2="149.8538"/></g><g id="elem_GMN11"><path d="M2916,122.9379 L2916,132.7879 L2877.27,136.7879 L2916,140.7879 L2916,150.6439 A0,0 0 0 0 2916,150.6439 L3041,150.6439 A0,0 0 0 0 3041,150.6439 L3041,132.9379 L3031,122.9379 L2916,122.9379 A0,0 0 0 0 2916,122.9379 " fill="#FEFFDD" style="stroke:#181818;stroke-width:0.5;"/><path d="M3031,122.9379 L3031,132.9379 L3041,132.9379 L3031,122.9379 " fill="#FEFFDD" style="stroke:#181818;stroke-width:0.5;"/><text fill="#000000" font-family="sans-serif" font-size="13" lengthAdjust="spacing" textLength="104" x="2922" y="141.8349">RefreshTokenDto</text></g><g id="elem_GMN29"><path d="M6,226.8579 L6,449.3301 A0,0 0 0 0 6,449.3301 L263,449.3301 A0,0 0 0 0 263,449.3301 L263,236.8579 L253,226.8579 L138.5,226.8579 L134.5,166.3479 L130.5,226.8579 L6,226.8579 A0,0 0 0 0 6,226.8579 " fill="#FEFFDD" style="stroke:#181818;stroke-width:0.5;"/><path d="M253,226.8579 L253,236.8579 L263,236.8579 L253,226.8579 " fill="#FEFFDD" style="stroke:#181818;stroke-width:0.5;"/><text fill="#000000" font-family="sans-serif" font-size="13" font-weight="bold" lengthAdjust="spacing" textLength="175" x="12" y="245.7549">Fluxo UC-03: Refresh Token</text><text fill="#000000" font-family="sans-serif" font-size="13" lengthAdjust="spacing" textLength="172" x="12" y="263.4609">1. Cliente envia refresh token</text><text fill="#000000" font-family="sans-serif" font-size="13" lengthAdjust="spacing" textLength="236" x="12" y="281.167">2. Token JWT &#233; verificado e decodificado</text><text fill="#000000" font-family="sans-serif" font-size="13" lengthAdjust="spacing" textLength="222" x="12" y="298.873">3. Redis valida se token ainda &#233; v&#225;lido</text><text fill="#000000" font-family="sans-serif" font-size="13" lengthAdjust="spacing" textLength="193" x="12" y="316.579">4. Usu&#225;rio &#233; carregado do banco</text><text fill="#000000" font-family="sans-serif" font-size="13" lengthAdjust="spacing" textLength="229" x="12" y="334.285">5. Novo access token &#233; gerado (15min)</text><text fill="#000000" font-family="sans-serif" font-size="13" lengthAdjust="spacing" textLength="225" x="12" y="351.991">6. Refresh token permanece o mesmo</text><text fill="#000000" font-family="sans-serif" font-size="13" lengthAdjust="spacing" textLength="3" x="12" y="369.697">&#160;</text><text fill="#000000" font-family="sans-serif" font-size="13" font-weight="bold" lengthAdjust="spacing" textLength="74" x="12" y="387.4031">Valida&#231;&#245;es:</text><text fill="#000000" font-family="sans-serif" font-size="13" lengthAdjust="spacing" textLength="209" x="12" y="405.1091">- Refresh token deve estar no Redis</text><text fill="#000000" font-family="sans-serif" font-size="13" lengthAdjust="spacing" textLength="201" x="12" y="422.8151">- Usu&#225;rio deve existir e estar ativo</text><text fill="#000000" font-family="sans-serif" font-size="13" lengthAdjust="spacing" textLength="171" x="12" y="440.5211">- Token n&#227;o expirado (7 dias)</text></g><!--link Client to Controller--><g id="link_Client_Controller"><path codeLine="16" d="M167.24,136.7879 C225.95,136.7879 343.89,136.7879 417.67,136.7879 " fill="none" id="Client-to-Controller" style="stroke:#181818;stroke-width:1.0;"/><polygon fill="#181818" points="423.67,136.7879,414.67,132.7879,418.67,136.7879,414.67,140.7879,423.67,136.7879" style="stroke:#181818;stroke-width:1.0;"/><text fill="#000000" font-family="sans-serif" font-size="13" font-weight="bold" lengthAdjust="spacing" textLength="11" x="187.5" y="129.6849">1:</text><text fill="#000000" font-family="sans-serif" font-size="13" lengthAdjust="spacing" textLength="202" x="201.5" y="129.6849">POST /auth/refresh(refreshToken)</text></g><!--link Controller to Client--><g id="link_Controller_Client"><path codeLine="38" d="M423.64,150.3679 C406.01,153.8279 386.56,157.0579 368.5,158.7879 C303.91,164.9679 286.9,166.7179 222.5,158.7879 C203.9,156.4979 189.3569,153.2088 172.9269,148.5988 " fill="none" id="Controller-to-Client" style="stroke:#181818;stroke-width:1.0;"/><polygon fill="#181818" points="167.15,146.9779,174.7348,153.2606,171.9641,148.3287,176.896,145.558,167.15,146.9779" style="stroke:#181818;stroke-width:1.0;"/><text fill="#000000" font-family="sans-serif" font-size="13" font-weight="bold" lengthAdjust="spacing" textLength="11" x="223.5" y="154.6849">2:</text><text fill="#000000" font-family="sans-serif" font-size="13" lengthAdjust="spacing" textLength="130" x="237.5" y="154.6849">200 OK {accessToken}</text></g><!--link Controller to Service--><g id="link_Controller_Service"><path codeLine="19" d="M541.15,136.7879 C615.28,136.7879 735.59,136.7879 805.06,136.7879 " fill="none" id="Controller-to-Service" style="stroke:#181818;stroke-width:1.0;"/><polygon fill="#181818" points="811.06,136.7879,802.06,132.7879,806.06,136.7879,802.06,140.7879,811.06,136.7879" style="stroke:#181818;stroke-width:1.0;"/><text fill="#000000" font-family="sans-serif" font-size="13" font-weight="bold" lengthAdjust="spacing" textLength="22" x="561.25" y="129.6849">1.1:</text><text fill="#000000" font-family="sans-serif" font-size="13" lengthAdjust="spacing" textLength="205" x="586.25" y="129.6849">refreshAccessToken(refreshToken)</text></g><!--link Service to Controller--><g id="link_Service_Controller"><path codeLine="37" d="M811.12,147.2779 C787.39,151.7979 758.47,156.5579 732.25,158.7879 C682.65,163.0079 669.87,162.7279 620.25,158.7879 C594.18,156.7179 571.5023,153.5001 547.1523,149.2901 " fill="none" id="Service-to-Controller" style="stroke:#181818;stroke-width:1.0;"/><polygon fill="#181818" points="541.24,148.2679,549.427,153.7427,546.1669,149.1198,550.7899,145.8597,541.24,148.2679" style="stroke:#181818;stroke-width:1.0;"/><text fill="#000000" font-family="sans-serif" font-size="13" font-weight="bold" lengthAdjust="spacing" textLength="22" x="621.25" y="154.6849">1.2:</text><text fill="#000000" font-family="sans-serif" font-size="13" lengthAdjust="spacing" textLength="85" x="646.25" y="154.6849">{accessToken}</text></g><!--link Service to JWT--><g id="link_Service_JWT"><path codeLine="21" d="M868.86,116.9779 C876.76,101.0779 890.28,79.8679 909.5,70.1479 C957.09,46.0679 1096.25,67.1779 1149.5,70.1479 C1355.59,81.6379 1593.9733,114.429 1693.7233,129.029 " fill="none" id="Service-to-JWT" style="stroke:#181818;stroke-width:1.0;"/><polygon fill="#181818" points="1699.66,129.8979,1691.3342,124.6367,1694.7127,129.1738,1690.1756,132.5523,1699.66,129.8979" style="stroke:#181818;stroke-width:1.0;"/><text fill="#000000" font-family="sans-serif" font-size="13" font-weight="bold" lengthAdjust="spacing" textLength="33" x="910.5" y="73.6149">1.1.1:</text><text fill="#000000" font-family="sans-serif" font-size="13" lengthAdjust="spacing" textLength="202" x="946.5" y="73.6149">verifyRefreshToken(refreshToken)</text></g><!--link JWT to Service--><g id="link_JWT_Service"><path codeLine="22" d="M1699.66,129.8979 C1599.91,115.2979 1355.59,81.6379 1149.5,70.1479 C1096.25,67.1779 957.09,46.0679 909.5,70.1479 C890.28,79.8679 879.4298,95.7046 871.5298,111.6046 " fill="none" id="JWT-to-Service" style="stroke:#181818;stroke-width:1.0;"/><polygon fill="#181818" points="868.86,116.9779,876.4468,110.6978,871.0848,112.5002,869.2824,107.1381,868.86,116.9779" style="stroke:#181818;stroke-width:1.0;"/><text fill="#000000" font-family="sans-serif" font-size="13" font-weight="bold" lengthAdjust="spacing" textLength="33" x="968.5" y="73.6149">1.1.2:</text><text fill="#000000" font-family="sans-serif" font-size="13" lengthAdjust="spacing" textLength="86" x="1004.5" y="73.6149">{userId, email}</text></g><!--link Service to JWT--><g id="link_Service_JWT"><path codeLine="34" d="M868.86,116.9779 C876.76,101.0779 890.28,79.8679 909.5,70.1479 C957.09,46.0679 1096.25,67.1779 1149.5,70.1479 C1355.59,81.6379 1593.9733,114.429 1693.7233,129.029 " fill="none" id="Service-to-JWT-1" style="stroke:#181818;stroke-width:1.0;"/><polygon fill="#181818" points="1699.66,129.8979,1691.3342,124.6367,1694.7127,129.1738,1690.1756,132.5523,1699.66,129.8979" style="stroke:#181818;stroke-width:1.0;"/><text fill="#000000" font-family="sans-serif" font-size="13" font-weight="bold" lengthAdjust="spacing" textLength="33" x="929.5" y="73.6149">1.1.7:</text><text fill="#000000" font-family="sans-serif" font-size="13" lengthAdjust="spacing" textLength="164" x="965.5" y="73.6149">generateAccessToken(user)</text></g><!--link JWT to Service--><g id="link_JWT_Service"><path codeLine="35" d="M1699.66,129.8979 C1599.91,115.2979 1355.59,81.6379 1149.5,70.1479 C1096.25,67.1779 957.09,46.0679 909.5,70.1479 C890.28,79.8679 879.4298,95.7046 871.5298,111.6046 " fill="none" id="JWT-to-Service-1" style="stroke:#181818;stroke-width:1.0;"/><polygon fill="#181818" points="868.86,116.9779,876.4468,110.6978,871.0848,112.5002,869.2824,107.1381,868.86,116.9779" style="stroke:#181818;stroke-width:1.0;"/><text fill="#000000" font-family="sans-serif" font-size="13" font-weight="bold" lengthAdjust="spacing" textLength="33" x="961" y="73.6149">1.1.8:</text><text fill="#000000" font-family="sans-serif" font-size="13" lengthAdjust="spacing" textLength="101" x="997" y="73.6149">newAccessToken</text></g><!--link Service to Cache--><g id="link_Service_Cache"><path codeLine="24" d="M909.93,149.5479 C926.8,153.3179 945.86,156.9279 963.5,158.7879 C1027.59,165.5579 1044.42,165.6179 1108.5,158.7879 C1126.15,156.9079 1139.3873,154.5594 1156.2173,150.7594 " fill="none" id="Service-to-Cache" style="stroke:#181818;stroke-width:1.0;"/><polygon fill="#181818" points="1162.07,149.4379,1152.41,147.5183,1157.1928,150.5391,1154.172,155.3219,1162.07,149.4379" style="stroke:#181818;stroke-width:1.0;"/><text fill="#000000" font-family="sans-serif" font-size="13" font-weight="bold" lengthAdjust="spacing" textLength="33" x="964.5" y="154.6849">1.1.3:</text><text fill="#000000" font-family="sans-serif" font-size="13" lengthAdjust="spacing" textLength="107" x="1000.5" y="154.6849">get(refreshToken)</text></g><!--link Cache to Service--><g id="link_Cache_Service"><path codeLine="25" d="M1162.19,136.7879 C1095.77,136.7879 982.89,136.7879 915.9,136.7879 " fill="none" id="Cache-to-Service" style="stroke:#181818;stroke-width:1.0;"/><polygon fill="#181818" points="909.9,136.7879,918.9,140.7879,914.9,136.7879,918.9,132.7879,909.9,136.7879" style="stroke:#181818;stroke-width:1.0;"/><text fill="#000000" font-family="sans-serif" font-size="13" font-weight="bold" lengthAdjust="spacing" textLength="33" x="929.5" y="129.6849">1.1.4:</text><text fill="#000000" font-family="sans-serif" font-size="13" lengthAdjust="spacing" textLength="177" x="965.5" y="129.6849">userId (token v&#225;lido no Redis)</text></g><!--link Service to UserService--><g id="link_Service_UserService"><path codeLine="27" d="M909.78,131.1879 C966.21,124.9079 1061.44,114.6779 1143.5,107.7179 C1392.5,86.5979 1454.75,78.4979 1704.5,70.1479 C1734.26,69.1479 1811.74,57.0879 1838.5,70.1479 C1858.28,79.8079 1869.8834,95.7362 1878.4634,111.6562 " fill="none" id="Service-to-UserService" style="stroke:#181818;stroke-width:1.0;"/><polygon fill="#181818" points="1881.31,116.9379,1880.5613,107.1176,1878.9379,112.5364,1873.519,110.913,1881.31,116.9379" style="stroke:#181818;stroke-width:1.0;"/><text fill="#000000" font-family="sans-serif" font-size="13" font-weight="bold" lengthAdjust="spacing" textLength="33" x="1705.5" y="73.6149">1.1.5:</text><text fill="#000000" font-family="sans-serif" font-size="13" lengthAdjust="spacing" textLength="96" x="1741.5" y="73.6149">findById(userId)</text></g><!--link UserService to Service--><g id="link_UserService_Service"><path codeLine="32" d="M1881.31,116.9379 C1872.73,101.0179 1858.28,79.8079 1838.5,70.1479 C1811.74,57.0879 1734.26,69.1479 1704.5,70.1479 C1454.75,78.4979 1392.5,86.5979 1143.5,107.7179 C1061.44,114.6779 972.1732,124.2443 915.7432,130.5243 " fill="none" id="UserService-to-Service" style="stroke:#181818;stroke-width:1.0;"/><polygon fill="#181818" points="909.78,131.1879,919.1672,134.1679,914.7493,130.6349,918.2824,126.217,909.78,131.1879" style="stroke:#181818;stroke-width:1.0;"/><text fill="#000000" font-family="sans-serif" font-size="13" font-weight="bold" lengthAdjust="spacing" textLength="33" x="1740.5" y="73.6149">1.1.6:</text><text fill="#000000" font-family="sans-serif" font-size="13" lengthAdjust="spacing" textLength="26" x="1776.5" y="73.6149">user</text></g><!--link UserService to UserRepo--><g id="link_UserService_UserRepo"><path codeLine="28" d="M1942.92,136.7879 C2023.23,136.7879 2170.32,136.7879 2255.15,136.7879 " fill="none" id="UserService-to-UserRepo" style="stroke:#181818;stroke-width:1.0;"/><polygon fill="#181818" points="2261.15,136.7879,2252.15,132.7879,2256.15,136.7879,2252.15,140.7879,2261.15,136.7879" style="stroke:#181818;stroke-width:1.0;"/><text fill="#000000" font-family="sans-serif" font-size="13" font-weight="bold" lengthAdjust="spacing" textLength="44" x="1962.5" y="129.6849">1.1.5.1:</text><text fill="#000000" font-family="sans-serif" font-size="13" lengthAdjust="spacing" textLength="232" x="2009.5" y="129.6849">findOne({id: userId}, {relations: ['role']})</text></g><!--link UserRepo to UserService--><g id="link_UserRepo_UserService"><path codeLine="31" d="M2261.06,147.0379 C2209.02,154.6479 2131.87,163.0279 2064.5,158.7879 C2023.48,156.2079 1983.2661,151.1015 1948.8161,146.0315 " fill="none" id="UserRepo-to-UserService" style="stroke:#181818;stroke-width:1.0;"/><polygon fill="#181818" points="1942.88,145.1579,1951.2017,150.4257,1947.8267,145.8859,1952.3665,142.511,1942.88,145.1579" style="stroke:#181818;stroke-width:1.0;"/><text fill="#000000" font-family="sans-serif" font-size="13" font-weight="bold" lengthAdjust="spacing" textLength="44" x="2065.5" y="154.6849">1.1.5.2:</text><text fill="#000000" font-family="sans-serif" font-size="13" lengthAdjust="spacing" textLength="26" x="2112.5" y="154.6849">user</text></g><!--link UserRepo to DB--><g id="link_UserRepo_DB"><path codeLine="29" d="M2381.84,136.7879 C2487.95,136.7879 2699.28,136.7879 2789.66,136.7879 " fill="none" id="UserRepo-to-DB" style="stroke:#181818;stroke-width:1.0;"/><polygon fill="#181818" points="2795.66,136.7879,2786.66,132.7879,2790.66,136.7879,2786.66,140.7879,2795.66,136.7879" style="stroke:#181818;stroke-width:1.0;"/><text fill="#000000" font-family="sans-serif" font-size="13" font-weight="bold" lengthAdjust="spacing" textLength="55" x="2401.75" y="129.6849">1.1.5.1.1:</text><text fill="#000000" font-family="sans-serif" font-size="13" lengthAdjust="spacing" textLength="316" x="2459.75" y="129.6849">SELECT u.*, r.* FROM users u JOIN roles r WHERE id=?</text></g><!--link DB to UserRepo--><g id="link_DB_UserRepo"><path codeLine="30" d="M2795.69,142.8679 C2757.14,148.2879 2697.67,155.8079 2645.75,158.7879 C2595.17,161.6979 2582.35,161.4279 2531.75,158.7879 C2480.99,156.1379 2429.5653,150.6487 2387.5953,145.4987 " fill="none" id="DB-to-UserRepo" style="stroke:#181818;stroke-width:1.0;"/><polygon fill="#181818" points="2381.64,144.7679,2390.0858,149.8343,2386.6028,145.3769,2391.0602,141.8938,2381.64,144.7679" style="stroke:#181818;stroke-width:1.0;"/><text fill="#000000" font-family="sans-serif" font-size="13" font-weight="bold" lengthAdjust="spacing" textLength="55" x="2532.75" y="154.6849">1.1.5.1.2:</text><text fill="#000000" font-family="sans-serif" font-size="13" lengthAdjust="spacing" textLength="54" x="2590.75" y="154.6849">userData</text></g><!--SRC=[TLNTRjem5BxFKnprfZGgwNyx8R6f1Qh-im5TBxPTcEG0tXAxifsihE9XgbrCUu0z0Iys_uGaq8AGajZVzzddE-VOYgeOeKt9M924G8JGuadAQ4ZcV-Q_ETJXlbNVFMZ0gKf9J7yH0GF-0ndKUZWIA2TRdhS9tU5tL5nwN3z31HkDLaoHAVpA7d2u0KI26oW1fwcQj3XJWiSn2WSfFfTXVHGP3T5YylSISFKmgCxhptAkXn6LBH9Et9nzAsVl9GfPvPg1L_fci8UFN5B5nRJ0cQ4Ir2QA38dKuTvE-vzkBAfzPenfDfiB0tkTyrwdVm63xdNdpanudZC5wkyhiKC3V7-luVlmiTiVm0xH3km8vtKjVzeCR7cCAmH1nnEbrIipRSMrTgcezVEud7XWvNEjqp14AIrlHTvRa3HV-xhWEdQ6WewcrLLNs8PHVxroi6_Opwdsy3BQ1am8ZMTBIzaq5V030n-ZMb5teBVq3mt1oKDDsLBDvYynZJWm3hOabaEhfBqGEJ8Y8ygYi-bbL7DgMruLcHDD7PGiPutXTHdMdcdKo7SosuPdWJ5Hb3FPW2-REZEu-MtcDAs85coVLQMSMBzpqsaD80tyRH213-UzxgqLbP32LVVo3eoK104F5vrU1sZK_E1feVgQ3Jh_ZO0fsihowvme2Slnls7zSO5SLpedBfiC1L5OhJp3MbypxmoDuSyAexB46-sJLnafyREbXZ0Krti6Ri7xkxlGlLxXk1ORSgLu0doqECL0_tp_F4wVUD7ThZpTuUZx5h8Nv0G4P1abYvO3MvOMiX_anwa9VVxNjPK-V7MreZwCGnxbdnPz4BW2XamVnH41YKuAY2uvOlckr2twCD0PJUSlWd8p5H8XS6oKzNz8MEXGHm7SyOo3YplNq_2npf46rlQE4geRpa2FWo9C1tj4aH26EWaS4fI9FdQSDP_j_lGDyWzb8tUZlaAECDE-IALlb4LZvhXYrmxoHAMY0XPWtKGPpv7EEsOkAdnwf6x79n1HefiSMGGcVzv_]--></g></svg>