<?xml version="1.0" encoding="us-ascii" standalone="no"?><svg xmlns="http://www.w3.org/2000/svg" xmlns:xlink="http://www.w3.org/1999/xlink" contentStyleType="text/css" height="538px" preserveAspectRatio="none" style="width:3179px;height:538px;background:#FFFFFF;" version="1.1" viewBox="0 0 3179 538" width="3179px" zoomAndPan="magnify"><defs/><g><text fill="#000000" font-family="sans-serif" font-size="14" font-weight="bold" lengthAdjust="spacing" textLength="412" x="1376.75" y="24.9659">Diagrama de Comunica&#231;&#227;o - UC-07: Listar Livros com Filtros</text><g id="elem_Client"><rect fill="#F1F1F1" height="58.1358" style="stroke:#181818;stroke-width:0.5;" width="65" x="125.5" y="116.5769"/><text fill="#000000" font-family="sans-serif" font-size="14" lengthAdjust="spacing" textLength="51" x="132.5" y="133.5429">:Cliente</text><text fill="#000000" font-family="sans-serif" font-size="14" lengthAdjust="spacing" textLength="30" x="143" y="152.6108">Web</text><line style="stroke:#181818;stroke-width:0.5;" x1="126.5" x2="189.5" y1="158.7128" y2="158.7128"/></g><g id="elem_Controller"><rect fill="#F1F1F1" height="39.0679" style="stroke:#181818;stroke-width:0.5;" width="124" x="657" y="126.1069"/><text fill="#000000" font-family="sans-serif" font-size="14" lengthAdjust="spacing" textLength="110" x="664" y="143.0729">:BooksController</text><line style="stroke:#181818;stroke-width:0.5;" x1="658" x2="780" y1="149.1748" y2="149.1748"/></g><g id="elem_Service"><rect fill="#F1F1F1" height="39.0679" style="stroke:#181818;stroke-width:0.5;" width="105" x="1088.5" y="126.1069"/><text fill="#000000" font-family="sans-serif" font-size="14" lengthAdjust="spacing" textLength="91" x="1095.5" y="143.0729">:BooksService</text><line style="stroke:#181818;stroke-width:0.5;" x1="1089.5" x2="1192.5" y1="149.1748" y2="149.1748"/></g><g id="elem_BookRepo"><rect fill="#F1F1F1" height="39.0679" style="stroke:#181818;stroke-width:0.5;" width="121" x="1845.5" y="126.1069"/><text fill="#000000" font-family="sans-serif" font-size="14" lengthAdjust="spacing" textLength="107" x="1852.5" y="143.0729">:BookRepository</text><line style="stroke:#181818;stroke-width:0.5;" x1="1846.5" x2="1965.5" y1="149.1748" y2="149.1748"/></g><g id="elem_Cache"><rect fill="#F1F1F1" height="39.0679" style="stroke:#181818;stroke-width:0.5;" width="96" x="1705" y="126.1069"/><text fill="#000000" font-family="sans-serif" font-size="14" lengthAdjust="spacing" textLength="82" x="1712" y="143.0729">:RedisCache</text><line style="stroke:#181818;stroke-width:0.5;" x1="1706" x2="1800" y1="149.1748" y2="149.1748"/></g><g id="elem_DBSlave"><rect fill="#F1F1F1" height="58.1358" style="stroke:#181818;stroke-width:0.5;" width="99" x="2280.5" y="116.5769"/><text fill="#000000" font-family="sans-serif" font-size="14" lengthAdjust="spacing" textLength="67" x="2296.5" y="133.5429">:Database</text><text fill="#000000" font-family="sans-serif" font-size="14" lengthAdjust="spacing" textLength="85" x="2287.5" y="152.6108">MySQL Slave</text><line style="stroke:#181818;stroke-width:0.5;" x1="2281.5" x2="2378.5" y1="158.7128" y2="158.7128"/></g><g id="elem_GMN9"><path d="M2424,131.7869 L2424,159.4929 L2554,159.4929 L2554,141.7869 L2544,131.7869 L2424,131.7869 " fill="#FEFFDD" style="stroke:#181818;stroke-width:0.5;"/><path d="M2544,131.7869 L2544,141.7869 L2554,141.7869 L2544,131.7869 " fill="#FEFFDD" style="stroke:#181818;stroke-width:1.0;"/><text fill="#000000" font-family="sans-serif" font-size="13" lengthAdjust="spacing" textLength="109" x="2430" y="150.6839">Query parameters</text></g><g id="elem_GMN16"><path d="M2598,96.3769 L2598,194.907 L2816,194.907 L2816,106.3769 L2806,96.3769 L2598,96.3769 " fill="#FEFFDD" style="stroke:#181818;stroke-width:0.5;"/><path d="M2806,96.3769 L2806,106.3769 L2816,106.3769 L2806,96.3769 " fill="#FEFFDD" style="stroke:#181818;stroke-width:1.0;"/><text fill="#000000" font-family="sans-serif" font-size="13" lengthAdjust="spacing" textLength="111" x="2604" y="115.2739">QueryBuilder com:</text><text fill="#000000" font-family="sans-serif" font-size="13" lengthAdjust="spacing" textLength="136" x="2604" y="132.9799">- Pagina&#231;&#227;o (skip, take)</text><text fill="#000000" font-family="sans-serif" font-size="13" lengthAdjust="spacing" textLength="177" x="2604" y="150.686">- Filtros (status, tags, authors)</text><text fill="#000000" font-family="sans-serif" font-size="13" lengthAdjust="spacing" textLength="176" x="2604" y="168.392">- Ordena&#231;&#227;o (createdAt DESC)</text><text fill="#000000" font-family="sans-serif" font-size="13" lengthAdjust="spacing" textLength="197" x="2604" y="186.098">- Relations (authors, tags, covers)</text></g><g id="elem_GMN20"><path d="M2860.5,131.7869 L2860.5,159.4929 L2953.5,159.4929 L2953.5,141.7869 L2943.5,131.7869 L2860.5,131.7869 " fill="#FEFFDD" style="stroke:#181818;stroke-width:0.5;"/><path d="M2943.5,131.7869 L2943.5,141.7869 L2953.5,141.7869 L2943.5,131.7869 " fill="#FEFFDD" style="stroke:#181818;stroke-width:1.0;"/><text fill="#000000" font-family="sans-serif" font-size="13" lengthAdjust="spacing" textLength="72" x="2866.5" y="150.6839">Read replica</text></g><g id="elem_GMN26"><path d="M2997.5,114.0869 L2997.5,177.205 L3172.5,177.205 L3172.5,124.0869 L3162.5,114.0869 L2997.5,114.0869 " fill="#FEFFDD" style="stroke:#181818;stroke-width:0.5;"/><path d="M3162.5,114.0869 L3162.5,124.0869 L3172.5,124.0869 L3162.5,114.0869 " fill="#FEFFDD" style="stroke:#181818;stroke-width:1.0;"/><text fill="#000000" font-family="sans-serif" font-size="13" lengthAdjust="spacing" textLength="148" x="3003.5" y="132.9839">- Mapear URLs das capas</text><text fill="#000000" font-family="sans-serif" font-size="13" lengthAdjust="spacing" textLength="154" x="3003.5" y="150.6899">- Ocultar campos internos</text><text fill="#000000" font-family="sans-serif" font-size="13" lengthAdjust="spacing" textLength="103" x="3003.5" y="168.396">- Formatar dados</text></g><g id="elem_GMN33"><path d="M6,255.9069 L6,531.4972 A0,0 0 0 0 6,531.4972 L310,531.4972 A0,0 0 0 0 310,531.4972 L310,265.9069 L300,255.9069 L162,255.9069 L158,174.8669 L154,255.9069 L6,255.9069 A0,0 0 0 0 6,255.9069 " fill="#FEFFDD" style="stroke:#181818;stroke-width:0.5;"/><path d="M300,255.9069 L300,265.9069 L310,265.9069 L300,255.9069 " fill="#FEFFDD" style="stroke:#181818;stroke-width:0.5;"/><text fill="#000000" font-family="sans-serif" font-size="13" font-weight="bold" lengthAdjust="spacing" textLength="161" x="12" y="274.8039">Fluxo UC-07: Listar Livros</text><text fill="#000000" font-family="sans-serif" font-size="13" lengthAdjust="spacing" textLength="278" x="12" y="292.5099">1. Cliente envia par&#226;metros de filtro/pagina&#231;&#227;o</text><text fill="#000000" font-family="sans-serif" font-size="13" lengthAdjust="spacing" textLength="242" x="12" y="310.216">2. Sistema verifica cache Redis (5min TTL)</text><text fill="#000000" font-family="sans-serif" font-size="13" lengthAdjust="spacing" textLength="262" x="12" y="327.922">3. Se cache miss, consulta banco slave (read)</text><text fill="#000000" font-family="sans-serif" font-size="13" lengthAdjust="spacing" textLength="250" x="12" y="345.628">4. Aplica filtros: status, tags, autores, t&#237;tulo</text><text fill="#000000" font-family="sans-serif" font-size="13" lengthAdjust="spacing" textLength="283" x="12" y="363.334">5. Inclui relacionamentos (authors, tags, covers)</text><text fill="#000000" font-family="sans-serif" font-size="13" lengthAdjust="spacing" textLength="166" x="12" y="381.04">6. Transforma dados e URLs</text><text fill="#000000" font-family="sans-serif" font-size="13" lengthAdjust="spacing" textLength="189" x="12" y="398.746">7. Armazena resultado no cache</text><text fill="#000000" font-family="sans-serif" font-size="13" lengthAdjust="spacing" textLength="244" x="12" y="416.4521">8. Retorna com metadados de pagina&#231;&#227;o</text><text fill="#000000" font-family="sans-serif" font-size="13" lengthAdjust="spacing" textLength="3" x="12" y="434.1581">&#160;</text><text fill="#000000" font-family="sans-serif" font-size="13" font-weight="bold" lengthAdjust="spacing" textLength="85" x="12" y="451.8641">Otimiza&#231;&#245;es:</text><text fill="#000000" font-family="sans-serif" font-size="13" lengthAdjust="spacing" textLength="198" x="12" y="469.5701">- Cache por combina&#231;&#227;o de filtros</text><text fill="#000000" font-family="sans-serif" font-size="13" lengthAdjust="spacing" textLength="267" x="12" y="487.2761">- Read replica para n&#227;o sobrecarregar master</text><text fill="#000000" font-family="sans-serif" font-size="13" lengthAdjust="spacing" textLength="210" x="12" y="504.9821">- Eager loading de relacionamentos</text><text fill="#000000" font-family="sans-serif" font-size="13" lengthAdjust="spacing" textLength="196" x="12" y="522.6882">- Soft delete (deleted_at IS NULL)</text></g><!--link Client to Controller--><g id="link_Client_Controller"><path codeLine="14" d="M191,145.6369 C282.01,145.6369 531.7,145.6369 650.67,145.6369 " fill="none" id="Client-to-Controller" style="stroke:#181818;stroke-width:1.0;"/><polygon fill="#181818" points="656.67,145.6369,647.67,141.6369,651.67,145.6369,647.67,149.6369,656.67,145.6369" style="stroke:#181818;stroke-width:1.0;"/><text fill="#000000" font-family="sans-serif" font-size="13" font-weight="bold" lengthAdjust="spacing" textLength="11" x="213.25" y="138.5339">1:</text><text fill="#000000" font-family="sans-serif" font-size="13" lengthAdjust="spacing" textLength="407" x="227.25" y="138.5339">GET /books?page=1&amp;limit=20&amp;status=ACTIVE&amp;tags=action,romance</text></g><!--link Controller to Client--><g id="link_Controller_Client"><path codeLine="47" d="M656.56,154.0069 C615.5,159.0869 560.53,165.0569 511.75,167.6369 C433.64,171.7769 413.82,172.4569 335.75,167.6369 C285.01,164.5169 232.5109,157.3146 196.9009,151.8646 " fill="none" id="Controller-to-Client" style="stroke:#181818;stroke-width:1.0;"/><polygon fill="#181818" points="190.97,150.9569,199.2613,156.2724,195.9125,151.7133,200.4716,148.3645,190.97,150.9569" style="stroke:#181818;stroke-width:1.0;"/><text fill="#000000" font-family="sans-serif" font-size="13" font-weight="bold" lengthAdjust="spacing" textLength="11" x="336.75" y="163.5339">2:</text><text fill="#000000" font-family="sans-serif" font-size="13" lengthAdjust="spacing" textLength="160" x="350.75" y="163.5339">200 OK {data[], meta, links}</text></g><!--link DBSlave to GMN9--><g id="link_DBSlave_GMN9"><path d="M2380,145.6369 C2394.62,145.6369 2409.24,145.6369 2423.85,145.6369 " fill="none" id="DBSlave-GMN9" style="stroke:#181818;stroke-width:1.0;stroke-dasharray:7.0,7.0;"/></g><!--link Controller to Service--><g id="link_Controller_Service"><path codeLine="17" d="M781.33,156.7769 C808.54,161.0969 840.87,165.5169 870.25,167.6369 C927.43,171.7769 942.09,172.0469 999.25,167.6369 C1028.8,165.3669 1055.5885,161.4734 1082.1385,156.8634 " fill="none" id="Controller-to-Service" style="stroke:#181818;stroke-width:1.0;"/><polygon fill="#181818" points="1088.05,155.8369,1078.4984,153.4356,1083.1237,156.6923,1079.867,161.3176,1088.05,155.8369" style="stroke:#181818;stroke-width:1.0;"/><text fill="#000000" font-family="sans-serif" font-size="13" font-weight="bold" lengthAdjust="spacing" textLength="22" x="871.25" y="163.5339">1.1:</text><text fill="#000000" font-family="sans-serif" font-size="13" lengthAdjust="spacing" textLength="102" x="896.25" y="163.5339">findAll(queryDto)</text></g><!--link Service to Controller--><g id="link_Service_Controller"><path codeLine="46" d="M1088.16,145.6369 C1010.13,145.6369 870.38,145.6369 787.27,145.6369 " fill="none" id="Service-to-Controller" style="stroke:#181818;stroke-width:1.0;"/><polygon fill="#181818" points="781.27,145.6369,790.27,149.6369,786.27,145.6369,790.27,141.6369,781.27,145.6369" style="stroke:#181818;stroke-width:1.0;"/><text fill="#000000" font-family="sans-serif" font-size="13" font-weight="bold" lengthAdjust="spacing" textLength="22" x="803.75" y="138.5339">1.2:</text><text fill="#000000" font-family="sans-serif" font-size="13" lengthAdjust="spacing" textLength="237" x="828.75" y="138.5339">{data: books[], meta: {total, page, limit}}</text></g><!--link Service to Cache--><g id="link_Service_Cache"><path codeLine="19" d="M1193.78,153.6769 C1230.31,158.8169 1280.11,164.9969 1324.25,167.6369 C1435.16,174.2769 1463.35,174.4369 1574.25,167.6369 C1618.57,164.9269 1662.7828,159.3226 1698.6528,154.0926 " fill="none" id="Service-to-Cache" style="stroke:#181818;stroke-width:1.0;"/><polygon fill="#181818" points="1704.59,153.2269,1695.1071,150.5673,1699.6423,153.9483,1696.2613,158.4836,1704.59,153.2269" style="stroke:#181818;stroke-width:1.0;"/><text fill="#000000" font-family="sans-serif" font-size="13" font-weight="bold" lengthAdjust="spacing" textLength="33" x="1325.25" y="163.5339">1.1.1:</text><text fill="#000000" font-family="sans-serif" font-size="13" lengthAdjust="spacing" textLength="212" x="1361.25" y="163.5339">get("books:page:1:limit:20:filters:...")</text></g><!--link Cache to Service--><g id="link_Cache_Service"><path codeLine="20" d="M1704.85,137.8869 C1670.06,132.6969 1621.89,126.3269 1579.25,123.6369 C1463.92,116.3669 1434.59,116.5469 1319.25,123.6369 C1276.92,126.2469 1235.1986,131.4309 1199.8186,136.5309 " fill="none" id="Cache-to-Service" style="stroke:#181818;stroke-width:1.0;"/><polygon fill="#181818" points="1193.88,137.3869,1203.3586,140.0619,1198.8288,136.6735,1202.2172,132.1438,1193.88,137.3869" style="stroke:#181818;stroke-width:1.0;"/><text fill="#000000" font-family="sans-serif" font-size="13" font-weight="bold" lengthAdjust="spacing" textLength="33" x="1382.75" y="113.5339">1.1.2:</text><text fill="#000000" font-family="sans-serif" font-size="13" lengthAdjust="spacing" textLength="97" x="1418.75" y="113.5339">null (cache miss)</text></g><!--link Service to Cache--><g id="link_Service_Cache"><path codeLine="43" d="M1193.97,145.6369 C1311.29,145.6369 1585.53,145.6369 1698.53,145.6369 " fill="none" id="Service-to-Cache-1" style="stroke:#181818;stroke-width:1.0;"/><polygon fill="#181818" points="1704.53,145.6369,1695.53,141.6369,1699.53,145.6369,1695.53,149.6369,1704.53,145.6369" style="stroke:#181818;stroke-width:1.0;"/><text fill="#000000" font-family="sans-serif" font-size="13" font-weight="bold" lengthAdjust="spacing" textLength="33" x="1320.25" y="138.5339">1.1.6:</text><text fill="#000000" font-family="sans-serif" font-size="13" lengthAdjust="spacing" textLength="222" x="1356.25" y="138.5339">set("books:page:...", result, TTL=5min)</text></g><!--link Cache to Service--><g id="link_Cache_Service"><path codeLine="44" d="M1704.74,161.9469 C1669.14,173.0769 1619.28,186.8169 1574.25,192.6369 C1519.15,199.7669 1379.37,199.5969 1324.25,192.6369 C1279.44,186.9869 1235.6539,175.581 1199.3839,164.631 " fill="none" id="Cache-to-Service-1" style="stroke:#181818;stroke-width:1.0;"/><polygon fill="#181818" points="1193.64,162.8969,1201.0998,169.3274,1198.4266,164.342,1203.412,161.6688,1193.64,162.8969" style="stroke:#181818;stroke-width:1.0;"/><text fill="#000000" font-family="sans-serif" font-size="13" font-weight="bold" lengthAdjust="spacing" textLength="33" x="1422.25" y="188.5339">1.1.7:</text><text fill="#000000" font-family="sans-serif" font-size="13" lengthAdjust="spacing" textLength="18" x="1458.25" y="188.5339">OK</text></g><!--link Service to BookRepo--><g id="link_Service_BookRepo"><path codeLine="22" d="M1193.83,130.7269 C1268.76,110.4269 1410.52,75.1369 1534,62.1669 C1587.04,56.5969 1722.77,47.3369 1774,62.1669 C1816.71,74.5469 1854.2489,101.49 1879.0389,122.02 " fill="none" id="Service-to-BookRepo" style="stroke:#181818;stroke-width:1.0;"/><polygon fill="#181818" points="1883.66,125.8469,1879.2797,117.0258,1879.8091,122.6578,1874.1771,123.1872,1883.66,125.8469" style="stroke:#181818;stroke-width:1.0;"/><text fill="#000000" font-family="sans-serif" font-size="13" font-weight="bold" lengthAdjust="spacing" textLength="33" x="1535" y="62.2739">1.1.3:</text><text fill="#000000" font-family="sans-serif" font-size="13" lengthAdjust="spacing" textLength="202" x="1571" y="62.2739">findAndCount({...filters, relations})</text></g><!--link BookRepo to Service--><g id="link_BookRepo_Service"><path codeLine="34" d="M1883.66,125.8469 C1858.87,105.3169 1816.71,74.5469 1774,62.1669 C1722.77,47.3369 1587.04,56.5969 1534,62.1669 C1410.52,75.1369 1274.5512,108.858 1199.6212,129.158 " fill="none" id="BookRepo-to-Service" style="stroke:#181818;stroke-width:1.0;"/><polygon fill="#181818" points="1193.83,130.7269,1203.5628,132.2343,1198.656,129.4195,1201.4709,124.5127,1193.83,130.7269" style="stroke:#181818;stroke-width:1.0;"/><text fill="#000000" font-family="sans-serif" font-size="13" font-weight="bold" lengthAdjust="spacing" textLength="33" x="1592.5" y="62.2739">1.1.4:</text><text fill="#000000" font-family="sans-serif" font-size="13" lengthAdjust="spacing" textLength="87" x="1628.5" y="62.2739">[books[], total]</text></g><!--link GMN9 to GMN16--><g id="link_GMN9_GMN16"><path d="M2554.14,145.6369 C2568.67,145.6369 2583.2,145.6369 2597.73,145.6369 " fill="none" id="GMN9-GMN16" style="stroke:#181818;stroke-width:1.0;stroke-dasharray:7.0,7.0;"/></g><!--link BookRepo to DBSlave--><g id="link_BookRepo_DBSlave"><path codeLine="31" d="M1966.75,145.6369 C2051.13,145.6369 2196.21,145.6369 2274.28,145.6369 " fill="none" id="BookRepo-to-DBSlave" style="stroke:#181818;stroke-width:1.0;"/><polygon fill="#181818" points="2280.28,145.6369,2271.28,141.6369,2275.28,145.6369,2271.28,149.6369,2280.28,145.6369" style="stroke:#181818;stroke-width:1.0;"/><text fill="#000000" font-family="sans-serif" font-size="13" font-weight="bold" lengthAdjust="spacing" textLength="44" x="1989.5" y="102.5339">1.1.3.1:</text><text fill="#000000" font-family="sans-serif" font-size="13" lengthAdjust="spacing" textLength="221" x="2036.5" y="102.5339">SELECT b.*, a.*, t.*, c.* FROM books b</text><text fill="#000000" font-family="sans-serif" font-size="13" lengthAdjust="spacing" textLength="182" x="2032.5" y="120.2399">LEFT JOIN books_authors ba ...</text><text fill="#000000" font-family="sans-serif" font-size="13" lengthAdjust="spacing" textLength="214" x="2016.5" y="137.946">WHERE b.deleted_at IS NULL AND ...</text></g><!--link DBSlave to BookRepo--><g id="link_DBSlave_BookRepo"><path codeLine="33" d="M2280.18,158.1669 C2262.56,162.0169 2242.51,165.7369 2224,167.6369 C2179.57,172.2069 2067.47,171.7869 2023,167.6369 C2004.58,165.9269 1990.6336,163.842 1972.6136,160.402 " fill="none" id="DBSlave-to-BookRepo" style="stroke:#181818;stroke-width:1.0;"/><polygon fill="#181818" points="1966.72,159.2769,1974.8103,164.8936,1971.6313,160.2145,1976.3104,157.0355,1966.72,159.2769" style="stroke:#181818;stroke-width:1.0;"/><text fill="#000000" font-family="sans-serif" font-size="13" font-weight="bold" lengthAdjust="spacing" textLength="44" x="2024" y="163.5339">1.1.3.2:</text><text fill="#000000" font-family="sans-serif" font-size="13" lengthAdjust="spacing" textLength="152" x="2071" y="163.5339">[booksData[], totalCount]</text></g><!--link GMN16 to GMN20--><g id="link_GMN16_GMN20"><path d="M2816.37,145.6369 C2831.01,145.6369 2845.64,145.6369 2860.27,145.6369 " fill="none" id="GMN16-GMN20" style="stroke:#181818;stroke-width:1.0;stroke-dasharray:7.0,7.0;"/></g><!--link Service to Service--><g id="link_Service_Service"><path codeLine="36" d="M1193.61,130.9169 C1217.14,129.5169 1237.5,134.4269 1237.5,145.6369 C1237.5,156.8569 1223.1294,162.1233 1199.5994,160.7233 " fill="none" id="Service-to-Service" style="stroke:#181818;stroke-width:1.0;"/><polygon fill="#181818" points="1193.61,160.3669,1202.3565,164.8944,1198.6012,160.6639,1202.8317,156.9085,1193.61,160.3669" style="stroke:#181818;stroke-width:1.0;"/><text fill="#000000" font-family="sans-serif" font-size="13" font-weight="bold" lengthAdjust="spacing" textLength="33" x="1243.5" y="151.0339">1.1.5:</text><text fill="#000000" font-family="sans-serif" font-size="13" lengthAdjust="spacing" textLength="142" x="1279.5" y="151.0339">transformBooks(books)</text></g><!--link GMN20 to GMN26--><g id="link_GMN20_GMN26"><path d="M2953.93,145.6369 C2968.35,145.6369 2982.78,145.6369 2997.2,145.6369 " fill="none" id="GMN20-GMN26" style="stroke:#181818;stroke-width:1.0;stroke-dasharray:7.0,7.0;"/></g><!--SRC=[VLNBSjis5DtpA-vuuSeSYP6TEEvmHkt8UhHgPAiHvNIHU38W2SceGK05G4qSZt-cNNJLPR_0FzOBWAGaswaM50dS5ywzvy0mmoaC6LafKX38AGnaKGgMaSU_7_-Iq86hGQTx5iEKQKCK_csKr9390iQC6tmFWkzWblvE3RvA_CyC7CG3pgWmz9FuZQO7G3JuXQt1kPItUY05Hk2SAc_JV3wnIwZQi8mwe-fzts9Err8p8zMTiwcNjaPpcZCz8DcD3-BUjhj3OaXAD9PxSPUydqB2oSOR3i_TkprZhzThi9WaY_uS_pxCPudT209_FkZyi7CAY24CZ-CmX9z62tYLsgFyk2OhsZi-vAnWfdVIFKHKJQbx_S5Yyc5qQCXAzqXcc1Hj9GiYyAH26WgAhMvC3EzBgkvWJR1Pr525uE-am-GLEZvpv78lcSZxdBV-iAv38u-2eBQorLeaQdFliAAcTU2AZMsnyN7iYerFkl4IMuvPuoYA3eu2xzjvdZOwiN54oJcqCcTKCAtt4zSzQdnUDyMAV21BOLhtcARAs0P5ER6mw8UZ7KG2m9y3vRnaF4SGS39Zjzg1NycAYMgEM_gMhTjWo2qzghQh-SKjrmAxkS8dASsDLBgscgcSDa4oHOcXUT_0S9GCQfDvNHgqAkSwLYOtr8QY8WTRT10qnqO8gk7Q8k3nJqRJqM01QHHYCVPXx2EBGXZFPnVWEWFf9p4TZHVmosnowPS-LxaX9O308VL-7ir762Qd76Sb_qmCJ1Aul9fEeNyvj3PxepMd94UKrnov7zIbTLxibE_lHvVMSkVZDHOf3U6kRzSxXtnXDjviVHk_wxtHUEfnQZsC8a8lfIgS8hIS_xD9wC05MLEKgQlvL4EE1Cx8ckYwbLd9hOPbf42v08O2fOIiTySOczZjdEIuk6tPDzdorjQbdx35KiDEgyPSRLWifhtJWed_8ykP3JDxjvFe1HNnaD_dM64C3NWe0lXvxp1iWytV1aVMXuSzOR01lK3PO2xKIRUBINt4EfHr5hVw8V2ufj8Or7cvhDNR0XM6Orv-aIzU2s7eJ8wZoe425Hj6h5uz_ea9BDlmXbawuhrQR-dft4uYI30QnMi8MSEME8VWrSEfDxGia1PHpxlNQ4vXAo-MRSAYJf018fEWtGItaBAvztWJGT-DTrM1Zk4PzILs3ZyV_p4bzsMTHZ0H6I-Paw0CUOxQAupyDjkjrzi85lN44ZzIGDrOkkqpB0KtlgAqLBE25ZXl_ZpEvFi8putre8MzRMr_V1X4S1UwgYipWtt_QjV-fJgkEj6f9dOjdJ2cZHmsNT2DXctPx-uN4DPEorJHZ2X5LzZbWc1xLEKnmcbJm2N9cLZPW4_WgSmIkJJW9GXQpwLeHnl_0m00]--></g></svg>