<?xml version="1.0" encoding="us-ascii" standalone="no"?><svg xmlns="http://www.w3.org/2000/svg" xmlns:xlink="http://www.w3.org/1999/xlink" contentStyleType="text/css" height="598px" preserveAspectRatio="none" style="width:3313px;height:598px;background:#FFFFFF;" version="1.1" viewBox="0 0 3313 598" width="3313px" zoomAndPan="magnify"><defs/><g><text fill="#000000" font-family="sans-serif" font-size="14" font-weight="bold" lengthAdjust="spacing" textLength="373" x="1463.25" y="24.9659">Diagrama de Comunica&#231;&#227;o - UC-13: Visualizar Cap&#237;tulo</text><g id="elem_Client"><rect fill="#F1F1F1" height="58.1358" style="stroke:#181818;stroke-width:0.5;" width="65" x="107.5" y="108.0179"/><text fill="#000000" font-family="sans-serif" font-size="14" lengthAdjust="spacing" textLength="51" x="114.5" y="124.9839">:Cliente</text><text fill="#000000" font-family="sans-serif" font-size="14" lengthAdjust="spacing" textLength="30" x="125" y="144.0518">Web</text><line style="stroke:#181818;stroke-width:0.5;" x1="108.5" x2="171.5" y1="150.1538" y2="150.1538"/></g><g id="elem_Controller"><rect fill="#F1F1F1" height="39.0679" style="stroke:#181818;stroke-width:0.5;" width="139" x="383.5" y="117.5579"/><text fill="#000000" font-family="sans-serif" font-size="14" lengthAdjust="spacing" textLength="125" x="390.5" y="134.5239">:ChapterController</text><line style="stroke:#181818;stroke-width:0.5;" x1="384.5" x2="521.5" y1="140.6258" y2="140.6258"/></g><g id="elem_Service"><rect fill="#F1F1F1" height="39.0679" style="stroke:#181818;stroke-width:0.5;" width="120" x="707" y="117.5579"/><text fill="#000000" font-family="sans-serif" font-size="14" lengthAdjust="spacing" textLength="106" x="714" y="134.5239">:ChapterService</text><line style="stroke:#181818;stroke-width:0.5;" x1="708" x2="826" y1="140.6258" y2="140.6258"/></g><g id="elem_ChapterRepo"><rect fill="#F1F1F1" height="39.0679" style="stroke:#181818;stroke-width:0.5;" width="143" x="2385.5" y="117.5579"/><text fill="#000000" font-family="sans-serif" font-size="14" lengthAdjust="spacing" textLength="129" x="2392.5" y="134.5239">:ChapterRepository</text><line style="stroke:#181818;stroke-width:0.5;" x1="2386.5" x2="2527.5" y1="140.6258" y2="140.6258"/></g><g id="elem_PageRepo"><rect fill="#F1F1F1" height="39.0679" style="stroke:#181818;stroke-width:0.5;" width="122" x="1683" y="117.5579"/><text fill="#000000" font-family="sans-serif" font-size="14" lengthAdjust="spacing" textLength="108" x="1690" y="134.5239">:PageRepository</text><line style="stroke:#181818;stroke-width:0.5;" x1="1684" x2="1804" y1="140.6258" y2="140.6258"/></g><g id="elem_Cache"><rect fill="#F1F1F1" height="39.0679" style="stroke:#181818;stroke-width:0.5;" width="96" x="1496" y="117.5579"/><text fill="#000000" font-family="sans-serif" font-size="14" lengthAdjust="spacing" textLength="82" x="1503" y="134.5239">:RedisCache</text><line style="stroke:#181818;stroke-width:0.5;" x1="1497" x2="1591" y1="140.6258" y2="140.6258"/></g><g id="elem_DBSlave"><rect fill="#F1F1F1" height="58.1358" style="stroke:#181818;stroke-width:0.5;" width="99" x="2120.5" y="108.0179"/><text fill="#000000" font-family="sans-serif" font-size="14" lengthAdjust="spacing" textLength="67" x="2136.5" y="124.9839">:Database</text><text fill="#000000" font-family="sans-serif" font-size="14" lengthAdjust="spacing" textLength="85" x="2127.5" y="144.0518">MySQL Slave</text><line style="stroke:#181818;stroke-width:0.5;" x1="2121.5" x2="2218.5" y1="150.1538" y2="150.1538"/></g><g id="elem_GMN10"><path d="M2572.5,123.2379 L2572.5,150.9439 L2651.5,150.9439 L2651.5,133.2379 L2641.5,123.2379 L2572.5,123.2379 " fill="#FEFFDD" style="stroke:#181818;stroke-width:0.5;"/><path d="M2641.5,123.2379 L2641.5,133.2379 L2651.5,133.2379 L2641.5,123.2379 " fill="#FEFFDD" style="stroke:#181818;stroke-width:1.0;"/><text fill="#000000" font-family="sans-serif" font-size="13" lengthAdjust="spacing" textLength="58" x="2578.5" y="142.1349">chapterId</text></g><g id="elem_GMN25"><path d="M2695,114.3879 L2695,159.7999 L3033,159.7999 L3033,124.3879 L3023,114.3879 L2695,114.3879 " fill="#FEFFDD" style="stroke:#181818;stroke-width:0.5;"/><path d="M3023,114.3879 L3023,124.3879 L3033,124.3879 L3023,114.3879 " fill="#FEFFDD" style="stroke:#181818;stroke-width:1.0;"/><text fill="#000000" font-family="sans-serif" font-size="13" lengthAdjust="spacing" textLength="130" x="2701" y="133.2849">Gera URLs completas:</text><text fill="#000000" font-family="sans-serif" font-size="13" lengthAdjust="spacing" textLength="317" x="2701" y="150.9909">/files/pages/{bookId}/{chapterId}/{pageNumber}.jpg</text></g><g id="elem_GMN29"><path d="M3077.5,123.2379 L3077.5,150.9439 L3306.5,150.9439 L3306.5,133.2379 L3296.5,123.2379 L3077.5,123.2379 " fill="#FEFFDD" style="stroke:#181818;stroke-width:0.5;"/><path d="M3296.5,123.2379 L3296.5,133.2379 L3306.5,133.2379 L3296.5,123.2379 " fill="#FEFFDD" style="stroke:#181818;stroke-width:1.0;"/><text fill="#000000" font-family="sans-serif" font-size="13" lengthAdjust="spacing" textLength="208" x="3083.5" y="142.1349">Cache longo (p&#225;ginas n&#227;o mudam)</text></g><g id="elem_GMN35"><path d="M6,227.1579 L6,591.2782 A0,0 0 0 0 6,591.2782 L274,591.2782 A0,0 0 0 0 274,591.2782 L274,237.1579 L264,227.1579 L144,227.1579 L140,166.4879 L136,227.1579 L6,227.1579 A0,0 0 0 0 6,227.1579 " fill="#FEFFDD" style="stroke:#181818;stroke-width:0.5;"/><path d="M264,227.1579 L264,237.1579 L274,237.1579 L264,227.1579 " fill="#FEFFDD" style="stroke:#181818;stroke-width:0.5;"/><text fill="#000000" font-family="sans-serif" font-size="13" font-weight="bold" lengthAdjust="spacing" textLength="201" x="12" y="246.0549">Fluxo UC-13: Visualizar Cap&#237;tulo</text><text fill="#000000" font-family="sans-serif" font-size="13" lengthAdjust="spacing" textLength="210" x="12" y="263.7609">1. Cliente solicita cap&#237;tulo espec&#237;fico</text><text fill="#000000" font-family="sans-serif" font-size="13" lengthAdjust="spacing" textLength="165" x="12" y="281.467">2. Verifica cache (TTL 30min)</text><text fill="#000000" font-family="sans-serif" font-size="13" lengthAdjust="spacing" textLength="176" x="12" y="299.173">3. Consulta dados do cap&#237;tulo</text><text fill="#000000" font-family="sans-serif" font-size="13" lengthAdjust="spacing" textLength="230" x="12" y="316.879">4. Carrega todas as p&#225;ginas ordenadas</text><text fill="#000000" font-family="sans-serif" font-size="13" lengthAdjust="spacing" textLength="218" x="12" y="334.585">5. Gera URLs completas das imagens</text><text fill="#000000" font-family="sans-serif" font-size="13" lengthAdjust="spacing" textLength="170" x="12" y="352.291">6. Cacheia cap&#237;tulo + p&#225;ginas</text><text fill="#000000" font-family="sans-serif" font-size="13" lengthAdjust="spacing" textLength="132" x="12" y="369.997">7. Retorna para leitura</text><text fill="#000000" font-family="sans-serif" font-size="13" lengthAdjust="spacing" textLength="3" x="12" y="387.7031">&#160;</text><text fill="#000000" font-family="sans-serif" font-size="13" font-weight="bold" lengthAdjust="spacing" textLength="85" x="12" y="405.4091">Otimiza&#231;&#245;es:</text><text fill="#000000" font-family="sans-serif" font-size="13" lengthAdjust="spacing" textLength="247" x="12" y="423.1151">- Cache longo (30min) - p&#225;ginas imut&#225;veis</text><text fill="#000000" font-family="sans-serif" font-size="13" lengthAdjust="spacing" textLength="196" x="12" y="440.8211">- P&#225;ginas ordenadas por n&#250;mero</text><text fill="#000000" font-family="sans-serif" font-size="13" lengthAdjust="spacing" textLength="113" x="12" y="458.5271">- URLs pr&#233;-geradas</text><text fill="#000000" font-family="sans-serif" font-size="13" lengthAdjust="spacing" textLength="79" x="12" y="476.2331">- Read replica</text><text fill="#000000" font-family="sans-serif" font-size="13" lengthAdjust="spacing" textLength="3" x="12" y="493.9392">&#160;</text><text fill="#000000" font-family="sans-serif" font-size="13" font-weight="bold" lengthAdjust="spacing" textLength="124" x="12" y="511.6452">Dados Retornados:</text><text fill="#000000" font-family="sans-serif" font-size="13" lengthAdjust="spacing" textLength="150" x="12" y="529.3512">- chapter.id, title, number</text><text fill="#000000" font-family="sans-serif" font-size="13" lengthAdjust="spacing" textLength="134" x="12" y="547.0572">- pages[].pageNumber</text><text fill="#000000" font-family="sans-serif" font-size="13" lengthAdjust="spacing" textLength="109" x="12" y="564.7632">- pages[].imageUrl</text><text fill="#000000" font-family="sans-serif" font-size="13" lengthAdjust="spacing" textLength="105" x="12" y="582.4692">- Total de p&#225;ginas</text></g><!--link Client to Controller--><g id="link_Client_Controller"><path codeLine="15" d="M172.85,152.4579 C180.15,155.2079 187.97,157.6479 195.5,159.0879 C231.52,165.9679 324.08,163.3579 360.5,159.0879 C367.88,158.2279 369.628,158.1213 377.218,156.6613 " fill="none" id="Client-to-Controller" style="stroke:#181818;stroke-width:1.0;"/><polygon fill="#181818" points="383.11,155.5279,373.5164,153.3,378.2,156.4724,375.0276,161.156,383.11,155.5279" style="stroke:#181818;stroke-width:1.0;"/><text fill="#000000" font-family="sans-serif" font-size="13" font-weight="bold" lengthAdjust="spacing" textLength="11" x="196.5" y="154.9849">1:</text><text fill="#000000" font-family="sans-serif" font-size="13" lengthAdjust="spacing" textLength="149" x="210.5" y="154.9849">GET /chapters/:chapterId</text></g><!--link Controller to Client--><g id="link_Controller_Client"><path codeLine="44" d="M383.09,137.0879 C317.57,137.0879 228.5,137.0879 178.9,137.0879 " fill="none" id="Controller-to-Client" style="stroke:#181818;stroke-width:1.0;"/><polygon fill="#181818" points="172.9,137.0879,181.9,141.0879,177.9,137.0879,181.9,133.0879,172.9,137.0879" style="stroke:#181818;stroke-width:1.0;"/><text fill="#000000" font-family="sans-serif" font-size="13" font-weight="bold" lengthAdjust="spacing" textLength="11" x="195.5" y="129.9849">2:</text><text fill="#000000" font-family="sans-serif" font-size="13" lengthAdjust="spacing" textLength="151" x="209.5" y="129.9849">200 OK {chapter, pages[]}</text></g><!--link DBSlave to GMN10--><g id="link_DBSlave_GMN10"><path d="M2219.9,119.6979 C2289.7,97.8979 2420.07,66.4279 2528,93.0179 C2551.35,98.7779 2575.38,112.2979 2591.73,122.8579 " fill="none" id="DBSlave-GMN10" style="stroke:#181818;stroke-width:1.0;stroke-dasharray:7.0,7.0;"/></g><!--link Controller to Service--><g id="link_Controller_Service"><path codeLine="18" d="M522.69,137.0879 C577.79,137.0879 647.94,137.0879 700.51,137.0879 " fill="none" id="Controller-to-Service" style="stroke:#181818;stroke-width:1.0;"/><polygon fill="#181818" points="706.51,137.0879,697.51,133.0879,701.51,137.0879,697.51,141.0879,706.51,137.0879" style="stroke:#181818;stroke-width:1.0;"/><text fill="#000000" font-family="sans-serif" font-size="13" font-weight="bold" lengthAdjust="spacing" textLength="22" x="545.25" y="129.9849">1.1:</text><text fill="#000000" font-family="sans-serif" font-size="13" lengthAdjust="spacing" textLength="114" x="570.25" y="129.9849">findOne(chapterId)</text></g><!--link Service to Controller--><g id="link_Service_Controller"><path codeLine="43" d="M706.93,154.5179 C698.38,156.4079 689.64,158.0279 681.25,159.0879 C622.6,166.4879 606.98,165.7879 548.25,159.0879 C539.99,158.1479 537.2924,157.8892 528.8024,156.2592 " fill="none" id="Service-to-Controller" style="stroke:#181818;stroke-width:1.0;"/><polygon fill="#181818" points="522.91,155.1279,530.9944,160.7531,527.8203,156.0707,532.5028,152.8966,522.91,155.1279" style="stroke:#181818;stroke-width:1.0;"/><text fill="#000000" font-family="sans-serif" font-size="13" font-weight="bold" lengthAdjust="spacing" textLength="22" x="549.25" y="154.9849">1.2:</text><text fill="#000000" font-family="sans-serif" font-size="13" lengthAdjust="spacing" textLength="106" x="574.25" y="154.9849">{chapter, pages[]}</text></g><!--link Service to Cache--><g id="link_Service_Cache"><path codeLine="20" d="M827.28,143.5179 C881.03,148.8979 961.91,156.1679 1032.5,159.0879 C1147.07,163.8279 1175.94,164.0479 1290.5,159.0879 C1362.22,155.9879 1439.0641,148.5965 1489.9841,143.1465 " fill="none" id="Service-to-Cache" style="stroke:#181818;stroke-width:1.0;"/><polygon fill="#181818" points="1495.95,142.5079,1486.5754,139.4884,1490.9784,143.04,1487.4268,147.443,1495.95,142.5079" style="stroke:#181818;stroke-width:1.0;"/><text fill="#000000" font-family="sans-serif" font-size="13" font-weight="bold" lengthAdjust="spacing" textLength="33" x="1033.5" y="154.9849">1.1.1:</text><text fill="#000000" font-family="sans-serif" font-size="13" lengthAdjust="spacing" textLength="220" x="1069.5" y="154.9849">get("chapter:" + chapterId + ":pages")</text></g><!--link Cache to Service--><g id="link_Cache_Service"><path codeLine="21" d="M1495.57,129.0079 C1462.32,123.8679 1417.12,117.7179 1377,115.0879 C1281.43,108.8179 1041.6,109.2379 946,115.0879 C906.31,117.5179 867.892,122.126 833.252,126.976 " fill="none" id="Cache-to-Service" style="stroke:#181818;stroke-width:1.0;"/><polygon fill="#181818" points="827.31,127.8079,836.7777,130.5213,832.2617,127.1146,835.6684,122.5986,827.31,127.8079" style="stroke:#181818;stroke-width:1.0;"/><text fill="#000000" font-family="sans-serif" font-size="13" font-weight="bold" lengthAdjust="spacing" textLength="33" x="1095" y="104.9849">1.1.2:</text><text fill="#000000" font-family="sans-serif" font-size="13" lengthAdjust="spacing" textLength="97" x="1131" y="104.9849">null (cache miss)</text></g><!--link Service to Cache--><g id="link_Service_Cache"><path codeLine="39" d="M827.32,137.0879 C976.54,137.0879 1354.65,137.0879 1489.96,137.0879 " fill="none" id="Service-to-Cache-1" style="stroke:#181818;stroke-width:1.0;"/><polygon fill="#181818" points="1495.96,137.0879,1486.96,133.0879,1490.96,137.0879,1486.96,141.0879,1495.96,137.0879" style="stroke:#181818;stroke-width:1.0;"/><text fill="#000000" font-family="sans-serif" font-size="13" font-weight="bold" lengthAdjust="spacing" textLength="33" x="947" y="129.9849">1.1.8:</text><text fill="#000000" font-family="sans-serif" font-size="13" lengthAdjust="spacing" textLength="393" x="983" y="129.9849">set("chapter:" + chapterId + ":pages", {chapter, pages}, TTL=30min)</text></g><!--link Cache to Service--><g id="link_Cache_Service"><path codeLine="41" d="M1495.77,148.7579 C1445.04,160.3979 1362.71,177.4479 1290.5,184.0879 C1233.41,189.3379 1089.61,189.1079 1032.5,184.0879 C961.5,177.8579 886.9165,163.6664 833.3565,152.1764 " fill="none" id="Cache-to-Service-1" style="stroke:#181818;stroke-width:1.0;"/><polygon fill="#181818" points="827.49,150.9179,835.4508,156.7167,832.3788,151.9667,837.1288,148.8947,827.49,150.9179" style="stroke:#181818;stroke-width:1.0;"/><text fill="#000000" font-family="sans-serif" font-size="13" font-weight="bold" lengthAdjust="spacing" textLength="33" x="1134.5" y="179.9849">1.1.9:</text><text fill="#000000" font-family="sans-serif" font-size="13" lengthAdjust="spacing" textLength="18" x="1170.5" y="179.9849">OK</text></g><!--link Service to ChapterRepo--><g id="link_Service_ChapterRepo"><path codeLine="23" d="M778.5,117.1579 C788.98,101.1879 806.07,79.9379 827.5,70.4479 C882.57,46.0679 1038.29,69.4579 1098.5,70.4479 C1606.93,78.7979 1735.28,65.5579 2242,108.0179 C2289.86,112.0279 2337.4362,118.3693 2379.1062,124.6093 " fill="none" id="Service-to-ChapterRepo" style="stroke:#181818;stroke-width:1.0;"/><polygon fill="#181818" points="2385.04,125.4979,2376.7316,120.2092,2380.0951,124.7574,2375.5469,128.1209,2385.04,125.4979" style="stroke:#181818;stroke-width:1.0;"/><text fill="#000000" font-family="sans-serif" font-size="13" font-weight="bold" lengthAdjust="spacing" textLength="33" x="828.5" y="73.9149">1.1.3:</text><text fill="#000000" font-family="sans-serif" font-size="13" lengthAdjust="spacing" textLength="233" x="864.5" y="73.9149">findOne({id: chapterId, deletedAt: null})</text></g><!--link ChapterRepo to Service--><g id="link_ChapterRepo_Service"><path codeLine="26" d="M2385.04,125.4979 C2343.37,119.2579 2289.86,112.0279 2242,108.0179 C1735.28,65.5579 1606.93,78.7979 1098.5,70.4479 C1038.29,69.4579 882.57,46.0679 827.5,70.4479 C806.07,79.9379 792.2719,96.1716 781.7919,112.1416 " fill="none" id="ChapterRepo-to-Service" style="stroke:#181818;stroke-width:1.0;"/><polygon fill="#181818" points="778.5,117.1579,786.782,111.828,781.2432,112.9776,780.0936,107.4388,778.5,117.1579" style="stroke:#181818;stroke-width:1.0;"/><text fill="#000000" font-family="sans-serif" font-size="13" font-weight="bold" lengthAdjust="spacing" textLength="33" x="922" y="73.9149">1.1.4:</text><text fill="#000000" font-family="sans-serif" font-size="13" lengthAdjust="spacing" textLength="46" x="958" y="73.9149">chapter</text></g><!--link ChapterRepo to DBSlave--><g id="link_ChapterRepo_DBSlave"><path codeLine="24" d="M2385.27,137.0879 C2333.78,137.0879 2271.68,137.0879 2225.99,137.0879 " fill="none" id="ChapterRepo-to-DBSlave" style="stroke:#181818;stroke-width:1.0;"/><polygon fill="#181818" points="2219.99,137.0879,2228.99,141.0879,2224.99,137.0879,2228.99,133.0879,2219.99,137.0879" style="stroke:#181818;stroke-width:1.0;"/><text fill="#000000" font-family="sans-serif" font-size="13" font-weight="bold" lengthAdjust="spacing" textLength="44" x="2094.5" y="129.9849">1.1.3.1:</text><text fill="#000000" font-family="sans-serif" font-size="13" lengthAdjust="spacing" textLength="369" x="2141.5" y="129.9849">SELECT * FROM chapters WHERE id=? AND deleted_at IS NULL</text></g><!--link DBSlave to ChapterRepo--><g id="link_DBSlave_ChapterRepo"><path codeLine="25" d="M2219.99,154.6179 C2226.97,156.4679 2234.11,158.0479 2241,159.0879 C2295.05,167.2679 2309.7,165.4279 2364,159.0879 C2370.92,158.2779 2372.182,158.2496 2379.302,156.9196 " fill="none" id="DBSlave-to-ChapterRepo" style="stroke:#181818;stroke-width:1.0;"/><polygon fill="#181818" points="2385.2,155.8179,2375.6185,153.5385,2380.285,156.736,2377.0875,161.4025,2385.2,155.8179" style="stroke:#181818;stroke-width:1.0;"/><text fill="#000000" font-family="sans-serif" font-size="13" font-weight="bold" lengthAdjust="spacing" textLength="44" x="2242" y="154.9849">1.1.3.2:</text><text fill="#000000" font-family="sans-serif" font-size="13" lengthAdjust="spacing" textLength="74" x="2289" y="154.9849">chapterData</text></g><!--link Service to PageRepo--><g id="link_Service_PageRepo"><path codeLine="28" d="M827.23,126.7079 C922.9,110.7979 1115.66,81.0979 1280.5,70.4479 C1325.18,67.5579 1642.56,52.3179 1683.5,70.4479 C1704.93,79.9379 1718.7281,96.1716 1729.2081,112.1416 " fill="none" id="Service-to-PageRepo" style="stroke:#181818;stroke-width:1.0;"/><polygon fill="#181818" points="1732.5,117.1579,1730.9064,107.4388,1729.7568,112.9776,1724.218,111.828,1732.5,117.1579" style="stroke:#181818;stroke-width:1.0;"/><text fill="#000000" font-family="sans-serif" font-size="13" font-weight="bold" lengthAdjust="spacing" textLength="33" x="1281.5" y="73.9149">1.1.5:</text><text fill="#000000" font-family="sans-serif" font-size="13" lengthAdjust="spacing" textLength="365" x="1317.5" y="73.9149">find({chapterId, deletedAt: null}, {order: {pageNumber: ASC}})</text></g><!--link PageRepo to Service--><g id="link_PageRepo_Service"><path codeLine="31" d="M1732.5,117.1579 C1722.02,101.1879 1704.93,79.9379 1683.5,70.4479 C1642.56,52.3179 1325.18,67.5579 1280.5,70.4479 C1115.66,81.0979 928.8187,109.8136 833.1487,125.7236 " fill="none" id="PageRepo-to-Service" style="stroke:#181818;stroke-width:1.0;"/><polygon fill="#181818" points="827.23,126.7079,836.7643,129.1773,832.1623,125.8877,835.4519,121.2857,827.23,126.7079" style="stroke:#181818;stroke-width:1.0;"/><text fill="#000000" font-family="sans-serif" font-size="13" font-weight="bold" lengthAdjust="spacing" textLength="33" x="1442" y="73.9149">1.1.6:</text><text fill="#000000" font-family="sans-serif" font-size="13" lengthAdjust="spacing" textLength="44" x="1478" y="73.9149">pages[]</text></g><!--link PageRepo to DBSlave--><g id="link_PageRepo_DBSlave"><path codeLine="29" d="M1805.49,137.0879 C1890.4,137.0879 2035.9,137.0879 2114.16,137.0879 " fill="none" id="PageRepo-to-DBSlave" style="stroke:#181818;stroke-width:1.0;"/><polygon fill="#181818" points="2120.16,137.0879,2111.16,133.0879,2115.16,137.0879,2111.16,141.0879,2120.16,137.0879" style="stroke:#181818;stroke-width:1.0;"/><text fill="#000000" font-family="sans-serif" font-size="13" font-weight="bold" lengthAdjust="spacing" textLength="44" x="1873.25" y="93.9849">1.1.5.1:</text><text fill="#000000" font-family="sans-serif" font-size="13" lengthAdjust="spacing" textLength="132" x="1920.25" y="93.9849">SELECT * FROM pages</text><text fill="#000000" font-family="sans-serif" font-size="13" lengthAdjust="spacing" textLength="270" x="1827.75" y="111.6909">WHERE chapter_id=? AND deleted_at IS NULL</text><text fill="#000000" font-family="sans-serif" font-size="13" lengthAdjust="spacing" textLength="173" x="1876.25" y="129.397">ORDER BY page_number ASC</text></g><!--link DBSlave to PageRepo--><g id="link_DBSlave_PageRepo"><path codeLine="30" d="M2120.28,146.4279 C2091.96,151.2679 2055.75,156.6679 2023.25,159.0879 C1969.62,163.0879 1955.9,162.7979 1902.25,159.0879 C1870.15,156.8679 1840.5798,153.0629 1811.3498,148.5529 " fill="none" id="DBSlave-to-PageRepo" style="stroke:#181818;stroke-width:1.0;"/><polygon fill="#181818" points="1805.42,147.6379,1813.7048,152.9635,1810.3615,148.4004,1814.9247,145.0571,1805.42,147.6379" style="stroke:#181818;stroke-width:1.0;"/><text fill="#000000" font-family="sans-serif" font-size="13" font-weight="bold" lengthAdjust="spacing" textLength="44" x="1903.25" y="154.9849">1.1.5.2:</text><text fill="#000000" font-family="sans-serif" font-size="13" lengthAdjust="spacing" textLength="72" x="1950.25" y="154.9849">pagesData[]</text></g><!--link Service to Service--><g id="link_Service_Service"><path codeLine="33" d="M827.37,125.9779 C851.14,125.4179 871,129.1179 871,137.0879 C871,145.0579 857.1383,148.9092 833.3683,148.3492 " fill="none" id="Service-to-Service" style="stroke:#181818;stroke-width:1.0;"/><polygon fill="#181818" points="827.37,148.2079,836.2733,152.4188,832.3686,148.3257,836.4617,144.421,827.37,148.2079" style="stroke:#181818;stroke-width:1.0;"/><text fill="#000000" font-family="sans-serif" font-size="13" font-weight="bold" lengthAdjust="spacing" textLength="33" x="877" y="142.4849">1.1.7:</text><text fill="#000000" font-family="sans-serif" font-size="13" lengthAdjust="spacing" textLength="128" x="913" y="142.4849">buildPageUrls(pages)</text></g><!--link GMN10 to GMN25--><g id="link_GMN10_GMN25"><path d="M2651.87,137.0879 C2666.09,137.0879 2680.32,137.0879 2694.54,137.0879 " fill="none" id="GMN10-GMN25" style="stroke:#181818;stroke-width:1.0;stroke-dasharray:7.0,7.0;"/></g><!--link GMN25 to GMN29--><g id="link_GMN25_GMN29"><path d="M3033.45,137.0879 C3048,137.0879 3062.55,137.0879 3077.11,137.0879 " fill="none" id="GMN25-GMN29" style="stroke:#181818;stroke-width:1.0;stroke-dasharray:7.0,7.0;"/></g><!--SRC=[ZLRRZjis47tNLmpyKg-pblUIJLe1Rk7OJchKMMzzIT0cmOAMk5wcb2YGrAAfuK_eHmHzAFgGnxxqrJ_M8QcRBrtKC62AF7DcvimCPSqqfp1WP2L9J22Yq1Tnbh2GRF_S_Y6W3Oj- -_moW3TCPOIptuY4FactNtJ6XUTz1PFbHwg5yWJ-XXeQGPypccZwFdbBbmqW2jn63N1FKarbNoHQ2iwfTAZoyG0ve_A1XTJ2ylK1PafJePWMyfDZgtOhw0rPqJrSiLM1fZHYga_2U-VFhghJ0T5aIHHcz_hJxCSnp3XvSC312xisadIxtLArqMpH6uz-xasXtxlP_ZvVZ2VctFESAj3-jfOv1D1gdGUj5hmQpg4JkYHK9yXNeyXBXAOWsUfU1r3jUZKEPCn5SdI-9RnZIJH9QBEqEV6y0cPYC6aMU6UnehhPoE510vvKxd3T259KJZLEF6VPFlJgNnYM9ECScg45nKofFRTLcKgpotguQnRLyZp5_kHKqwY7sHlc3VglKI1ZNeQApIKp6uw7_JcquELqyheWLF3s- -5q22pgVWUzwq71VaiqZ6PmlHYFlOAl_L_HkZHpHjCUkn4TqULfpM17ZQ8PI-HL8KLp_OW6fx0MCi8YmTeKvJgBb-QXD-jlK9-Iz8WuLyV4iON5wRNIv6vl7v7eVJAP3ePJUF6JDRrDh7_ZVaUym-ISSjQTqUtTXrgiHsHxLg8HMPTj7_ZS09SPuv7XMqYkcjRif3Oy7k3d5PK45jEnWb34AUP5L60FEdUCKzMnLftrKeXVHj6cKzK0rvNI6_zZkl9e4e6XVsIglZPngVypLLZHVFlKPOmrdi_7tSkpc2KdEtU0Sy55iXBGJBUVLop1ooWnLtUSHIH-R42_CG5DVgY5VEGsSbNQY-VTXytEbMFit7rcRAp5nTaPSXypTF4lXTOY1d5Nl1-CyAtMIvxzAXvxvxHQ5ddkvtOKbE0iP9f0M620gfI6soztB1GMVU736oePFXkKqQE9UaAkfq5S-YPpbN7aYKWa54IY8hIGfmWXKj8L0IqYL1c_fU9c0XE2knPwvHzhBZ16B4OT4WTxvhlwiNhiJqfIYtdkmnHVi38Xg21ISifq9ecNwpNHB4Q1y6NzDrL1BavxjorSchXRHilYJ6y_Fr2cSlpDGHwG2ebzz4zCfSX1DfjKRlzghp2v8jSsnaSYa3J5CfHn3Qo6UUIuh4BB6y9dU9Lfy-_Z5DoLaP_dVU9N4xPtO1N4iSwtvq8JRlwubBALi_Wl]--></g></svg>