<?xml version="1.0" encoding="us-ascii" standalone="no"?><svg xmlns="http://www.w3.org/2000/svg" xmlns:xlink="http://www.w3.org/1999/xlink" contentStyleType="text/css" height="537px" preserveAspectRatio="none" style="width:2815px;height:537px;background:#FFFFFF;" version="1.1" viewBox="0 0 2815 537" width="2815px" zoomAndPan="magnify"><defs/><g><text fill="#000000" font-family="sans-serif" font-size="14" font-weight="bold" lengthAdjust="spacing" textLength="403" x="1199.25" y="24.9659">Diagrama de Comunica&#231;&#227;o - UC-15: Listar Minhas Cole&#231;&#245;es</text><g id="elem_Client"><rect fill="#F1F1F1" height="58.1358" style="stroke:#181818;stroke-width:0.5;" width="65" x="253.5" y="47.0679"/><text fill="#000000" font-family="sans-serif" font-size="14" lengthAdjust="spacing" textLength="51" x="260.5" y="64.0339">:Cliente</text><text fill="#000000" font-family="sans-serif" font-size="14" lengthAdjust="spacing" textLength="30" x="271" y="83.1018">Web</text><line style="stroke:#181818;stroke-width:0.5;" x1="254.5" x2="317.5" y1="89.2038" y2="89.2038"/></g><g id="elem_Controller"><rect fill="#F1F1F1" height="39.0679" style="stroke:#181818;stroke-width:0.5;" width="197" x="305.5" y="347.0179"/><text fill="#000000" font-family="sans-serif" font-size="14" lengthAdjust="spacing" textLength="183" x="312.5" y="363.9839">:CollectionsBooksController</text><line style="stroke:#181818;stroke-width:0.5;" x1="306.5" x2="501.5" y1="370.0858" y2="370.0858"/></g><g id="elem_Service"><rect fill="#F1F1F1" height="39.0679" style="stroke:#181818;stroke-width:0.5;" width="178" x="695" y="347.0179"/><text fill="#000000" font-family="sans-serif" font-size="14" lengthAdjust="spacing" textLength="164" x="702" y="363.9839">:CollectionsBooksService</text><line style="stroke:#181818;stroke-width:0.5;" x1="696" x2="872" y1="370.0858" y2="370.0858"/></g><g id="elem_CollectionRepo"><rect fill="#F1F1F1" height="39.0679" style="stroke:#181818;stroke-width:0.5;" width="155" x="1697.5" y="347.0179"/><text fill="#000000" font-family="sans-serif" font-size="14" lengthAdjust="spacing" textLength="141" x="1704.5" y="363.9839">:CollectionRepository</text><line style="stroke:#181818;stroke-width:0.5;" x1="1698.5" x2="1851.5" y1="370.0858" y2="370.0858"/></g><g id="elem_Guard"><rect fill="#F1F1F1" height="39.0679" style="stroke:#181818;stroke-width:0.5;" width="85" x="488.5" y="56.5979"/><text fill="#000000" font-family="sans-serif" font-size="14" lengthAdjust="spacing" textLength="71" x="495.5" y="73.5639">:JWTGuard</text><line style="stroke:#181818;stroke-width:0.5;" x1="489.5" x2="572.5" y1="79.6658" y2="79.6658"/></g><g id="elem_Cache"><rect fill="#F1F1F1" height="39.0679" style="stroke:#181818;stroke-width:0.5;" width="96" x="1562" y="347.0179"/><text fill="#000000" font-family="sans-serif" font-size="14" lengthAdjust="spacing" textLength="82" x="1569" y="363.9839">:RedisCache</text><line style="stroke:#181818;stroke-width:0.5;" x1="1563" x2="1657" y1="370.0858" y2="370.0858"/></g><g id="elem_DBSlave"><rect fill="#F1F1F1" height="58.1358" style="stroke:#181818;stroke-width:0.5;" width="99" x="2223.5" y="337.4879"/><text fill="#000000" font-family="sans-serif" font-size="14" lengthAdjust="spacing" textLength="67" x="2239.5" y="354.4539">:Database</text><text fill="#000000" font-family="sans-serif" font-size="14" lengthAdjust="spacing" textLength="85" x="2230.5" y="373.5218">MySQL Slave</text><line style="stroke:#181818;stroke-width:0.5;" x1="2224.5" x2="2321.5" y1="379.6238" y2="379.6238"/></g><g id="elem_GMN17"><path d="M2362,326.1379 L2362,406.962 L2592,406.962 L2592,336.1379 L2582,326.1379 L2362,326.1379 " fill="#FEFFDD" style="stroke:#181818;stroke-width:0.5;"/><path d="M2582,326.1379 L2582,336.1379 L2592,336.1379 L2582,326.1379 " fill="#FEFFDD" style="stroke:#181818;stroke-width:1.0;"/><text fill="#000000" font-family="sans-serif" font-size="13" lengthAdjust="spacing" textLength="58" x="2368" y="345.0349">Relations:</text><text fill="#000000" font-family="sans-serif" font-size="13" lengthAdjust="spacing" textLength="194" x="2368" y="362.7409">- collectionBooks (junction table)</text><text fill="#000000" font-family="sans-serif" font-size="13" lengthAdjust="spacing" textLength="209" x="2368" y="380.447">- collectionBooks.book (eager load)</text><text fill="#000000" font-family="sans-serif" font-size="13" lengthAdjust="spacing" textLength="133" x="2368" y="398.153">Order: createdAt DESC</text></g><g id="elem_GMN24"><path d="M2631.5,317.2879 L2631.5,415.818 L2808.5,415.818 L2808.5,327.2879 L2798.5,317.2879 L2631.5,317.2879 " fill="#FEFFDD" style="stroke:#181818;stroke-width:0.5;"/><path d="M2798.5,317.2879 L2798.5,327.2879 L2808.5,327.2879 L2798.5,317.2879 " fill="#FEFFDD" style="stroke:#181818;stroke-width:1.0;"/><text fill="#000000" font-family="sans-serif" font-size="13" lengthAdjust="spacing" textLength="109" x="2637.5" y="336.1849">Para cada cole&#231;&#227;o:</text><text fill="#000000" font-family="sans-serif" font-size="13" lengthAdjust="spacing" textLength="149" x="2637.5" y="353.8909">- Adiciona count de livros</text><text fill="#000000" font-family="sans-serif" font-size="13" lengthAdjust="spacing" textLength="156" x="2637.5" y="371.597">- Mapeia preview de capas</text><text fill="#000000" font-family="sans-serif" font-size="13" lengthAdjust="spacing" textLength="94" x="2637.5" y="389.303">- Formata datas</text><text fill="#000000" font-family="sans-serif" font-size="13" lengthAdjust="spacing" textLength="153" x="2637.5" y="407.009">- Remove livros deletados</text></g><g id="elem_GMN31"><path d="M6,202.1979 L6,530.9062 L266,530.9062 L266,212.1979 L256,202.1979 L6,202.1979 " fill="#FEFFDD" style="stroke:#181818;stroke-width:0.5;"/><path d="M256,202.1979 L256,212.1979 L266,212.1979 L256,202.1979 " fill="#FEFFDD" style="stroke:#181818;stroke-width:1.0;"/><text fill="#000000" font-family="sans-serif" font-size="13" font-weight="bold" lengthAdjust="spacing" textLength="230" x="12" y="221.0949">Fluxo UC-15: Listar Minhas Cole&#231;&#245;es</text><text fill="#000000" font-family="sans-serif" font-size="13" lengthAdjust="spacing" textLength="227" x="12" y="238.8009">1. Cliente autenticado solicita cole&#231;&#245;es</text><text fill="#000000" font-family="sans-serif" font-size="13" lengthAdjust="spacing" textLength="114" x="12" y="256.507">2. JWT extrai userId</text><text fill="#000000" font-family="sans-serif" font-size="13" lengthAdjust="spacing" textLength="158" x="12" y="274.213">3. Verifica cache (5min TTL)</text><text fill="#000000" font-family="sans-serif" font-size="13" lengthAdjust="spacing" textLength="239" x="12" y="291.919">4. Consulta cole&#231;&#245;es do usu&#225;rio no slave</text><text fill="#000000" font-family="sans-serif" font-size="13" lengthAdjust="spacing" textLength="232" x="12" y="309.625">5. Eager load: collection_books + books</text><text fill="#000000" font-family="sans-serif" font-size="13" lengthAdjust="spacing" textLength="125" x="12" y="327.331">6. Transforma dados:</text><text fill="#000000" font-family="sans-serif" font-size="13" lengthAdjust="spacing" textLength="162" x="21" y="345.037">- Total de livros por cole&#231;&#227;o</text><text fill="#000000" font-family="sans-serif" font-size="13" lengthAdjust="spacing" textLength="186" x="21" y="362.7431">- Preview de capas (primeiras 4)</text><text fill="#000000" font-family="sans-serif" font-size="13" lengthAdjust="spacing" textLength="153" x="21" y="380.4491">- Remove livros deletados</text><text fill="#000000" font-family="sans-serif" font-size="13" lengthAdjust="spacing" textLength="119" x="12" y="398.1551">7. Cacheia resultado</text><text fill="#000000" font-family="sans-serif" font-size="13" lengthAdjust="spacing" textLength="160" x="12" y="415.8611">8. Retorna lista de cole&#231;&#245;es</text><text fill="#000000" font-family="sans-serif" font-size="13" lengthAdjust="spacing" textLength="3" x="12" y="433.5671">&#160;</text><text fill="#000000" font-family="sans-serif" font-size="13" font-weight="bold" lengthAdjust="spacing" textLength="57" x="12" y="451.2731">Retorno:</text><text fill="#000000" font-family="sans-serif" font-size="13" lengthAdjust="spacing" textLength="191" x="12" y="468.9792">- collection.id, name, description</text><text fill="#000000" font-family="sans-serif" font-size="13" lengthAdjust="spacing" textLength="141" x="12" y="486.6852">- collection.booksCount</text><text fill="#000000" font-family="sans-serif" font-size="13" lengthAdjust="spacing" textLength="203" x="12" y="504.3912">- collection.coverPreviews[] (URLs)</text><text fill="#000000" font-family="sans-serif" font-size="13" lengthAdjust="spacing" textLength="195" x="12" y="522.0972">- collection.createdAt, updatedAt</text></g><!--link Client to Controller--><g id="link_Client_Controller"><path codeLine="15" d="M318.92,99.2479 C331.01,108.9379 343.74,121.2879 352,135.1979 C393.64,205.3579 401.7198,299.6427 403.3698,340.8227 " fill="none" id="Client-to-Controller" style="stroke:#181818;stroke-width:1.0;"/><polygon fill="#181818" points="403.61,346.8179,407.2465,337.665,403.4098,341.8219,399.2529,337.9853,403.61,346.8179" style="stroke:#181818;stroke-width:1.0;"/><text fill="#000000" font-family="sans-serif" font-size="13" font-weight="bold" lengthAdjust="spacing" textLength="11" x="398.5" y="150.0949">1:</text><text fill="#000000" font-family="sans-serif" font-size="13" lengthAdjust="spacing" textLength="94" x="412.5" y="150.0949">GET /collections</text><text fill="#000000" font-family="sans-serif" font-size="13" lengthAdjust="spacing" textLength="165" x="370" y="167.8009">Authorization: Bearer token</text></g><!--link Controller to Client--><g id="link_Controller_Client"><path codeLine="51" d="M395.27,346.7679 C378.69,313.0379 339.44,242.0279 286,202.1979 C253.54,178.0079 223.44,205.2079 200,172.1979 C190.48,158.7879 192.28,149.7179 200,135.1979 C211.24,114.0379 228.6252,101.824 247.9152,92.434 " fill="none" id="Controller-to-Client" style="stroke:#181818;stroke-width:1.0;"/><polygon fill="#181818" points="253.31,89.8079,243.4671,90.1505,248.8143,91.9963,246.9685,97.3436,253.31,89.8079" style="stroke:#181818;stroke-width:1.0;"/><text fill="#000000" font-family="sans-serif" font-size="13" font-weight="bold" lengthAdjust="spacing" textLength="11" x="201" y="159.0949">2:</text><text fill="#000000" font-family="sans-serif" font-size="13" lengthAdjust="spacing" textLength="126" x="215" y="159.0949">200 OK {collections[]}</text></g><!--link Guard to Client--><g id="link_Guard_Client"><path codeLine="17" d="M488.11,76.1279 C439.84,76.1279 368.47,76.1279 324.79,76.1279 " fill="none" id="Guard-to-Client" style="stroke:#181818;stroke-width:1.0;"/><polygon fill="#181818" points="318.79,76.1279,327.79,80.1279,323.79,76.1279,327.79,72.1279,318.79,76.1279" style="stroke:#181818;stroke-width:1.0;"/><text fill="#000000" font-family="sans-serif" font-size="13" font-weight="bold" lengthAdjust="spacing" textLength="33" x="339.5" y="69.0249">1.0.1:</text><text fill="#000000" font-family="sans-serif" font-size="13" lengthAdjust="spacing" textLength="92" x="375.5" y="69.0249">validateToken()</text></g><!--link Client to Guard--><g id="link_Client_Guard"><path codeLine="18" d="M318.68,86.4379 C334.85,91.0079 354.76,95.8579 373,98.1279 C399.9,101.4779 407.06,101.1479 434,98.1279 C452.02,96.1179 465.7401,93.4664 482.5501,89.3764 " fill="none" id="Client-to-Guard" style="stroke:#181818;stroke-width:1.0;"/><polygon fill="#181818" points="488.38,87.9579,478.6895,86.199,483.5217,89.14,480.5808,93.9722,488.38,87.9579" style="stroke:#181818;stroke-width:1.0;"/><text fill="#000000" font-family="sans-serif" font-size="13" font-weight="bold" lengthAdjust="spacing" textLength="33" x="374" y="94.0249">1.0.2:</text><text fill="#000000" font-family="sans-serif" font-size="13" lengthAdjust="spacing" textLength="23" x="410" y="94.0249">JWT</text></g><!--link Guard to Controller--><g id="link_Guard_Controller"><path codeLine="19" d="M539.13,96.1279 C546.29,115.6279 554.38,146.6379 546,172.1979 C521.87,245.8079 462.1561,310.36 428.9461,342.43 " fill="none" id="Guard-to-Controller" style="stroke:#181818;stroke-width:1.0;"/><polygon fill="#181818" points="424.63,346.5979,433.8827,343.2234,428.2267,343.1247,428.3255,337.4687,424.63,346.5979" style="stroke:#181818;stroke-width:1.0;"/><text fill="#000000" font-family="sans-serif" font-size="13" font-weight="bold" lengthAdjust="spacing" textLength="33" x="550.56" y="159.0949">1.0.3:</text><text fill="#000000" font-family="sans-serif" font-size="13" lengthAdjust="spacing" textLength="54" x="586.56" y="159.0949">user={id}</text></g><!--link Controller to Service--><g id="link_Controller_Service"><path codeLine="21" d="M502.85,366.5579 C562.22,366.5579 631.16,366.5579 688.74,366.5579 " fill="none" id="Controller-to-Service" style="stroke:#181818;stroke-width:1.0;"/><polygon fill="#181818" points="694.74,366.5579,685.74,362.5579,689.74,366.5579,685.74,370.5579,694.74,366.5579" style="stroke:#181818;stroke-width:1.0;"/><text fill="#000000" font-family="sans-serif" font-size="13" font-weight="bold" lengthAdjust="spacing" textLength="22" x="523.25" y="359.4549">1.1:</text><text fill="#000000" font-family="sans-serif" font-size="13" lengthAdjust="spacing" textLength="126" x="548.25" y="359.4549">findAllByUser(userId)</text></g><!--link Service to Controller--><g id="link_Service_Controller"><path codeLine="50" d="M694.83,383.0479 C679.19,385.3379 663.04,387.3279 647.75,388.5579 C604.33,392.0379 593.18,391.8179 549.75,388.5579 C534.57,387.4179 524.517,386.4136 508.897,384.3236 " fill="none" id="Service-to-Controller" style="stroke:#181818;stroke-width:1.0;"/><polygon fill="#181818" points="502.95,383.5279,511.34,388.6862,507.9058,384.191,512.401,380.7568,502.95,383.5279" style="stroke:#181818;stroke-width:1.0;"/><text fill="#000000" font-family="sans-serif" font-size="13" font-weight="bold" lengthAdjust="spacing" textLength="22" x="550.75" y="384.4549">1.2:</text><text fill="#000000" font-family="sans-serif" font-size="13" lengthAdjust="spacing" textLength="71" x="575.75" y="384.4549">collections[]</text></g><!--link Service to Cache--><g id="link_Service_Cache"><path codeLine="23" d="M873.4,374.5579 C935.5,379.7079 1020.21,385.9079 1095,388.5579 C1203.82,392.3979 1231.2,392.9779 1340,388.5579 C1417.77,385.3879 1501.8604,377.7209 1555.8204,372.2709 " fill="none" id="Service-to-Cache" style="stroke:#181818;stroke-width:1.0;"/><polygon fill="#181818" points="1561.79,371.6679,1552.4336,368.5926,1556.8153,372.1704,1553.2375,376.5521,1561.79,371.6679" style="stroke:#181818;stroke-width:1.0;"/><text fill="#000000" font-family="sans-serif" font-size="13" font-weight="bold" lengthAdjust="spacing" textLength="33" x="1096" y="384.4549">1.1.1:</text><text fill="#000000" font-family="sans-serif" font-size="13" lengthAdjust="spacing" textLength="207" x="1132" y="384.4549">get("user:" + userId + ":collections")</text></g><!--link Cache to Service--><g id="link_Cache_Service"><path codeLine="24" d="M1561.59,359.6779 C1521.47,354.3379 1462.91,347.3979 1411.5,344.5579 C1325.41,339.7979 1109.63,340.6079 1023.5,344.5579 C973.76,346.8379 924.3587,351.1559 879.3987,355.7659 " fill="none" id="Cache-to-Service" style="stroke:#181818;stroke-width:1.0;"/><polygon fill="#181818" points="873.43,356.3779,882.7911,359.439,878.4039,355.8679,881.9751,351.4808,873.43,356.3779" style="stroke:#181818;stroke-width:1.0;"/><text fill="#000000" font-family="sans-serif" font-size="13" font-weight="bold" lengthAdjust="spacing" textLength="33" x="1151" y="334.4549">1.1.2:</text><text fill="#000000" font-family="sans-serif" font-size="13" lengthAdjust="spacing" textLength="97" x="1187" y="334.4549">null (cache miss)</text></g><!--link Service to Cache--><g id="link_Service_Cache"><path codeLine="47" d="M873.18,366.5579 C1047.35,366.5579 1421.4,366.5579 1555.76,366.5579 " fill="none" id="Service-to-Cache-1" style="stroke:#181818;stroke-width:1.0;"/><polygon fill="#181818" points="1561.76,366.5579,1552.76,362.5579,1556.76,366.5579,1552.76,370.5579,1561.76,366.5579" style="stroke:#181818;stroke-width:1.0;"/><text fill="#000000" font-family="sans-serif" font-size="13" font-weight="bold" lengthAdjust="spacing" textLength="33" x="1024.5" y="359.4549">1.1.6:</text><text fill="#000000" font-family="sans-serif" font-size="13" lengthAdjust="spacing" textLength="350" x="1060.5" y="359.4549">set("user:" + userId + ":collections", transformed, TTL=5min)</text></g><!--link Cache to Service--><g id="link_Cache_Service"><path codeLine="48" d="M1561.55,377.5879 C1507.77,389.2279 1418.22,406.7979 1340,413.5579 C1285.76,418.2379 1149.29,417.6379 1095,413.5579 C1019.86,407.9079 941.2579,395.7354 879.3279,384.7554 " fill="none" id="Cache-to-Service-1" style="stroke:#181818;stroke-width:1.0;"/><polygon fill="#181818" points="873.42,383.7079,881.5835,389.2177,878.3432,384.5808,882.9801,381.3405,873.42,383.7079" style="stroke:#181818;stroke-width:1.0;"/><text fill="#000000" font-family="sans-serif" font-size="13" font-weight="bold" lengthAdjust="spacing" textLength="33" x="1190.5" y="409.4549">1.1.7:</text><text fill="#000000" font-family="sans-serif" font-size="13" lengthAdjust="spacing" textLength="18" x="1226.5" y="409.4549">OK</text></g><!--link Service to CollectionRepo--><g id="link_Service_CollectionRepo"><path codeLine="26" d="M806.46,346.6379 C854.38,305.6379 971.95,212.8679 1090,179.6779 C1215.88,144.2779 1566.85,133.3079 1678,202.1979 C1731.79,235.5379 1757.6277,304.8586 1768.1377,340.8386 " fill="none" id="Service-to-CollectionRepo" style="stroke:#181818;stroke-width:1.0;"/><polygon fill="#181818" points="1769.82,346.5979,1771.136,336.8374,1768.4181,341.7985,1763.457,339.0805,1769.82,346.5979" style="stroke:#181818;stroke-width:1.0;"/><text fill="#000000" font-family="sans-serif" font-size="13" font-weight="bold" lengthAdjust="spacing" textLength="33" x="1091" y="159.0949">1.1.3:</text><text fill="#000000" font-family="sans-serif" font-size="13" lengthAdjust="spacing" textLength="238" x="1127" y="159.0949">find({userId}, {relations: ['books.book']})</text></g><!--link CollectionRepo to Service--><g id="link_CollectionRepo_Service"><path codeLine="36" d="M1769.82,346.5979 C1759.31,310.6179 1731.79,235.5379 1678,202.1979 C1566.85,133.3079 1215.88,144.2779 1090,179.6779 C971.95,212.8679 858.939,301.7372 811.019,342.7372 " fill="none" id="CollectionRepo-to-Service" style="stroke:#181818;stroke-width:1.0;"/><polygon fill="#181818" points="806.46,346.6379,815.899,343.8263,810.2592,343.3874,810.6981,337.7476,806.46,346.6379" style="stroke:#181818;stroke-width:1.0;"/><text fill="#000000" font-family="sans-serif" font-size="13" font-weight="bold" lengthAdjust="spacing" textLength="33" x="1174.5" y="159.0949">1.1.4:</text><text fill="#000000" font-family="sans-serif" font-size="13" lengthAdjust="spacing" textLength="71" x="1210.5" y="159.0949">collections[]</text></g><!--link DBSlave to GMN17--><g id="link_DBSlave_GMN17"><path d="M2322.8,366.5579 C2335.75,366.5579 2348.7,366.5579 2361.65,366.5579 " fill="none" id="DBSlave-GMN17" style="stroke:#181818;stroke-width:1.0;stroke-dasharray:7.0,7.0;"/></g><!--link CollectionRepo to DBSlave--><g id="link_CollectionRepo_DBSlave"><path codeLine="34" d="M1852.81,366.5579 C1956.35,366.5579 2130.44,366.5579 2217.31,366.5579 " fill="none" id="CollectionRepo-to-DBSlave" style="stroke:#181818;stroke-width:1.0;"/><polygon fill="#181818" points="2223.31,366.5579,2214.31,362.5579,2218.31,366.5579,2214.31,370.5579,2223.31,366.5579" style="stroke:#181818;stroke-width:1.0;"/><text fill="#000000" font-family="sans-serif" font-size="13" font-weight="bold" lengthAdjust="spacing" textLength="44" x="1956.5" y="270.4549">1.1.3.1:</text><text fill="#000000" font-family="sans-serif" font-size="13" lengthAdjust="spacing" textLength="116" x="2003.5" y="270.4549">SELECT c.*, cb.*, b.*</text><text fill="#000000" font-family="sans-serif" font-size="13" lengthAdjust="spacing" textLength="112" x="1982" y="288.1609">FROM collections c</text><text fill="#000000" font-family="sans-serif" font-size="13" lengthAdjust="spacing" textLength="329" x="1873.5" y="305.867">LEFT JOIN collection_books cb ON c.id = cb.collection_id</text><text fill="#000000" font-family="sans-serif" font-size="13" lengthAdjust="spacing" textLength="236" x="1920" y="323.573">LEFT JOIN books b ON cb.book_id = b.id</text><text fill="#000000" font-family="sans-serif" font-size="13" lengthAdjust="spacing" textLength="270" x="1903" y="341.279">WHERE c.user_id=? AND b.deleted_at IS NULL</text><text fill="#000000" font-family="sans-serif" font-size="13" lengthAdjust="spacing" textLength="169" x="1953.5" y="358.985">ORDER BY c.created_at DESC</text></g><!--link DBSlave to CollectionRepo--><g id="link_DBSlave_CollectionRepo"><path codeLine="35" d="M2223.14,375.1479 C2191.43,380.1679 2149.43,386.0079 2112,388.5579 C2046.37,393.0179 2029.67,392.3579 1964,388.5579 C1927.39,386.4279 1892.9522,382.7638 1858.9322,378.4438 " fill="none" id="DBSlave-to-CollectionRepo" style="stroke:#181818;stroke-width:1.0;"/><polygon fill="#181818" points="1852.98,377.6879,1861.4044,382.7898,1857.9402,378.3178,1862.4122,374.8535,1852.98,377.6879" style="stroke:#181818;stroke-width:1.0;"/><text fill="#000000" font-family="sans-serif" font-size="13" font-weight="bold" lengthAdjust="spacing" textLength="44" x="1965" y="384.4549">1.1.3.2:</text><text fill="#000000" font-family="sans-serif" font-size="13" lengthAdjust="spacing" textLength="99" x="2012" y="384.4549">collectionsData[]</text></g><!--link Service to Service--><g id="link_Service_Service"><path codeLine="38" d="M805.26,346.5979 C850.35,314.4779 913,321.1379 913,366.5579 C913,411.9679 855.2374,422.1084 810.1474,389.9984 " fill="none" id="Service-to-Service" style="stroke:#181818;stroke-width:1.0;"/><polygon fill="#181818" points="805.26,386.5179,810.2708,394.9968,809.3328,389.4183,814.9114,388.4803,805.26,386.5179" style="stroke:#181818;stroke-width:1.0;"/><text fill="#000000" font-family="sans-serif" font-size="13" font-weight="bold" lengthAdjust="spacing" textLength="33" x="919" y="371.9549">1.1.5:</text><text fill="#000000" font-family="sans-serif" font-size="13" lengthAdjust="spacing" textLength="196" x="955" y="371.9549">transformCollections(collections)</text></g><!--link GMN17 to GMN24--><g id="link_GMN17_GMN24"><path d="M2592.33,366.5579 C2605.3,366.5579 2618.26,366.5579 2631.23,366.5579 " fill="none" id="GMN17-GMN24" style="stroke:#181818;stroke-width:1.0;stroke-dasharray:7.0,7.0;"/></g><!--link Client to GMN31--><g id="link_Client_GMN31"><path d="M253.47,87.5079 C230.55,96.4979 201.03,111.8079 184,135.1979 C169.63,154.9279 159.36,177.9979 152.05,201.7779 " fill="none" id="Client-GMN31" style="stroke:#181818;stroke-width:1.0;stroke-dasharray:7.0,7.0;"/></g><!--SRC=[ZLPTSY8t47wVKtJnue65YNztKrIH53_ZZJVOR037bLflkSH8jhKhHfIa8Uku_9mJv02fFEG4EG4NIqkQOGQ3D-41DDDVTwk__jJ2S2CO33YvKsHEW3BeotcMyeIi_bxz9Q45b_tMmKaRXbmRek2Sf_T48qWm1Fp3T13imMZsYHcf0uc_YO5QkoyuImsxJg_Oh0OMxrvK0588N76PwfwKdtLVfaRPTyh3ruylkqoOMlA4ENo-tWKUiuNKt4Zra4Uk6ag7TrVJjnbHr87SghID6UMwJv9xdyojIkk0638Z6eizVvZyD8I984iF7FJSsZBKwNJMH9vDfjqnz4V3UFNxwezuOer1u1c2rdULug4DZSP1kz60j_4KlabA1gxJRcRkfUA_4VlSXXuZ2XsC_CpI8705k5W-geiJxKSkrf88JebXKuiDwvNCtgq07remyb94sx4rH1rPLAQPwZno-eHrb11qo1kJertwMvxIhX2zXqjq2gtd6Qq7GO6qMIp1XOjtkcCch5bikmQlm3lXejQkS5B3KfndQpknBoRDX80mSQ0vr_fPsWrfh3sFYas7ZpxlKnCU5HEEUDs63tipAyV8VkzzVAe7gJGC5B-xDm7WPxo6kiSMb5jsEeRmKvQwHq0X2LRV3NFn8MJa3faLab2F6ocAf42Y67QKTWqCuaa_O2a5kmtRZesYiCnSbMLzdk59F8pxKqYYHXEIcVt6h-lqT3mwhsn5GtAT3kFJARmRdLrK33UE1FI44RwEE8ME3LC1S5hrz72FdhdQRfpFBBAugn_YSOnXBE7ullCzT2y6QADCC2ppXXWucy35vN1udOx6WtWClLyGdhDWpOw6ejJMLxhhbL6fq9xd3n-tYDkXgUDddkXLrTDp-8c56qLIVIlLl3BEmagCBVcy9uf0GYYncPWRoeMGkfGdw6Cj6HvWdDs2BnNEOMy-9ml62ImKMtBsgpKdP44Awodk0Ii5d0JhTsCsbyiY2ZYo2SLufPnUFAMlRN7w_vpIPia1eqsOJeUTapbFltPutzZWenyhwNVDeiFjTbI7qUOqTE33_NqC2uyRJZZ3N0jcqXWv1tbRN5wMeqRZL6HVv7zTYes6Gnz4kIy3aXdynMkLIj1IOEFCkgFs5hNmmyYEMs1Va22Uq-SCHn7yp1I_HNVmqokqb5dk_1GuZYmTEXCRGG5pPJfR_QcunFw1ThUHnPz44Ay7INlx6B_ovzDXNqSmBHfcvOA2y09qafbAGqGfFLX8LGgrXBr_9a885uhF6LUuFAwNk9SKQArl8gyvrBHYhbRgCtmReH_Uy7WIX6s8orBvW-8Rvo6odVUcEc1nvZGX9NFMH5UTABwmRxTXC_zN9Sl5i65BSDygBnDL1E7bUAZhEt35f6v2jg1-MHwmVm40]--></g></svg>